<mxfile host="app.diagrams.net" modified="2024-03-23T05:44:00.368Z" agent="Mozilla/5.0 (Windows NT 10.0; Win64; x64; rv:124.0) Gecko/20100101 Firefox/124.0" etag="3FTXRTB0Sw1MDCbX1RMi" version="24.0.0" type="device">
  <diagram name="Página-1" id="QFCZs9NQj6PPKkV8C9Rk">
    <mxGraphModel dx="3187" dy="1658" grid="1" gridSize="10" guides="1" tooltips="1" connect="1" arrows="1" fold="1" page="1" pageScale="1" pageWidth="850" pageHeight="1400" math="0" shadow="0">
      <root>
        <mxCell id="0" />
        <mxCell id="1" parent="0" />
        <mxCell id="tdU1UxHSjvvt7bZlvKKS-34" style="edgeStyle=orthogonalEdgeStyle;rounded=0;orthogonalLoop=1;jettySize=auto;html=1;exitX=0;exitY=0.5;exitDx=0;exitDy=0;endArrow=none;endFill=0;" edge="1" parent="1" source="tdU1UxHSjvvt7bZlvKKS-1">
          <mxGeometry relative="1" as="geometry">
            <mxPoint x="110" y="1183" as="targetPoint" />
          </mxGeometry>
        </mxCell>
        <mxCell id="tdU1UxHSjvvt7bZlvKKS-35" value="&lt;div&gt;&lt;br&gt;&lt;/div&gt;&lt;div&gt;&lt;br&gt;&lt;/div&gt;" style="edgeLabel;html=1;align=center;verticalAlign=middle;resizable=0;points=[];" vertex="1" connectable="0" parent="tdU1UxHSjvvt7bZlvKKS-34">
          <mxGeometry x="0.9909" y="1" relative="1" as="geometry">
            <mxPoint as="offset" />
          </mxGeometry>
        </mxCell>
        <mxCell id="tdU1UxHSjvvt7bZlvKKS-68" style="edgeStyle=orthogonalEdgeStyle;rounded=0;orthogonalLoop=1;jettySize=auto;html=1;exitX=0.5;exitY=0;exitDx=0;exitDy=0;endArrow=none;endFill=0;" edge="1" parent="1" source="tdU1UxHSjvvt7bZlvKKS-1">
          <mxGeometry relative="1" as="geometry">
            <mxPoint x="440" y="153" as="targetPoint" />
            <Array as="points">
              <mxPoint x="200" y="153" />
              <mxPoint x="440" y="153" />
            </Array>
          </mxGeometry>
        </mxCell>
        <mxCell id="tdU1UxHSjvvt7bZlvKKS-1" value="40%" style="rounded=0;whiteSpace=wrap;html=1;fillColor=#f8cecc;strokeColor=#b85450;" vertex="1" parent="1">
          <mxGeometry x="140" y="173" width="120" height="60" as="geometry" />
        </mxCell>
        <mxCell id="tdU1UxHSjvvt7bZlvKKS-46" style="edgeStyle=orthogonalEdgeStyle;rounded=0;orthogonalLoop=1;jettySize=auto;html=1;exitX=0;exitY=0.5;exitDx=0;exitDy=0;endArrow=none;endFill=0;" edge="1" parent="1" source="tdU1UxHSjvvt7bZlvKKS-2">
          <mxGeometry relative="1" as="geometry">
            <mxPoint x="350" y="1183" as="targetPoint" />
          </mxGeometry>
        </mxCell>
        <mxCell id="tdU1UxHSjvvt7bZlvKKS-2" value="80%" style="rounded=0;whiteSpace=wrap;html=1;fillColor=#fff2cc;strokeColor=#d6b656;" vertex="1" parent="1">
          <mxGeometry x="380" y="173" width="120" height="60" as="geometry" />
        </mxCell>
        <mxCell id="tdU1UxHSjvvt7bZlvKKS-57" style="edgeStyle=orthogonalEdgeStyle;rounded=0;orthogonalLoop=1;jettySize=auto;html=1;exitX=0;exitY=0.5;exitDx=0;exitDy=0;endArrow=none;endFill=0;" edge="1" parent="1" source="tdU1UxHSjvvt7bZlvKKS-3">
          <mxGeometry relative="1" as="geometry">
            <mxPoint x="590" y="1183" as="targetPoint" />
          </mxGeometry>
        </mxCell>
        <mxCell id="tdU1UxHSjvvt7bZlvKKS-69" style="edgeStyle=orthogonalEdgeStyle;rounded=0;orthogonalLoop=1;jettySize=auto;html=1;exitX=0.5;exitY=0;exitDx=0;exitDy=0;endArrow=none;endFill=0;" edge="1" parent="1" source="tdU1UxHSjvvt7bZlvKKS-3">
          <mxGeometry relative="1" as="geometry">
            <mxPoint x="440" y="133" as="targetPoint" />
            <Array as="points">
              <mxPoint x="680" y="153" />
              <mxPoint x="440" y="153" />
            </Array>
          </mxGeometry>
        </mxCell>
        <mxCell id="tdU1UxHSjvvt7bZlvKKS-3" value="100%" style="rounded=0;whiteSpace=wrap;html=1;fillColor=#d5e8d4;strokeColor=#82b366;" vertex="1" parent="1">
          <mxGeometry x="620" y="173" width="120" height="60" as="geometry" />
        </mxCell>
        <mxCell id="tdU1UxHSjvvt7bZlvKKS-37" style="edgeStyle=orthogonalEdgeStyle;rounded=0;orthogonalLoop=1;jettySize=auto;html=1;exitX=0;exitY=0.5;exitDx=0;exitDy=0;endArrow=classic;endFill=1;" edge="1" parent="1" source="tdU1UxHSjvvt7bZlvKKS-4">
          <mxGeometry relative="1" as="geometry">
            <mxPoint x="110" y="392.6956521739131" as="targetPoint" />
          </mxGeometry>
        </mxCell>
        <mxCell id="tdU1UxHSjvvt7bZlvKKS-4" value="Generación de Documentación" style="rounded=0;whiteSpace=wrap;html=1;fillColor=#f5f5f5;strokeColor=#666666;fontColor=#333333;" vertex="1" parent="1">
          <mxGeometry x="140" y="363" width="120" height="60" as="geometry" />
        </mxCell>
        <mxCell id="tdU1UxHSjvvt7bZlvKKS-38" style="edgeStyle=orthogonalEdgeStyle;rounded=0;orthogonalLoop=1;jettySize=auto;html=1;exitX=0;exitY=0.5;exitDx=0;exitDy=0;" edge="1" parent="1" source="tdU1UxHSjvvt7bZlvKKS-5">
          <mxGeometry relative="1" as="geometry">
            <mxPoint x="110" y="492.6956521739131" as="targetPoint" />
          </mxGeometry>
        </mxCell>
        <mxCell id="tdU1UxHSjvvt7bZlvKKS-5" value="Inicio del Proyecto" style="rounded=0;whiteSpace=wrap;html=1;fillColor=#f5f5f5;strokeColor=#666666;fontColor=#333333;" vertex="1" parent="1">
          <mxGeometry x="140" y="463" width="120" height="60" as="geometry" />
        </mxCell>
        <mxCell id="tdU1UxHSjvvt7bZlvKKS-36" style="edgeStyle=orthogonalEdgeStyle;rounded=0;orthogonalLoop=1;jettySize=auto;html=1;exitX=0;exitY=0.5;exitDx=0;exitDy=0;endArrow=classic;endFill=1;" edge="1" parent="1" source="tdU1UxHSjvvt7bZlvKKS-6">
          <mxGeometry relative="1" as="geometry">
            <mxPoint x="110" y="292.6956521739131" as="targetPoint" />
          </mxGeometry>
        </mxCell>
        <mxCell id="tdU1UxHSjvvt7bZlvKKS-6" value="Toma de Requerimientos" style="rounded=0;whiteSpace=wrap;html=1;fillColor=#f5f5f5;strokeColor=#666666;fontColor=#333333;fontStyle=0" vertex="1" parent="1">
          <mxGeometry x="140" y="263" width="120" height="60" as="geometry" />
        </mxCell>
        <mxCell id="tdU1UxHSjvvt7bZlvKKS-39" style="edgeStyle=orthogonalEdgeStyle;rounded=0;orthogonalLoop=1;jettySize=auto;html=1;exitX=0;exitY=0.5;exitDx=0;exitDy=0;" edge="1" parent="1" source="tdU1UxHSjvvt7bZlvKKS-7">
          <mxGeometry relative="1" as="geometry">
            <mxPoint x="110" y="592.6956521739132" as="targetPoint" />
          </mxGeometry>
        </mxCell>
        <mxCell id="tdU1UxHSjvvt7bZlvKKS-7" value="Creación de Repositorio" style="rounded=0;whiteSpace=wrap;html=1;fillColor=#f5f5f5;strokeColor=#666666;fontColor=#333333;fontStyle=0" vertex="1" parent="1">
          <mxGeometry x="140" y="563" width="120" height="60" as="geometry" />
        </mxCell>
        <mxCell id="tdU1UxHSjvvt7bZlvKKS-40" style="edgeStyle=orthogonalEdgeStyle;rounded=0;orthogonalLoop=1;jettySize=auto;html=1;exitX=0;exitY=0.5;exitDx=0;exitDy=0;" edge="1" parent="1" source="tdU1UxHSjvvt7bZlvKKS-8">
          <mxGeometry relative="1" as="geometry">
            <mxPoint x="110" y="688.3478260869565" as="targetPoint" />
          </mxGeometry>
        </mxCell>
        <mxCell id="tdU1UxHSjvvt7bZlvKKS-8" value="Creación de Base de Datos" style="rounded=0;whiteSpace=wrap;html=1;fillColor=#f5f5f5;strokeColor=#666666;fontColor=#333333;fontStyle=0" vertex="1" parent="1">
          <mxGeometry x="140" y="658" width="120" height="60" as="geometry" />
        </mxCell>
        <mxCell id="tdU1UxHSjvvt7bZlvKKS-41" style="edgeStyle=orthogonalEdgeStyle;rounded=0;orthogonalLoop=1;jettySize=auto;html=1;exitX=0;exitY=0.5;exitDx=0;exitDy=0;" edge="1" parent="1" source="tdU1UxHSjvvt7bZlvKKS-9">
          <mxGeometry relative="1" as="geometry">
            <mxPoint x="110" y="783.1304347826087" as="targetPoint" />
          </mxGeometry>
        </mxCell>
        <mxCell id="tdU1UxHSjvvt7bZlvKKS-9" value="Generar Proyectos Base" style="rounded=0;whiteSpace=wrap;html=1;fillColor=#f5f5f5;strokeColor=#666666;fontColor=#333333;fontStyle=0" vertex="1" parent="1">
          <mxGeometry x="140" y="753" width="120" height="60" as="geometry" />
        </mxCell>
        <mxCell id="tdU1UxHSjvvt7bZlvKKS-42" style="edgeStyle=orthogonalEdgeStyle;rounded=0;orthogonalLoop=1;jettySize=auto;html=1;exitX=0;exitY=0.5;exitDx=0;exitDy=0;" edge="1" parent="1" source="tdU1UxHSjvvt7bZlvKKS-10">
          <mxGeometry relative="1" as="geometry">
            <mxPoint x="110" y="883.1304347826087" as="targetPoint" />
          </mxGeometry>
        </mxCell>
        <mxCell id="tdU1UxHSjvvt7bZlvKKS-10" value="Creación de Pantalla Principal" style="rounded=0;whiteSpace=wrap;html=1;fillColor=#f5f5f5;strokeColor=#666666;fontColor=#333333;fontStyle=0" vertex="1" parent="1">
          <mxGeometry x="140" y="853" width="120" height="60" as="geometry" />
        </mxCell>
        <mxCell id="tdU1UxHSjvvt7bZlvKKS-43" style="edgeStyle=orthogonalEdgeStyle;rounded=0;orthogonalLoop=1;jettySize=auto;html=1;exitX=0;exitY=0.5;exitDx=0;exitDy=0;" edge="1" parent="1" source="tdU1UxHSjvvt7bZlvKKS-11">
          <mxGeometry relative="1" as="geometry">
            <mxPoint x="110" y="983.1304347826087" as="targetPoint" />
          </mxGeometry>
        </mxCell>
        <mxCell id="tdU1UxHSjvvt7bZlvKKS-11" value="Creación de Usuarios" style="rounded=0;whiteSpace=wrap;html=1;fillColor=#f5f5f5;strokeColor=#666666;fontColor=#333333;fontStyle=0" vertex="1" parent="1">
          <mxGeometry x="140" y="953" width="120" height="60" as="geometry" />
        </mxCell>
        <mxCell id="tdU1UxHSjvvt7bZlvKKS-44" style="edgeStyle=orthogonalEdgeStyle;rounded=0;orthogonalLoop=1;jettySize=auto;html=1;exitX=0;exitY=0.5;exitDx=0;exitDy=0;" edge="1" parent="1" source="tdU1UxHSjvvt7bZlvKKS-12">
          <mxGeometry relative="1" as="geometry">
            <mxPoint x="110" y="1083.1304347826087" as="targetPoint" />
          </mxGeometry>
        </mxCell>
        <mxCell id="tdU1UxHSjvvt7bZlvKKS-12" value="Crear servidor cdn para imagenes" style="rounded=0;whiteSpace=wrap;html=1;fillColor=#f5f5f5;strokeColor=#666666;fontColor=#333333;fontStyle=0" vertex="1" parent="1">
          <mxGeometry x="140" y="1053" width="120" height="60" as="geometry" />
        </mxCell>
        <mxCell id="tdU1UxHSjvvt7bZlvKKS-45" style="edgeStyle=orthogonalEdgeStyle;rounded=0;orthogonalLoop=1;jettySize=auto;html=1;exitX=0;exitY=0.5;exitDx=0;exitDy=0;" edge="1" parent="1" source="tdU1UxHSjvvt7bZlvKKS-13">
          <mxGeometry relative="1" as="geometry">
            <mxPoint x="110" y="1183.1304347826087" as="targetPoint" />
          </mxGeometry>
        </mxCell>
        <mxCell id="tdU1UxHSjvvt7bZlvKKS-13" value="Inicio/Registro en plataforma" style="rounded=0;whiteSpace=wrap;html=1;fillColor=#f5f5f5;strokeColor=#666666;fontColor=#333333;fontStyle=0" vertex="1" parent="1">
          <mxGeometry x="140" y="1153" width="120" height="60" as="geometry" />
        </mxCell>
        <mxCell id="tdU1UxHSjvvt7bZlvKKS-48" style="edgeStyle=orthogonalEdgeStyle;rounded=0;orthogonalLoop=1;jettySize=auto;html=1;exitX=0;exitY=0.5;exitDx=0;exitDy=0;" edge="1" parent="1" source="tdU1UxHSjvvt7bZlvKKS-14">
          <mxGeometry relative="1" as="geometry">
            <mxPoint x="350" y="393" as="targetPoint" />
          </mxGeometry>
        </mxCell>
        <mxCell id="tdU1UxHSjvvt7bZlvKKS-14" value="Carrito de Compras" style="rounded=0;whiteSpace=wrap;html=1;fillColor=#f5f5f5;strokeColor=#666666;fontColor=#333333;" vertex="1" parent="1">
          <mxGeometry x="380" y="363" width="120" height="60" as="geometry" />
        </mxCell>
        <mxCell id="tdU1UxHSjvvt7bZlvKKS-49" style="edgeStyle=orthogonalEdgeStyle;rounded=0;orthogonalLoop=1;jettySize=auto;html=1;exitX=0;exitY=0.5;exitDx=0;exitDy=0;" edge="1" parent="1" source="tdU1UxHSjvvt7bZlvKKS-15">
          <mxGeometry relative="1" as="geometry">
            <mxPoint x="350" y="492.6956521739131" as="targetPoint" />
          </mxGeometry>
        </mxCell>
        <mxCell id="tdU1UxHSjvvt7bZlvKKS-15" value="Cargar dinero a plataforma" style="rounded=0;whiteSpace=wrap;html=1;fillColor=#f5f5f5;strokeColor=#666666;fontColor=#333333;" vertex="1" parent="1">
          <mxGeometry x="380" y="463" width="120" height="60" as="geometry" />
        </mxCell>
        <mxCell id="tdU1UxHSjvvt7bZlvKKS-47" style="edgeStyle=orthogonalEdgeStyle;rounded=0;orthogonalLoop=1;jettySize=auto;html=1;exitX=0;exitY=0.5;exitDx=0;exitDy=0;" edge="1" parent="1" source="tdU1UxHSjvvt7bZlvKKS-16">
          <mxGeometry relative="1" as="geometry">
            <mxPoint x="350" y="292.6956521739131" as="targetPoint" />
          </mxGeometry>
        </mxCell>
        <mxCell id="tdU1UxHSjvvt7bZlvKKS-16" value="CRUD de publicaciones" style="rounded=0;whiteSpace=wrap;html=1;fillColor=#f5f5f5;strokeColor=#666666;fontColor=#333333;fontStyle=0" vertex="1" parent="1">
          <mxGeometry x="380" y="263" width="120" height="60" as="geometry" />
        </mxCell>
        <mxCell id="tdU1UxHSjvvt7bZlvKKS-50" style="edgeStyle=orthogonalEdgeStyle;rounded=0;orthogonalLoop=1;jettySize=auto;html=1;exitX=0;exitY=0.5;exitDx=0;exitDy=0;" edge="1" parent="1" source="tdU1UxHSjvvt7bZlvKKS-17">
          <mxGeometry relative="1" as="geometry">
            <mxPoint x="350" y="592.6956521739132" as="targetPoint" />
          </mxGeometry>
        </mxCell>
        <mxCell id="tdU1UxHSjvvt7bZlvKKS-17" value="Verificación de Publicaciones por Admin" style="rounded=0;whiteSpace=wrap;html=1;fillColor=#f5f5f5;strokeColor=#666666;fontColor=#333333;fontStyle=0" vertex="1" parent="1">
          <mxGeometry x="380" y="563" width="120" height="60" as="geometry" />
        </mxCell>
        <mxCell id="tdU1UxHSjvvt7bZlvKKS-51" style="edgeStyle=orthogonalEdgeStyle;rounded=0;orthogonalLoop=1;jettySize=auto;html=1;exitX=0;exitY=0.5;exitDx=0;exitDy=0;" edge="1" parent="1" source="tdU1UxHSjvvt7bZlvKKS-18">
          <mxGeometry relative="1" as="geometry">
            <mxPoint x="350" y="688.3478260869565" as="targetPoint" />
          </mxGeometry>
        </mxCell>
        <mxCell id="tdU1UxHSjvvt7bZlvKKS-18" value="Visualizar publicaciones por gustos" style="rounded=0;whiteSpace=wrap;html=1;fillColor=#f5f5f5;strokeColor=#666666;fontColor=#333333;fontStyle=0" vertex="1" parent="1">
          <mxGeometry x="380" y="658" width="120" height="60" as="geometry" />
        </mxCell>
        <mxCell id="tdU1UxHSjvvt7bZlvKKS-52" style="edgeStyle=orthogonalEdgeStyle;rounded=0;orthogonalLoop=1;jettySize=auto;html=1;exitX=0;exitY=0.5;exitDx=0;exitDy=0;" edge="1" parent="1" source="tdU1UxHSjvvt7bZlvKKS-19">
          <mxGeometry relative="1" as="geometry">
            <mxPoint x="350" y="783.1304347826087" as="targetPoint" />
          </mxGeometry>
        </mxCell>
        <mxCell id="tdU1UxHSjvvt7bZlvKKS-19" value="CRUD eventos de voluntariado" style="rounded=0;whiteSpace=wrap;html=1;fillColor=#f5f5f5;strokeColor=#666666;fontColor=#333333;fontStyle=0" vertex="1" parent="1">
          <mxGeometry x="380" y="753" width="120" height="60" as="geometry" />
        </mxCell>
        <mxCell id="tdU1UxHSjvvt7bZlvKKS-53" style="edgeStyle=orthogonalEdgeStyle;rounded=0;orthogonalLoop=1;jettySize=auto;html=1;exitX=0;exitY=0.5;exitDx=0;exitDy=0;" edge="1" parent="1" source="tdU1UxHSjvvt7bZlvKKS-20">
          <mxGeometry relative="1" as="geometry">
            <mxPoint x="350" y="883.1304347826087" as="targetPoint" />
          </mxGeometry>
        </mxCell>
        <mxCell id="tdU1UxHSjvvt7bZlvKKS-20" value="Transacciones por medio de monedas" style="rounded=0;whiteSpace=wrap;html=1;fillColor=#f5f5f5;strokeColor=#666666;fontColor=#333333;fontStyle=0" vertex="1" parent="1">
          <mxGeometry x="380" y="853" width="120" height="60" as="geometry" />
        </mxCell>
        <mxCell id="tdU1UxHSjvvt7bZlvKKS-54" style="edgeStyle=orthogonalEdgeStyle;rounded=0;orthogonalLoop=1;jettySize=auto;html=1;exitX=0;exitY=0.5;exitDx=0;exitDy=0;" edge="1" parent="1" source="tdU1UxHSjvvt7bZlvKKS-21">
          <mxGeometry relative="1" as="geometry">
            <mxPoint x="350" y="983.1304347826087" as="targetPoint" />
          </mxGeometry>
        </mxCell>
        <mxCell id="tdU1UxHSjvvt7bZlvKKS-21" value="Seguimiento de Pedidos" style="rounded=0;whiteSpace=wrap;html=1;fillColor=#f5f5f5;strokeColor=#666666;fontColor=#333333;fontStyle=0" vertex="1" parent="1">
          <mxGeometry x="380" y="953" width="120" height="60" as="geometry" />
        </mxCell>
        <mxCell id="tdU1UxHSjvvt7bZlvKKS-55" style="edgeStyle=orthogonalEdgeStyle;rounded=0;orthogonalLoop=1;jettySize=auto;html=1;exitX=0;exitY=0.5;exitDx=0;exitDy=0;" edge="1" parent="1" source="tdU1UxHSjvvt7bZlvKKS-22">
          <mxGeometry relative="1" as="geometry">
            <mxPoint x="350" y="1083.1304347826087" as="targetPoint" />
          </mxGeometry>
        </mxCell>
        <mxCell id="tdU1UxHSjvvt7bZlvKKS-22" value="Vistas de busqueda para productos y voluntariado" style="rounded=0;whiteSpace=wrap;html=1;fillColor=#f5f5f5;strokeColor=#666666;fontColor=#333333;fontStyle=0" vertex="1" parent="1">
          <mxGeometry x="380" y="1053" width="120" height="60" as="geometry" />
        </mxCell>
        <mxCell id="tdU1UxHSjvvt7bZlvKKS-56" style="edgeStyle=orthogonalEdgeStyle;rounded=0;orthogonalLoop=1;jettySize=auto;html=1;exitX=0;exitY=0.5;exitDx=0;exitDy=0;" edge="1" parent="1" source="tdU1UxHSjvvt7bZlvKKS-23">
          <mxGeometry relative="1" as="geometry">
            <mxPoint x="350" y="1183.1304347826087" as="targetPoint" />
          </mxGeometry>
        </mxCell>
        <mxCell id="tdU1UxHSjvvt7bZlvKKS-23" value="Ajustes de Usuario" style="rounded=0;whiteSpace=wrap;html=1;fillColor=#f5f5f5;strokeColor=#666666;fontColor=#333333;fontStyle=0" vertex="1" parent="1">
          <mxGeometry x="380" y="1153" width="120" height="60" as="geometry" />
        </mxCell>
        <mxCell id="tdU1UxHSjvvt7bZlvKKS-59" style="edgeStyle=orthogonalEdgeStyle;rounded=0;orthogonalLoop=1;jettySize=auto;html=1;exitX=0;exitY=0.5;exitDx=0;exitDy=0;" edge="1" parent="1" source="tdU1UxHSjvvt7bZlvKKS-24">
          <mxGeometry relative="1" as="geometry">
            <mxPoint x="590" y="392.6956521739131" as="targetPoint" />
          </mxGeometry>
        </mxCell>
        <mxCell id="tdU1UxHSjvvt7bZlvKKS-24" value="Chat con diferentes usuarios" style="rounded=0;whiteSpace=wrap;html=1;fillColor=#f5f5f5;strokeColor=#666666;fontColor=#333333;" vertex="1" parent="1">
          <mxGeometry x="620" y="363" width="120" height="60" as="geometry" />
        </mxCell>
        <mxCell id="tdU1UxHSjvvt7bZlvKKS-60" style="edgeStyle=orthogonalEdgeStyle;rounded=0;orthogonalLoop=1;jettySize=auto;html=1;exitX=0;exitY=0.5;exitDx=0;exitDy=0;" edge="1" parent="1" source="tdU1UxHSjvvt7bZlvKKS-25">
          <mxGeometry relative="1" as="geometry">
            <mxPoint x="590" y="492.6956521739131" as="targetPoint" />
          </mxGeometry>
        </mxCell>
        <mxCell id="tdU1UxHSjvvt7bZlvKKS-25" value="Ver balance de cuenta" style="rounded=0;whiteSpace=wrap;html=1;fillColor=#f5f5f5;strokeColor=#666666;fontColor=#333333;" vertex="1" parent="1">
          <mxGeometry x="620" y="463" width="120" height="60" as="geometry" />
        </mxCell>
        <mxCell id="tdU1UxHSjvvt7bZlvKKS-58" style="edgeStyle=orthogonalEdgeStyle;rounded=0;orthogonalLoop=1;jettySize=auto;html=1;exitX=0;exitY=0.5;exitDx=0;exitDy=0;" edge="1" parent="1" source="tdU1UxHSjvvt7bZlvKKS-26">
          <mxGeometry relative="1" as="geometry">
            <mxPoint x="590" y="292.6956521739131" as="targetPoint" />
          </mxGeometry>
        </mxCell>
        <mxCell id="tdU1UxHSjvvt7bZlvKKS-26" value="Edición de Perfil" style="rounded=0;whiteSpace=wrap;html=1;fillColor=#f5f5f5;strokeColor=#666666;fontColor=#333333;fontStyle=0" vertex="1" parent="1">
          <mxGeometry x="620" y="263" width="120" height="60" as="geometry" />
        </mxCell>
        <mxCell id="tdU1UxHSjvvt7bZlvKKS-61" style="edgeStyle=orthogonalEdgeStyle;rounded=0;orthogonalLoop=1;jettySize=auto;html=1;exitX=0;exitY=0.5;exitDx=0;exitDy=0;" edge="1" parent="1" source="tdU1UxHSjvvt7bZlvKKS-27">
          <mxGeometry relative="1" as="geometry">
            <mxPoint x="590" y="592.6956521739132" as="targetPoint" />
          </mxGeometry>
        </mxCell>
        <mxCell id="tdU1UxHSjvvt7bZlvKKS-27" value="Comentarios en publicaciones" style="rounded=0;whiteSpace=wrap;html=1;fillColor=#f5f5f5;strokeColor=#666666;fontColor=#333333;fontStyle=0" vertex="1" parent="1">
          <mxGeometry x="620" y="563" width="120" height="60" as="geometry" />
        </mxCell>
        <mxCell id="tdU1UxHSjvvt7bZlvKKS-62" style="edgeStyle=orthogonalEdgeStyle;rounded=0;orthogonalLoop=1;jettySize=auto;html=1;exitX=0;exitY=0.5;exitDx=0;exitDy=0;" edge="1" parent="1" source="tdU1UxHSjvvt7bZlvKKS-28">
          <mxGeometry relative="1" as="geometry">
            <mxPoint x="590" y="688.3478260869565" as="targetPoint" />
          </mxGeometry>
        </mxCell>
        <mxCell id="tdU1UxHSjvvt7bZlvKKS-28" value="Reacciones en Publicaciones" style="rounded=0;whiteSpace=wrap;html=1;fillColor=#f5f5f5;strokeColor=#666666;fontColor=#333333;fontStyle=0" vertex="1" parent="1">
          <mxGeometry x="620" y="658" width="120" height="60" as="geometry" />
        </mxCell>
        <mxCell id="tdU1UxHSjvvt7bZlvKKS-63" style="edgeStyle=orthogonalEdgeStyle;rounded=0;orthogonalLoop=1;jettySize=auto;html=1;exitX=0;exitY=0.5;exitDx=0;exitDy=0;" edge="1" parent="1" source="tdU1UxHSjvvt7bZlvKKS-29">
          <mxGeometry relative="1" as="geometry">
            <mxPoint x="590" y="783.1304347826087" as="targetPoint" />
          </mxGeometry>
        </mxCell>
        <mxCell id="tdU1UxHSjvvt7bZlvKKS-29" value="Revisión de Funcionalidades" style="rounded=0;whiteSpace=wrap;html=1;fillColor=#f5f5f5;strokeColor=#666666;fontColor=#333333;fontStyle=0" vertex="1" parent="1">
          <mxGeometry x="620" y="753" width="120" height="60" as="geometry" />
        </mxCell>
        <mxCell id="tdU1UxHSjvvt7bZlvKKS-64" style="edgeStyle=orthogonalEdgeStyle;rounded=0;orthogonalLoop=1;jettySize=auto;html=1;exitX=0;exitY=0.5;exitDx=0;exitDy=0;" edge="1" parent="1" source="tdU1UxHSjvvt7bZlvKKS-30">
          <mxGeometry relative="1" as="geometry">
            <mxPoint x="590" y="883.1304347826087" as="targetPoint" />
          </mxGeometry>
        </mxCell>
        <mxCell id="tdU1UxHSjvvt7bZlvKKS-30" value="Mejoras dentro de la plataforma" style="rounded=0;whiteSpace=wrap;html=1;fillColor=#f5f5f5;strokeColor=#666666;fontColor=#333333;fontStyle=0" vertex="1" parent="1">
          <mxGeometry x="620" y="853" width="120" height="60" as="geometry" />
        </mxCell>
        <mxCell id="tdU1UxHSjvvt7bZlvKKS-65" style="edgeStyle=orthogonalEdgeStyle;rounded=0;orthogonalLoop=1;jettySize=auto;html=1;exitX=0;exitY=0.5;exitDx=0;exitDy=0;" edge="1" parent="1" source="tdU1UxHSjvvt7bZlvKKS-31">
          <mxGeometry relative="1" as="geometry">
            <mxPoint x="590" y="983.1304347826087" as="targetPoint" />
          </mxGeometry>
        </mxCell>
        <mxCell id="tdU1UxHSjvvt7bZlvKKS-31" value="Mejoramiento del Chat " style="rounded=0;whiteSpace=wrap;html=1;fillColor=#f5f5f5;strokeColor=#666666;fontColor=#333333;fontStyle=0" vertex="1" parent="1">
          <mxGeometry x="620" y="953" width="120" height="60" as="geometry" />
        </mxCell>
        <mxCell id="tdU1UxHSjvvt7bZlvKKS-66" style="edgeStyle=orthogonalEdgeStyle;rounded=0;orthogonalLoop=1;jettySize=auto;html=1;exitX=0;exitY=0.5;exitDx=0;exitDy=0;" edge="1" parent="1" source="tdU1UxHSjvvt7bZlvKKS-32">
          <mxGeometry relative="1" as="geometry">
            <mxPoint x="590" y="1083.1304347826087" as="targetPoint" />
          </mxGeometry>
        </mxCell>
        <mxCell id="tdU1UxHSjvvt7bZlvKKS-32" value="Vistas sin ser Usuario" style="rounded=0;whiteSpace=wrap;html=1;fillColor=#f5f5f5;strokeColor=#666666;fontColor=#333333;fontStyle=0" vertex="1" parent="1">
          <mxGeometry x="620" y="1053" width="120" height="60" as="geometry" />
        </mxCell>
        <mxCell id="tdU1UxHSjvvt7bZlvKKS-67" style="edgeStyle=orthogonalEdgeStyle;rounded=0;orthogonalLoop=1;jettySize=auto;html=1;exitX=0;exitY=0.5;exitDx=0;exitDy=0;" edge="1" parent="1" source="tdU1UxHSjvvt7bZlvKKS-33">
          <mxGeometry relative="1" as="geometry">
            <mxPoint x="590" y="1183.1304347826087" as="targetPoint" />
          </mxGeometry>
        </mxCell>
        <mxCell id="tdU1UxHSjvvt7bZlvKKS-33" value="Creación de Promocines en Plataforma" style="rounded=0;whiteSpace=wrap;html=1;fillColor=#f5f5f5;strokeColor=#666666;fontColor=#333333;fontStyle=0" vertex="1" parent="1">
          <mxGeometry x="620" y="1153" width="120" height="60" as="geometry" />
        </mxCell>
        <mxCell id="tdU1UxHSjvvt7bZlvKKS-71" value="" style="shape=image;verticalLabelPosition=bottom;labelBackgroundColor=default;verticalAlign=top;aspect=fixed;imageAspect=0;image=data:image/jpeg,/9j/4AAQSkZJRgABAQEAYABgAAD/2wBDAAMCAgMCAgMDAwMEAwMEBQgFBQQEBQoHBwYIDAoMDAsKCwsNDhIQDQ4RDgsLEBYQERMUFRUVDA8XGBYUGBIUFRT/2wBDAQMEBAUEBQkFBQkUDQsNFBQUFBQUFBQUFBQUFBQUFBQUFBQUFBQUFBQUFBQUFBQUFBQUFBQUFBQUFBQUFBQUFBT/wAARCAF/AuEDASIAAhEBAxEB/8QAHwAAAQUBAQEBAQEAAAAAAAAAAAECAwQFBgcICQoL/8QAtRAAAgEDAwIEAwUFBAQAAAF9AQIDAAQRBRIhMUEGE1FhByJxFDKBkaEII0KxwRVS0fAkM2JyggkKFhcYGRolJicoKSo0NTY3ODk6Q0RFRkdISUpTVFVWV1hZWmNkZWZnaGlqc3R1dnd4eXqDhIWGh4iJipKTlJWWl5iZmqKjpKWmp6ipqrKztLW2t7i5usLDxMXGx8jJytLT1NXW19jZ2uHi4+Tl5ufo6erx8vP09fb3+Pn6/8QAHwEAAwEBAQEBAQEBAQAAAAAAAAECAwQFBgcICQoL/8QAtREAAgECBAQDBAcFBAQAAQJ3AAECAxEEBSExBhJBUQdhcRMiMoEIFEKRobHBCSMzUvAVYnLRChYkNOEl8RcYGRomJygpKjU2Nzg5OkNERUZHSElKU1RVVldYWVpjZGVmZ2hpanN0dXZ3eHl6goOEhYaHiImKkpOUlZaXmJmaoqOkpaanqKmqsrO0tba3uLm6wsPExcbHyMnK0tPU1dbX2Nna4uPk5ebn6Onq8vP09fb3+Pn6/9oADAMBAAIRAxEAPwD9O+KXIpOOxzRXjnUKTyKTGSaKA2KADGKPxxS/e6UijdQAcdyTSj5u+KNvv+RoA9f50gEI9eaPwxTm7U32zTAP8aPWk+vFL05HNAB25GRQeOBR9Op60HrmgA/Cj3zRRQAdqMD8aKKAD3PajjnvRnrxzR1bPQmgA57CjOfrR+OKPw/GgAo/wo/Dmj3zmgA/Sj9aGG04pcGgBKOOM/yzS7cdKNoH50AJg/5OaCMUqnbnnqaMd6AEoopP1oAWj8cCkpaAD8ciij9PaigAo6dKNu6g0AH4Uf8AAsUUZxQAfjmij71GKAFH/wBamnil9aXjv09aAEoo+nT1o9aACiijvmgAo7Ue/ejNAB2FFHTtRjuKACjp0oooAKKB69hRjCigA9aB3oxmlwQM0CuIM84IoxjsB9KUg+3vg5qC6u4bK3e4uJUht0BLzSMERVHVix4A/GgV2S9qXqxwDgDnjFeA/Eb9vD4GfDHcmo/EDT9QvNhIttDzqD5/uloQyK3szCvnDxx/wWK8IafsXwl8Ptc1lweX1q4jsQcdCChlJB57D/CuU0jFs/Q1TuXcvzL7UbQTkZJ9geK/I3xH/wAFfPipqTyjRvCfhbSYXzta6We6mQdvm8xB/wCO15vrH/BS/wDaB1aQMvinT9OUHcEs9Khx9MuGNFkX7KR+3X145xzxR+o9hmvwim/b7/aCuGf/AIuZqEYZt5WO0tVAz2GIqqSftyfHuUYb4oa11z9y3/8AjVLQfsZn707GP8Lf98mmyHC5PAXuQRX4Mf8ADc3x+Vty/FLWQen3Lf8A+NVd0r/goB+0HojyPB8SLy4Z1Kf6ZZ2swXPcZi4NGg/YzP3ZXuCR+BzTuew7ZPBFfiToP/BTb9oXR5t8/ivT9ZUH/V6hpEAUj38sIf1r0Lw//wAFePitYtGur+FfCuqxK4LC3jntmI74PmMB+VFvMn2Uz9c8jgAjce2cUvXPPNfnL4X/AOCyGjTXQTxJ8MtVsoMcyaPqUd2x9cJIsWPxY/h39y+H3/BTD4C+OpIILnxFeeFLuU/6nxDZtbqn+9IpeNfxaixLhJan1Qf0orJ8M+MvD/jjTlv/AA5rmna7YsMrcabdJOh/FCa1ypUgHrjOO9Vyvcz5tbCUUgPPuKftP3u9TYY2ig+po/lSAO1HpRSYoAXnHBFLkZOAaQ84ozQAu4Ufeb/Gk+uR+NBPbP60gDt7UdenSik/HFMA/ClxS/maQdD3oAKO9Az+Bo9MdKADnNHNH40vbA6UAJRRRQAUUUe/egAoH+eaOvOOaOfWgA5Y/wCJpR7UcUL940ALRjPNJuBWlDDbQAN8wx3pvSlHehqAE/Wiig8e9ABRS8/hSYx9DQAUUvXp0pKACjPWj8cUdulACUveijBNAB36Zo/Eml2+9Ifl5PSgA/Gl5HHrQPTGc96PQ5oAOG5FH3etC9KG7c0ALQc4pF45obnmgBPwpexpPwoxU3AC3A4zQDnqKXp1o69KYCfQUfrS7fXmkORxnIpgH4Ufjk+lFFIBRx7e1BOe1Jg/Wj8efSmAYpcHjnFH3RzR94D2oAFzz35obsaOlB+bjvQAn8jR7dRR0Ao9PrQAfQcDtR/F7Uc84HejrQAfjijJHaggr3o49MGgA29Pej8KOQc0nagBfxooooAKMUZ7/nSjABNAB92jlhwOlI7BWweuM15x8bv2gfAX7Pnh1tW8ca9b6YrKTb2K/vLq5Ydo4QdzdueAMjJFNK4at6HoqsG6Hj+92ryr41/tSfDP9n21kbxn4ntrPUQuY9HtT9ov5s9NsKZbn+82AO5Ffmn+0R/wVI8e/EqS70r4exSeAvDjjZ9sDB9UnHvLysQ9lBYZ+9XxVeXlxql1PeXlzNeXk7Fpri4cySSMepZ2J3E+/Jp6I6I0XLVn6EfGT/grx4h1a4uLL4ZeFbbQrXGwaprx+03Q91hRvLQ/Vm6jgY5+KviV8dPiF8ZLqSbxl4w1bXtzbxa3Fywt1I7pEuEX8BXDMwQDc2EHyjJ6Y7Yr2n4Rfsf/ABd+Nkcc/hnwVfNpkmCdT1H/AEO1wc8h5MFxx/AD+tRd9EbqNOG54skKpyodR/e6H+VHCZA2gdflx/IV+kvwy/4I93dwYrj4geO4rduj6f4ftssPbzZQP/QD7V13xM/Z+/ZC/ZH037R4yt5fEGuLGGi0m4vpLu9uG7HyVZUUc/eZQvvxV8j3bF7aKdoo/K1SJMbfm9xyPz6U7b7foRX0h8U/2wptYklsPhx4J0H4Z6AoKxCxsopb1x6vMVwDj+6Mc9TXzpdXUt9cy3FxKZZ5WMkkkmMsx6kn/Gs3a+hupOXSxFijaOPfgfWgfNgD5iegU5J+mOtI33W4J4wMHGeR3qSm+wAA9ME9/mHHP1pMjqASPXFe2fswaZ8F/E3i6XSPjFeazo9pclVstXs7kR2kL5+7cALlFx/GOByTgDNfp9on/BNH9nO80W3uLbQp9WtplEkN/wD21NIJUYZVlcSbSpzkY6jkVqqd0YVK6g7WPxWVgegz+FO+U/ewMfSv2ovP+CWvwBuFwuiavb/9c9Xm7+mSa4nxB/wSF+Fd9k6T4n8UaNJ/CGnhuEGfYxg/rS9myViodUfkeYww+7kD1XI/kaaU+XaQD+R/Sv0Q8af8EePEtiJJPCnxF0vU8E7Idas3tm+hdGk/kK+d/iP+wH8cfhnHJPd+CLjWrKM83mgOt6pH97an7wD6rWbTRrGrCR4R4b8Q6v4N1JNR8PatqGgX8f3LrS7p7aUeoDIRgHv9K+rPg3/wVB+MPwzMFn4hmtfiDo64Ux6tmO8VeeFnTr9XRs4HTv8AJV1azafeSWl3BLa3UZw8EylXQ+69R/SoWUcHDYI6gHv2/SrU5LcHCEz9tvgT/wAFGfhB8aJYNOutSfwP4hkAA03xE8cCOxONsc2RG5J6DIY+lfUqt5iKwOVYblb1FfzQMMoynDKQVA5K9uOpFe//ALO/7cXxR/Zxure20vVn8Q+F1IV/DuszPLCF9InzuiPXG3jpkHjGylGSscc6Mo6o/d7b37e4xmjb749q8J/Zl/bK+H37T+lhdCu/7I8TRR7rrw3qDBbqPHVk7Sr1+ZRkcbgMiveDwQMdeBwefoahxaOa7Tsxm080Y79qf3pD/kVJQ3+VH4UGigA/X2o/Q+lFH86QBR/jR796PwzTAP0o/T6UAegxS/d//XQAmeuDkUceuDR6/wCNHbrigA59KXHFJxzQPX8qADn0opd5ooASijmjjp3oAKKMdqCuBnj86AuFHv8AoKXb79Bk9eK4P4nfHf4ffBeze48a+LtK0Ahd629xcL9odfVYhl269hQkxa9Du1+bgDnrgA0Y5xjJ9ucV8TeLP+CtnwX0OcxaTY+JfEwHSe0skhib8ZXVv/Ha5Fv+Cx3gk/c+HPiVlz/FcWw/9mq+UtRkz9BmJ4H9DS7T3H6V+fS/8FjPAx+98OfEq/Se2P8A7PUg/wCCxXgHv8PfFX4S2v8A8co5SvZy7H6AglTwOfpSYHbOK/P/AP4fE+AD1+H3iofWS1/+OUg/4LDeAO3w/wDFP/fdr/8AHKOUXLLsfoFuz0B49qT8D9MV+f8A/wAPiPh+nT4feKvwktf/AI5Sr/wWK+H7dfh94px7yWv/AMco5Q5ZdEfoCCQB6ZoPPQHrX5/N/wAFh/h6pz/wr/xUf+B2v/xygf8ABYrwA3T4feKsf79r/wDHKOUfs6nY+/8AjOCDn6Uufmwen0r4A/4fD/D8Kdvw98VZ95LUf+1Kib/gsR4G/wCideJgO/762/8Ai6OUXJPsfoKFP+RQOM5yPwr8+v8Ah8X4Gxj/AIV34n/7+23/AMXS/wDD4zwJxn4d+KPf95bH/wBno5Q5Zfyn6CNnA4pvtj9K/P8A/wCHxnw//wCie+Kv++7X/wCOUf8AD4zwDnj4e+Kf+/lr/wDHKOUOWX8p+gI+ZsgH6Yo24wCDn6Gvz+X/AILFeAcc/D3xSf8Atrbf/F0v/D4rwD2+Hnin/v7a/wDxdHKHLL+U/QL5l6jApMjOMfoa/Pz/AIfFeAf+ieeKQP8Arrbf/F07/h8V4Axj/hXvir2/eWv/AMco5Q5J/wAp+gHqOfyNBx3+o4Nfn/8A8Pi/APGfh74p/wC/lr/8XSj/AILF+AOc/D7xV0/56Wv/AMco5R8k+x9/8+mB9KCPSvz9P/BYvwH2+Hnifp3ltv8A4uj/AIfFeAz/AM068TH/ALbW3/xdLlFyy/lP0B5zgg/kaXdtr8+v+HxXgYH/AJJ14k/7/wBuP/Z6b/w+M8Ernb8OvEhz/wBPFv8A/FUcocsv5T9ByQWwOtIOf/rc1+fX/D4/wVuz/wAK48SH/t5tv8aQf8FjvBWP+Sc+Ix9bm3/+Kp8ocsv5T9B+R/nFJj0Ga/Pj/h8Z4L/6J14iP/bzbj/2alX/AILGeCu/w58Rf+BNv/8AFUuUOSf8p+hHX+8PwNGdvUfiRg1+fK/8FjPBP/ROfEY+lzb/APxVL/w+M8Ec5+HXiXp2ubb/AOKp8o/Z1Ox+gv3unNH3evGa/Psf8FjPAx/5p14l6d7i2/8AiqX/AIfGeBgP+SdeJs+1xbf/ABVHKHs6nY/QMkHv+NHT6ep71+fS/wDBYvwN/F8OvEuP+u9sf/Zqc3/BYzwIOnw78Tkf9d7Yf+zUcoezqdj9Ai1Hvyf1r8+T/wAFjfBPb4d+Jvxubb/4qlX/AILGeCG+98O/Ev8A4EW3/wAVRyh7Op2P0F564b8jSj6YPbg1+fR/4LF+Bv8AonXib/wIt/8A4uk/4fGeB/8AonXiXH/Xe2P/ALPRyi5J9UfoM3zeufpQM+n6Gvz6/wCHxXgTk/8ACvPE+f8Arrbf/F0z/h8Z4IXp8PPEuP8Artbf/F0cocrP0H2+hJ/Cj04P5Gvz5/4fGeBT1+HfiY/9trb/AOLo/wCHxngVf+adeJuv/Pe2/wDi6OUOWXRH6D8jsfyNIuGOBkH3Br8+f+HxngfnHw68Tdf+fi3/APi6F/4LF+Cd3/JOvEmP+vi3/wDiqOUXLN9D9BsEHGDn0x+v0prMME5wduR/dx656fj0Ffn43/BYvwSu5k+HniXd2zcW2B7/AHq+aP2qf+CjnjD49aWfDnhi2ufA3hORNl3HHcB7u+HdZJFAxH1+RcZ3ckjgnKupXs5n1N+1z/wU60f4bz3vhP4Vm18SeJog0Vxrsn7yxs26ER44ncfN/sAjHzZIH5Z+MvHHiD4ieJLvxB4o1m817W7li8l7eyF3x2Vf7ijsq4A7DsMRcYAChQOAo/lWhoGgal4s1mx0fRdPuNV1S+kEdvY2kZeWZicAKB1/yTUN66HbGmoK7MyR1X5iyqCMk5x+ma+kf2cf2Dvif+0OkGqWunr4V8KScnXtaQokif8ATGMfNJn8FPrX2j+yL/wTJ0fwEtn4o+LcEHiHxQAJIdAO2Sxsj1HmcYmcceqAg/e7ffcUCwquxQqRpsVUULsXjpgcAYAwB/8AWtR6nPUrW0ifNHwE/wCCeHwl+B5tb+XST4y8TRgH+1ddRZgr9vKhx5aY5xwSMfer6L1nV9L8M6PPqWq39vp2kWkO+e5unEcUSDPzFm4C8emPc8VzPxi+M3hT4E+Cr3xR4w1OPTtNgB2xk5luZMcRRpnLufQfU9K/F/8Aa2/bU8XftQaw0EzSaH4Kt2/0LQYZtwYA8SXDDiVzgf7A6AE5rVNJGCjKo9T6Y/aq/wCCqFxqT3fh34Of6Pb/ADQz+KrqMGSQ9D9mjP3R6M3sdvQ1+dera3qHiLUrnUtVvrnU9TuGLTXl3KZJpST1JJ3E/jj2qgzk5Y5/E8ew/wDrn/CvXv2ff2WviF+0tq5tfB+kt/Zcb7LvXLwGOygx1BfHznr8i8njkVk7yZ2+7SR5KNu4Lj5y2wKFO7P07/gK+nvgR/wT3+LvxqjttRbSF8H6BMAy6nr26Iuh7pCPnbPbIA96/Rz9mn9gP4c/s+xW2p3Fsvi7xioDtq+qQgpC3pDC3CLnoT83A5FfTw6g5LFejNyaXKkjCVZ7RPzr8Vf8Eg9Hh+HVzH4f8Y6ld+OVTzIp9SVY7CZx/wAszGqblHXDbmxntX5yfEr4a+I/hJ4svfDnirR59E1W2bmCZcKy9mR+joecMPxr+jBV+YcAjOT1J+vXrXAfGb4A+B/j94bbRvGmiQalGFxBdquy5tj/AHopAdyduMkcdDU+oqdVxfvH88eR2xnrnAP+fw9B6V7f+z5+2J8T/wBmy4ih8Ma219oO/c/h/VmaWzbJJO0ZBjPJ5QjJOTuwMe3ftHf8EuvHfwza81nwBLJ488OqSwtEULqUI90ACy9+V+bjkV8VXlrNp91PaXUMltcwuY5oJkKNGw6q2fukeho96OqOz3KqP2V/Z/8A+Cn3wu+LX2XTPFLv8P8AxC4CNHqTA2Uj99k/bJxgOB14zzj6+tLq21C0iurSeK6tpFEkc0MgdHHbBB5r+aeQCYYYbhj7rE4P8s/yr0f4T/tGfE34IXEb+DPGepaTCuCbAyedaMP7phcFMe+M1oqnc5ZYbrE/oWyVzj5fmwd2RSLlSCDkbvTP5V+YPwp/4LCanZ+Tb/EnwRHfxjCvqPhyTZKQOhMDnafwYfSvrn4a/t//AAL+J6ott42s9BvmALWfiEixcE9F3OdjH/dY/wAqrR6nLKnKO56X8SvgT8PvjJYPa+MvCOl65lcCe4t189D6rMMOp6cg9q+D/jp/wSFX99qXwl8Q7CoZ/wCwtffIz6R3KrkH/roD2ywr9JrO+ttRtUubO5hubd1DrLDIHRlPQgg4OamZwMBshSOrD5f14/Ony3FGo4n853xM+E/i/wCDviJ9F8aeH73w/qAbaq3ceElA7xuMrIPdSeorkW+XsV9d3GPwNf0geO/hx4Y+KPh+fQ/Fmh2OvaVKPmtr6ISYyOqt1Q+jIRjtX5hftVf8EstW8CxXfiX4SyXHiDRUy8vh24/eXsC9T5Lf8tgBn5T8/Axv5xk4W2O2niL6M+BdJ1C80XVLbUtOu7jTtQtXEkF1aStHLGw6Mjg5U8dQQf51+mP7G/8AwU8/tWax8GfGK4jtrxyILPxYcJG5PCrdjgA8cygAY5YDDOfzKlheCZ4pFdJFYqY2UhlIOCCPUHOfSmNwcZwfwPH+fX8qnma0ZrKmqmqP6WYWSRFaMh4mwY2TkbSOMe3+Ip+76/ka/Gv9kf8A4KO67+z/AKGfCni7T77xn4TgjK6asdwourADpErP96P0BOVxgZGAPpD/AIfHeA8HPw78UAn/AKbWxHb/AG605U1dHH7OSdj9Amb2P5UnH0PvX5+f8PjfA3/RO/E3T/nrbf8AxdI3/BYvwOeV+HXiYkf9N7Yf+zUuUPZyP0EpfwP5V+fQ/wCCxfgg/e+HPibPvcWx/wDZqX/h8R4D/wCid+Jx/wBtrb/4ujlFyy7H6Cfgfyor8+/+HxXgRenw78Tkf9drb/4upYf+CxHw+Zx5nw/8VRLnBKyWrH8vNFHKHLLsfoAOBnIP0NB5x9a+PPBf/BVX4G+KZo4tTudc8JOx2j+2LAFM5A5aFpAOvVsCvqXwb8QPC/xE0oan4V8Qaf4i05jj7RplytwgOOh2E4Pt1/I03CxDUkbuMUUv3u4yOoz0o2mosAn3uKB6dxS9B7038cUgF5/umijH+01FAB+FHYiiigaE9B+Xv7VmeJPE2leDtBv9b1zUYdI0mxiaa5vbqQRxxKBnLE/p69qt6hfWum2c93eTR21pbxtNPNKdqJGo3MzE9AMc+1fih+3N+2df/tNeL5NF0See0+G2lTlbKzJx/aEisc3Uo7g8bFOQFOepIFLzKjFyZ6t+1D/wVO8ReNLq60D4QySeGvD3KnxBNGDqFyM4zEGyIFODyRvwR9zv8H6nqd7rmpTajqd5calqMz+ZLd3czyyyN6s7Ekn3qpu3HnJ7nccnP1p4H0A7k8Ae5qJS1sjthBIVjuZj3bkk9c/1o2jv+goCkAHB5O3oevpXufw1/Yj+N3xVtUu9F8A6ha6e+3be6xtsY2U9GUSlXZTjqqkVPK2aOcYrU8NCg+9NZV+n4V9v6b/wSJ+Ml1Er3Wu+DLBz1jkvbmRh/wB825H61px/8Eevio3+s8ZeDk9lkuyf/RIp8rM/bwPgzy09V/lQsY7DP05r72/4c+/E4r8njrwiw7c3Q/8AaVV3/wCCP3xX3fL4x8GOPeW7H/tA0/Zsr29PufCRQDt+fFJtU8DB+nNfeCf8EffioeD4w8HL/uzXfP8A5AFSN/wR9+KOAP8AhNPCB443Pdf1go5GHtodz4N8r/Z/Sk2Y6L+lfdjf8EgPixn5fF3grH/Xa6H/ALb0L/wR/wDit38X+DB9Jro/+29TysPaQ/mPhMp0yv6Uqx+2PoK+7v8Ahz78U/8AocPBuf8Arpdf/GKQ/wDBH/4rf9Df4LP/AG1uh/7b0uVh7WH8x8JmPHr+VJsDetfdg/4JA/FXofF/gsf9tbo/+29Df8Ef/in28YeDf+/l1/8AI9FmP20O58JeWKTyx2Ffdw/4I/8AxUb/AJnDwcPpJc//ABipF/4I+fFLv408Gj/gd1/SEU+Vh7an3Pg4KF64pdq+uPpX3sv/AAR6+JvV/HXhFV74+1H+cdOf/gj18S14HjvwmeMgYuh/7Tp8rH7en3Pgjyx9aCqjvivu6T/gj/8AFP8Ag8aeDWHu90P/AGiaav8AwSB+KvOfGfg4fSW6/wDjFLlYvbU+jPhPavqDRtX2H1r7uP8AwSB+KZx/xWfg/wD7+XR/nBR/w6A+Ka/8zn4PH/bS6/pBSsyfbQ7nwhtHYqPxH+NIQO5B/KvvIf8ABH/4qN/zOvg8f9tLs/8AtGj/AIc+/FLIz428Hn/gV2f/AGjT5WyvbU+58GgKfSnbB6CvvRv+CPnxO/6HrwiD/wBveP8A0VULf8Effinnjxp4Mf6yXY/nCafJIPb0+58I7R6fpSbR/dr7u/4c+/FQf8zj4M/CW6/+R6cv/BH34pclvGXg4D1El2f5QClysftqfc+D9q+gFGxfQV96f8OfviZ38b+Ec+hN3/8AGqiP/BH/AOKTN8vjLwaR/v3f9YTRyyF7an3Pg/yx6fpRsX2NfeS/8Efvif1bxr4PX/gV0f5Qipf+HPvxKb/mevCfthbrH/ounysPbUu58D7U9RSqiH/9Vfejf8Ee/ic3K+OPB7/U3Y/9p0g/4I9/FDv428Hj/gV3/wDGqORi9tT7nwYY1pGjC46D8a+9l/4I+/E8dfG/hD8Ddn/2lTf+HQHxQP3PG3g9x67rtf8A2lT9nIXtqf8AMfBflr3K/mKBGvtX3n/w6A+Kv/Q6eDsf9dbv/wCM09P+CPfxQ53eN/CI/wCB3Z/9pUuVj9tS/mPgraq0fJ7V97f8Offib/0PHhH2J+1//Gqib/gj/wDFLICeNvB7f8Dux/7Rp8jF7an3Pg/5fb8x/jQyjjAB+nNfd4/4I/fFPnPjTwgPpLd//GaRv+CP/wAVO3jLwex/663X/wAYNLlZXtqfc+D9oPRf0pfLHfaP0r7q/wCHQPxY3c+LfBpX1El2f/bep4/+CQPxPwCfG3g9BnaNslyQx9v3IzRyNi9tT7nweEUc/L+Y/wAaRgPT9K+5tS/4JE/Fu2glktPE3hC9lQEiI3FxGSfT5ocZ+pFfMHxe/Zz+I/wKumj8beFb7SbfdsXUgvm2Uh7BZ0ymT6Eg80nGSGpxltI832j8e3GKVYyewHb605VxnI6cH64zj9adtHBOOvG7pnBA/U0tTTQv+G/DOp+Mte0/QtCsJdV1jUZ1trSzgXLzOTwo7AerE8DJr9nv2K/2LdF/Zp8Prq2qpDqvxA1GHF7qOMrZqetvDkcAHq2AWIHAwK8w/wCCaf7JsXw/8I2/xR8T2m7xPr1t/wASu3uEP+hWLj5X2kcPIMN7KAOCzAfeMcfy8HkdcjGeOp/LrXTGKitTzK1VuXKh6LtJIAz94kDG49Pz6V5t+0J+0J4V/Zv+Hd34r8TTnIzHZWETDzr2fHEaDPI55PQde4zu/Fr4r+Hfgl8PdX8YeKbz7DpWmRlnP8ckhGEiQfxM5YAD3zkYJH4XftOftJeJP2mPiVP4l1ktZ2Fvut9K0lJN0dhCD0/2pDj5m7n2ApN2Ip03LQq/tFftIeMP2lvHEniDxTP5dvDldP0eFz9nso88KvqfV+pIryzhfmY556n1+n+FG0DoMDOAPT/61fc3/BKX4L+FPiL8RvE3izxFHb6lf+FIreXTNLuQGTzpTL/pLKeD5flLtzwC+eGCmo1k7HbdUol/9jz/AIJm6n8QfsXjH4rwXWh+GnAlttBUmK8vQeQZe8UZG35fvNu5245/VDw14Z0jwjoVlo2iaZa6To9mnl29haRBIogAMYA4z74rS6ueC0n3RtUk7cZGcfU/nTo+SRkbu9aSXKcLk6juxAD35JP+T9aeFI96FUDrwc96PXPPesgFHuKXIVgRwaQdOwBpQvocCgWgoJ544xjOAa8k+Nn7Kfwx/aAtXHi3w1by6kV2x6vZjyL2L0IlXnA9Dke1etbce1OHOOAK0XYe2x+Ufxp/4JH+LvD8lxe/DfxDaeJ7EZdNN1YrbXn+6H/1bn3yp46c8fFXxC+FPjP4T6g9j4w8Lat4dmUnm9tHWNsYztkxtYcjkHuK/ozOeNp78/5/+tVTWNF0/wAQ2Mtjq1ha6nZS8Pb3kKzIw9CHBBpcqNo1pQP5q1YSAMDkdm6j884pH+YEnLAdOrDP64/DrX7ifFD/AIJu/Az4myTXK+GpPCuoS5P2rw/ObfB9fLOYz/3yOtfKnxK/4I6a7aGS48B+PbPUEXlLXxBbNC+PTzYgwJPrtUcflPL2OiOIg90fB/gb4reNfhfeC58HeLta8NOH3+Xp19JFGx9WTO1u/BXHNfYvwZ/4K3fETwhLbWfxB0ey8baYpCvfWoFlffXj9259sLnua+dPiv8AsffGD4LrPP4k8Eah/ZkWS2qadi8tVHq0kZO0f72K8YWUSL8vORyMjof5jirUpRL5adRH9AHwD/a8+F/7SFui+ENfVdY27pdD1ECC+jP8R2E/MB3KFgOPWvZWk+XOeOoOcDHr/LvX80NjdXWmXsF/ZXM1pewOGiuraRo3QjoVcHII9jxX6Ffslf8ABU3VfDc1l4W+MjyavozFYIvFMaZurYZwPtCgfvV6fMBvHPDZ4tSTdjirYdx1jsfS/wC2V/wT98O/tBW914m8Mra+G/iAi7mn8rba6njolyF6E9pAMg9cjkfj7448Da78N/FWo+GfEumXGj65psnlXVldKFdG6hh2ZWBBVlJVlwwJHNf0aaPrFhr2l2mqabeQahp13Gs8F3byrLHNGy5VlcHBUg8EdfpXz9+2L+x7oP7T3gxiEh0vxrp0ROmav5ec87vs84HLxMfT7rHeP4gZlTuripVXH3WfhZww6A/WgKD2rb8Z+DtY8B+KtT8O6/Yzadrmmzm3u7S4PzrIOevRsjBDDhxhhwaxV79x2Pr71zNWPSTVtByxjBOKNq/T8cV9BfszfsaeJf2pdL1e88M+J/Demy6VOsNzY6pNMLkAqCsgVImGw5wDnqDnHGfcf+HP/wAUeceNPCI5x966/wDjIpqMmS61NaM+DNq9tv8AOjaMZwD9BX3mv/BHv4p858a+D/8Avq7/APjVI/8AwR7+KOM/8Jp4PJ9N10P5wmnyMXt6fc+Ddint+lIyAds/kK+3dU/4JG/GSxjLWuu+D9RbGRFHfXEbH6b4AP1rxH4pfsX/ABl+D9rLe+IfBF6+mRAs+oaYyXkKAdS3lFmQc9WAH5UuVj9rF7M8OZR0529COeR7810Pw/8AiJ4o+FPiCPXPCGuXvh/VIznzrOUqJBnOyRekif7LZB44rB+90G49tvzZ+mOtNOOxB5/yaE2tSnFSWp+u/wCxn/wUl0z4zXVj4M+Iq2+geNZcRWmoRkJaao5OAgBP7uU8cfdJ4BHCn7l7456kflX80eeQQSrA5DKcMPcHsc45/wAa/Wv/AIJvftrXXxc00/DbxzqCz+MNLt9+mX8xw+pWqDDK3rLGMEnqykk/cYnoTUl5nn1aTi7xPvF+MdPwpMUgYNuwDkHH+f8APcUv3ayaaMhKKKKAEGaD+Q7n05pc9aQssa7t2339Pf8AlQB+fn/BVz9oufwl4J0/4WaHdCPUfEUf2rVmR8PFZqw2RnH/AD0YE/SMjvX5TMecDOFGBu5OAK9W/ak+KEnxj/aC8deKnk823uNRe1stpyotof3UWPTIXcQOMsa8q20n2O+nHlWgoUfT/wDUT/IE/hXofwT+Bvi74/eNoPDHhCxM96wD3F1JxBZRn/lrI2CBgZ4GWPQdzXJ+E/DGq+NPFGkeHtDtmvdZ1W6jtLS3Tq0jsFBJ7AZyT0GMngV+7f7Mn7PGg/s3/DHT/CulwRyXzIJtV1Ap+8vbgj52J6hARhV/hC45OaqnDm1ZFapyqy3OS/Zo/YW+HP7Otpb6gtjF4n8Z7QZdd1GJXMTd1t0OREmSeOWPGW6AfSW7c7YHGc+n6ColU8ZPzd/f3+tS4xjAqpPl0Rxay1JNx4yeOw5r5w/aW/b4+G/7MuuQ+H9UTUfEPiVlV5dL0cIzWynBBlZnUKSDkAZ6HOK+jGbGOM8/d6FuCcZ/D+Vfgn+278O/FPw9/aY8d/8ACUJM51bVbjVLG9kBKXdpLIXjZW77FKxlR90p6HJabsXCHM7M/Yf9nL9rzwB+09pd7c+FLm7ttSsAGvdI1ONUuoEJIV8KzBkJGMgnHGQM17Zn5gOBuOBnv6V+SH/BJP4TeJdQ+L2q/Ef7LcWXhPTdMn04XjAql3cSsmIkPRwoXcxHQlPWv1qwVJAGwgkcc4qk+5M4xi7I4D44fHrwf+zz4DufFnjK/NrYxsI4baDa1xdSkZEcSEjc34gDBJIAzXgPwi/4KkfCH4r+MrTw3Nba54Vvb6QRWlxrMEQt5ZCcLGXjlfYxPTcAvv0z4/8A8FgPhf4v8SaP4I8X6ZbPfeFNBS5gv47frYyStGUnYf3T5e3f0U4BwG5/N34a/DHxF8WvGGm+FfCelzarrWoyCOKKFGHl+skhH3UT7xZsAD6AF3utDWNOLjdn9IIPXHrjn/P+cUbiOoAqhotk+m6NYWj3JvZLe2jhe6bGZSqgFzjucZP1q6rd+v1rO7sYWVx33s8Zx6U0kdxRndkgUHHHGDU3HoJ07daM84GKPXmjr04PfmgenYMgdaf97/ZHXP8An/PNMwR15/Gl6g/+gnofb/PpQridux5l+0F+0h4K/Zp8HL4g8YX0yLNL5Fnp9kiyXd7KACUiQkA4BBJJAHryK8P+Df8AwVD+Evxd8aWnhmS11rwpe30ohs7jWIYvs00hOFTfHI+0t23AD1IrwH/gr98N/F2qa14N8a28Et74L06xfT7jywSLG5aXcZZMfdSRfLXf0zHg4JTd8F/Cf4V+JfjL420zwv4UsJr/AFi8lUB1DBLdAeZpXGAkaEDr3A78VpzG8acbXZ/RcGD8gY9m69cEfpTtvfHFV7G3NjZwWzSNO8MaRtK4wzlVA3EepxU/49aV9DDqHHpQv4AUM3YCkXrkVAyTJqjr2vWHhnRb3VtVvotN02ziae4u5mCxxRqCzMx7AAE/hVs5zmvCP24vh7r/AMVf2XPHXhrwzG1xrNzbRTw2qZDXIhuIpmiU+rLGwC9zgdM0K41Zux5Hdf8ABWr4Jw+Jv7NjtfE91pnmiP8AtiKxj+zkHH7zBlEm0Z5ymeOmcCvrvwn4s0bxx4e0/XdCv4dU0fUIhPaXtudySoehz69iDyCCCBX83UySi6KeW/2hnKGLB37gcbSMghtwXC9QQvB61+6P7APwt8Q/CP8AZY8J6J4ot5rHV5muL97C4BElmksrOkTA9G2kMRjIZmBrSzNJ04xR9GZIz+nvXz9+0v8AtwfDv9ly7sdN8Qm+1nxBex+dHpOkIjyxQnOJZC7qqKdpxzk+le/r2BBYZzivw/8A+CjXw58V+E/2pPFeseIkkl0zxHMt9pGoYzFNbqix+Up/haJlEZQjcODjDgl3IjFSlY/Uz9m/9sz4dftQre2/hae9sNbslDz6Nq0aR3JjOP3qbXZXTns2RjkDIz7qWHGwhgRnNfjb/wAEtfg/4p8UftFWHjmztbi28LeG7e6W9vmyI5pZYHiS2U/xPucOQOgjGcZAP7HcZyvyg5IA+pHX8DRd2FJKLsZ/inxRpPgnw3qWv63fx6XpOmwNc3d5N9yKNRkk/wBAOT2r48sP+CtXwYvPEw02Ww8TWeltN5X9sS2kXkYzjzCFlL7OnRc89K9K/b/+Hfib4o/ss+LND8JwyXmqq1vemxhQvJdxQSrK8aAfefC7go5bZtAJOK/DK1srjUtRhsrOCW8vpmWGC3t0MkzyMcKiKOXY7sYA5z+InU1hTjJNs/pO0XXLHxBpdnqWm3EV9p15Es9vdQMGjkjYAqwYdQQavsd2OPptGc8E/wBK8Q/Yv+Gut/CP9mPwJ4X8RxtDrVraPNcW7kkwGWZ5hEc9Cgk2kdiDXtZ4xnAXp34zwMe+SKV2tzCy2PmD9oL/AIKLfC39n3xhL4Vvo9U8Sa3bgG8h0aONksycYWRnkQbufujJHfFem/s+/tMeCP2lvDU+r+Dry4MtpKLe+02/jWK7s5DnaJEDMMHBwyswPPPFfhv+0N8OfFHwr+M/izRPF8Ux1g3094Lp84vUkkLLcRsch1ZTkkdCGU7Spr71/wCCRPwY8SaO/i34janb3Om+HdVsU0rS0mG0XuJN7Tqp6ou0Krcgl3weDVamsoQjG63P0oVsqGLAKRnJ7V558eP2gPCH7OfgWXxP4xvZIbfzPIt7K1VXubub/nnEpIBPckkAdzXoe4yZIVV+g46dK/Nn/gsB8MfFuuWvgnxnZQy3vg/RYJ7O+EOf9BmlkQrNIOyOFVd/QFQDjcMu7IjFSlY9w+Df/BTj4RfGDxhZ+GTHrXhTUr2QRWkmuQRJBPIThUDxyvtJPGWwPevrVWU59c456gjgiv50PhP8KfE/xk8b6d4U8JafPfazeShSyq2y3UEbppWHEaIQCSeM4xnNf0UWNsbK2igZ2neKNUaRvvSFVALE+px/nNTzMqpCMJKxYYdOPxpAozk/hilyD/FwaRvTHHY0XIIr68h021lu7iRIIIUMkk0jYEaAZZs+w5+ma/Lb4tf8FcvFX/CY30Xw38P6LD4at2MMF5rUUk89yFJ/eERyIoQ9k5PzdetfVv8AwUi+Jz/Db9lnxBFbXBg1HX5I9GgKnDBZWHmkf9sw4/4FX4jMqjofuAKpAxyOAMVDkzenBSV2j90v2Kf2sIv2sPAuo3t1pa6N4m0SZLfU7KBi0DeYpaOWLd8wVtr/AC5yNvfivftb0XT9f0u50/VbK21PT7iMxz2t3CJY5U7qVbg/iK+Y/wDgm18I4fhj+zLot+8WzVvFTHW7uUnLbXG2FQf7ojUHHYs1fSHjbxZpvgXwpq/iDV5RBpmlWkt5cuTjCIhY/icYH1q76XMHHWyPxk/4KKfDn4a/CX43W/hz4fWUum3Qs1utXs1m3W1vJJ80SRKeU+TLFc4wy4xzXK/sV/AUfH/47aRpF7CZPDelj+1NYfGVa3jYDyj7O+FP+zvxXkfxO+IWpfFv4keJPGGrt5l9rl9JdyRt0VWb5IwewVAqj2Wv1v8A+CZXwTX4b/AGDxNdwBda8XONQLOMMtqoK2y/7pUl8d/M9qhK8jrcuWB9eWlulvCkcaeSifIkaDAVRwBjtgAce9SX15b6XaTXl3cR21rbxtNNcTsFSKNRud2Y8BQBzntk9qlXvyQdpGQMk9/8a/Ob/gqd+1U+j6ePgx4bvPLu7yJJ/Ec0TfNFCcNHbZB+8/3mH93aOQ5xtJ9zjhHmeh8uftzfteXX7Tfj5LTSHlt/AOhzPHpdqzEfanzhrp/c4+QH7q56Fjj5jVenTPT0pPvbnK7f6dAB/h+X1+l/2TP2GfFH7Utnq2rpqEfhfwvZlrVdVurYzi5ucA+VGm5dwXozZ4JGM84w1kz0FaktT5p2huwJ6HnkfhXR/D/4heJ/hR4pt/Eng/WrrQtbtwVS6tmwWU9UdTlXQ4GVYEHA9K+m/iV/wTD+M3gdXuNItNP8a2QJIbSLoJKigDjyZdpJHohavmrxZ8NfFvgGTy/EvhbWdAfbvxqVhLBxnr8yjIqWnHY0Tpz6n2T4C/4K8fEPRYooPF/g/QfFUSoFaazll0+eRu7uf3ibjx91FHHSvcPDv/BYP4dXdvENc8D+KtPm4Drp6291GvXoTJGcf8B5r8oNyNjaykeoOaay8/NkH1IFPmfUz9hBvQ/Z3S/+CqXwF1Lm4vvEWl44P2vRpXx/36310dp/wUk/Z2uyoX4geRuH/LxpF9H/AOhQ1+H+0eqkjgH2/Ok3NlsOQDgfK2M/kafMg+reZ+7EX7f37PcgLf8ACz9KUYH34p1/nHU6ft6/s+SY2/FHRf8AgXmj+aV+EDIV67gPWm4DHG76ZP8A9empR7E/V/M/eVv27vgAvP8AwtLQ8f78n/xNSr+3R8A/L3f8LT8PlT284k/ljivwWWNVUnoPX1/HtTti8YIOPZT+tPniP6t5n71237cXwFuWCp8U/Dq/9dLoRj82wK6Gy/ar+DGpbBb/ABX8FMx6KfEFoG/IyZr+fQ4Xtj8AP6Um2Nm6Bj6Z6/mcfpRzoPqr7n9J2i+KtF8RWsdzpWr2Op2z/dms7lJkP4qSK092cFTgZ6849+4/Wv5otPvLnR7yO70+5nsLuM7kntZmjkQ+oZCCPwr234cftv8Axz+GM0baZ8Q9V1S1Rgxs9ekOoRsBnjMuWA/3SP0FUqkTKWFmj97jh85KtEfl6Efh/kD6182/Hr/gn38Jfjsk1zLpCeFPEbAkatoEawszdcyRY2SDjn+I5PzV88fA/wD4K+aTqlxb2HxU8LtoszkK2s6Fvntx/tPC7F1A/wBkv1PAxz9/+DPHXh74jeHbbXfC2s2eu6RcDdHd2UqvF75wflYZ+6cEdxWsbSOOUZwZ+Hf7Tf7EXxB/ZluHv9St11/wjI37rxHpkbGJQTgCdTzCfrlcnhjXzzgYIK7tw/iGR9Otf0t6jptprVjc2V7axXljcRNFNa3KLJHKhGCrqRgg++fbvX5Qft3/APBPA/C2HUfiJ8NbVpvCI/e6lokYLPpfrLF/egHcdUx3U/JEqfVHZRrc3uyPOP2H/wBurWP2btci8N+I5rnU/hxfTfvoid82lyOfmng9R3ZMYOMgbid37OaHrFh4i0ay1XS7mG/0m8hW4tbq2YPHLEwypDA8qQc/jX81+PlBycMOxwf85AP+ePvv/gmT+19J4J8S2nwl8V3rf8I9q0//ABJbyVv+PG7c58rJP3JWOAP75z/GTURl0FVpW95H0f8A8FF/2Pk+Mng6Xx74WshJ450W3/fwxJ8+r2a/MY+OkqclG9AV7gV+PZCt0O5cenXrj9efxPtX9KanzdgC7d3P4cn9Rx+P0r8av+CkX7M6fBP4rr4r0Kz+z+EPFrtcxxRLiO1vvvTQgDgBs71H++OABlzj2HRn9k8J/Z3+O2sfs5/FrR/GmkF5YYW8jUbEOVW9tGYGSI++ACrY+VlU9sH99vAvjTSfiN4P0bxRoV2L7RdWtUurW5UEB0YZGc9D1BU8ggg81/N9nkFeRjr6r6fjitvT/HfifR9Nj02w8S6xZadGSyWtvqE0cQYnLEKrgDJJz6nJ4zilCdlqVUoOUkf0hiZNuc8epYAUokEhCodzdcA5yPr0r+bYeLvEHzBtf1XLHcxF9J1/76zW5ovxq+I/hlw2k/EHxTp+3oLfWblFPsQHwRV+0T0M/qrP6LGddx52HOPmyPzBxRtO1gNwXodylc/Tpj9a/Gb4N/8ABUn4v/Dm6hg8VS2nxB0MMoePUEFvdInTCTIME8/xq2cDlec/px+zp+1R4D/aU8Oy6h4VvWg1K1XOoaHebVvLQ9MsoOHTJ4dcg9M54oujB03Dc8m/as/4J3+CvjfY3Wt+FYLXwb43++txbQ7bO9f0niQAbif+Wijd8xyG7fj/AOPPAeu/DXxhqXhfxLpsmla5psnkz2c2CVPUFW/iVh8yt0KkEE5Ff0dN15GB05Gcjg4I96+Of+Ci37Ktt8avhjceMNEs0HjrwzbvPC0SZe/tRlpLdj1JUEuh7MG/vnGcopo1pVejPxpYD5SOQRkGtfwb4x1f4eeLdI8UaDdtZavpNyl3bTLzhlOcEdwQCp9QxHQ1lNhyWVtwJzk+vf8AHNN9uoPX39qyT5Weg/ejZn9EXwR+KWm/Gb4V+GvGulEC21i0Sd4Qd3kzYxNET3KOGUn/AGa7hsZ9+9fnN/wSH+KjXPgnxl4CuZyx0m9TVLJXfJ8qfKyKo7Krxqx95q/RWOdZD94ZreWx5TjZ6klFFFZgHvXNfEvXn8K/DnxVrUf+s07Sbu8Qf7UcLOB+ldL+Ga85/aRcx/s9/E51OGXwvqZHsfsslNDW5/PPCd0KHOdw3fieTUmNvNRW4HkR46bR/IVP7/5/zjNZy3PTjsj7m/4JO/CVPFHxd17x1eRLJa+GbT7Na+YMj7VOGXd/wGNZAf8AroPw/WiGPaoAXj65/HP9Pqe9fD3/AASN0mO3/Zy8QXoRfNvPE9wJGxkkLb24A/DJ/OvuhY9ijgN7+gxmuiL5Y6HlVfelqCrtVjjd9ATTtoU8sBxnk4/Cqeua1p/hnSLzVtUvrfTdPsoWnuLy6cRxwRgZZ2YkAADqTX5YftTf8FRvEPiy8vvDnwjlk8OaErNE/iKZf9OuSDjMQPEIODgn5+ei45h66sqNOUtEfpt4y+JHhH4d26T+KfE2j+HIW/j1S/itgw7gb2Hscj+teLeNP2uv2YPEdsun+J/GvhHxDbQyeYkF9afboVkAI3L+7dc89R6nHevxA1rVNQ8SapcalrF/dapqMp3TXl9O00zn/adiWY9evP0rNZo9wDOm/rtH/wCs/wA6IyS2OlYZ23P3W079uj9nHSLS3tNO+Inh/T7C2Ty4LW1tZYY40xwqqIgFGfT9Ksj9vj9n3/oqWjrwAPlmHH4p65r8H28n/non0wKT9w3SRD9P/rVp7Tug+rW6n7vTft6fs9TRtG/xO0ORGBVldZSHB6gjy+n+HSsnwz+1x+yr4PadtA8X+C9De4G2d9PsRbGUZP3tsQzwTx0yTX4bgwL1kUZ+v+NOVYDyJF/ClzrsL2HmfvMP27/2fVBx8VtDbPUs8hJ9z8nXGPyqvJ+3x+z7CuT8UtFbn+ATN/JK/CPEPeRfx4p8SwMeJUOPQn+lRKS3sHsWup+/XgH9r74L/E3WoNG8N/EbQ9Q1e4YR29i85t5Z3JwEjEoXe3+yuT7V6+WBXJ4HqfpnP6H34r+dH4Z+Fdb8aePPD2ieFYri78Q3l8i2MdqSrrKDuDhs/IE2ly+QFVWJOM1/RFpttcQ2cKXEizXaxossoBG+TaAWweRyTwfT3pbq5lOPLpc534i/F7wV8ItPju/GnijS/DUMufL/ALQuVjaTGM7FzlsZXOAeorzD/hvX9nxGIb4p6Ln280/ySvz6/wCCsfhPxRb/ALQlpr+qxzS+FrrSoYdGuGG6GHZnzovRW8xyxPcMvpx8RCSIc+YAeh69frT07GsaPMr3P3lX9vT9n09Piloh+vmj+aU8/t4fs/df+FqaGP8AgUn/AMRX4MiWE9ZV/E//AF6XzLc9J0J9Fp3XYfsP7x+7t7+3J+ztqFrLb3HxQ8O3EEyFJIZld0dTwQQU5GOxyD3BrJ8P/tdfsueDxN/wjvjTwdoKzHMq6ZZiDfxjnZEuSMcZz16dK/DYyw5x5iilWS36tPGP94iq9ppsT7F9z+gTwP8AtafBv4javBpHh34j+H7/AFW4YLBYm8EcsznosYk2l2OOgyf0r1bcMEngdjjsOM/n+NfzkfD/AEHWfFXjHQ9L8JxXF54kuruNNPjsTiXztwKsrDldpAO7oBnPWv6KtFtLu00+0W9lS41BYkW4nhGBJKF+Zlz6nI5/mcVnvqZSjyaI5X4ofHPwD8FrK3ufHPizS/DSXGfIjvJx5swGNxSNcs4BIBIBxXm0P/BQL9nuTP8Axc/S1/37e5H/ALSr86P+ConhzxVY/tOX2s62sw8P3thbDQLjBEC26RhXjU5+VhIXYqefnB7ivjndADgvGD1P+SaehsqV1e5+8P8Aw39+z13+KWkD6xzj+cdS/wDDeP7Ps6nHxU0QD3My89j9z/6/0r8GhNAPuyp+B/wNHmxD+Ic+9NO3QPY36n7jJ+1V+yjb+JD4hTxZ4HTxBnP9rJYAXRPTPmeVvzjj72fetyL9vH9n7kH4q6EffMg49Puc/wCep5P4PCSHs+PpQZIW6uPxBNVz+QvYa7n7xyft5fs+x7c/FPQyM5O0yn+SeuPwzWH4k/bT/Zf8YaadO8QeOPDGvaeXDtaalYyXUW4DAba0JGQO+M8/er8Ni0PaRfyIpPMjPWUY/wBpv8aXMuxX1fzP3N0X9ub9mjwzpsGm6P4/8P6Rp1uCsNpYWM0EUIPZFWIKO/IHf2rQT9v/APZ7kbj4oaOPTMU6gD05j5/+vX4RfuT/AMtl/wC+hSHyRx5y4/3h/jVupfoHsPM/eGT9vL9n1gM/E/RWB4+7MeOvaM9wP8eOci3/AGwP2WrXXJdcg8X+Eoddkz5mpx6ey3MhPOTL5W/k4PU9K/DgNF0EiH6Y/wDr0jGLjLr+n+FTz9kHsF3P3jX9vT9n2Ncf8LQ0Uc/3ZV/IbOPp7mlb9vX9n2RSP+Fo6LtPB/1v/wAR+H41+DRa3OMup/z7Un+jd2T9f8aXN5B7BJbn7h+LP2sv2T/HElvJ4m8VeDfEj25JgfVNNa7MJJGSm6I7emeMZPPWt5P2+P2eY40SP4n6LFGihVjWKdVUDsB5XSvwe323Z1P4f/XpGeD+8v6VXO9rE+xXc/eT/hvv9nwc/wDC0tI/COc/+06r3n7fX7Ot3A8E3xM0eaGRSkkclpcurqeCpHlYwf6dCCa/CRGg/vp+QqT7VEq4Mn05qebyD2K7n7heHf2x/wBlXwhHNH4f8ZeFtBSY/vP7O0h7feB0yFtwCRz1yOT7VvR/t7fs+t0+KejjnJ3ifP5tHk/56V+Dwng4/eL+dO82D/ntGPpgUOV+gewXc/eBv29f2fR1+Keh8/3fOP8A7JSr+3t+z9jj4paM+DwAs/of+mdfhErw9pl/76zSrJDzmYEdOOo9wecVHN5D9i+59w/8FKf2pfB/x4uPBeieBNcj1zRtLWa7uriKKREMzhFUfOqkkASdu4r418IeHbjxh4u0LQbUhbvVb+3sY2xn5pJFQE/i1ZDSx9pkb1+bn+dfRn/BPv4bz/Er9qjwWYoGn07RZ21i7nVSUjWFSY8nHeXyhj3rPVs1Vqatc/bvw3otr4b0DTNJsoBDZWFtHbQQp0RUQKqj/vn9a+NP+CsnxYl8H/s/2nhK1mCXvjDUVtZGU8/ZYdssuPYt5Sn2Jr7cEmC7gdOfbIP8+n51+O3/AAVc+IEnij9oyy8NRyk2vhfSIoQmOFmuAJXI9yvl/lW7stjlgryufLfwj8AXHxW+KPhXwnaBhLrmow2bMq5McTEB2/4DHk/8Br+h3QdFtPDuj6dpVhCttp1lbx21tEg4jiRdqgewAwPYV+Pv/BK/wWniT9qQavIGMXhzSLq/icLlfOdktlU++2WUj/dr9k412svquAPpkD+v60odx1t0keffHn4vaV8B/hR4i8cauvm2+mWxMdru2tczOQsUKn1dyo9hz2r+f3xp4x1X4geLtY8R69eNfaxqt1Jd3cxHWRmzgegA2qB0AUV9y/8ABWX47N4j+IOjfC/T52Fh4dRdQ1NFfIkvJV/dhv8AcjJOOxk9q/P3vnmlKXQ0owsrnq37NPwJ1H9o/wCMWieCtPkNtDcFrjUb4LkWlmg/eyY7nkIoPBZ1zgZr96PAvgfRvh34U0jw34d09NN0XTLdbe0t0GNqAnrnksxyxY8sSSeTX4H/ALPP7Qniv9mjx1P4q8JLp817cWbWFxBqUBlilhZ0cr8rKwOY1PB7V9t+F/8AgspeQxwp4j+GMU8nHmz6Tq7oM/7MckbcegL1cHFImpCcmfpyqn7w3A9Dx+noce9Ne3WaNg4V42+XZINwI/E/pXwRpf8AwWJ+HE0atf8AgnxZaTFvmECWsqY9cmZST+FdZY/8FZvgbcpmaHxTZHGdkulKx9/uSNVXTMfZyR9D+Jv2cPhX4xkkl1v4c+FdSnkyXuJtHgMx/wC2gUN+tecap/wTt/Z51eR5ZfhzbQsxyRa6hdwD8AkoA/KuRh/4Kp/AGYru1PXoeM5fRZjj/vkGtqz/AOCmP7O94Mt42uLcgZ2zaLfA/pCaNBpSWxm6t/wS5+AOpTCWHQtX0tRx5VprVwVP/fxm/TH41UX/AIJU/AQjmy8Qv7NrEn+FdOv/AAUj/Z3Zl/4uAB3G7SL5f5wVft/+Chn7Plw3y/EiwXcf+WltcJ/OMYpJId5nnsn/AASZ+BjXHmq/iiNP+eK6mm38zFn9auH/AIJU/AZYx/ofiIEcbhrD5/LGP0r06P8Abi+A0uCPih4dAILfPdqP0PNWYf21PgTMF2fFPwuNxHDajGn8zTsLmqHjQ/4JN/A5Zt5l8U7c58v+00x/6Kz+tWpv+CVPwImQhIfEcRx99dXYn8ipH6V7hH+1h8F5pAU+K3gvJ4AbX7QE/gZK3tJ+N/w61ySKHTfHvhm9eTOyO21a3kZvoFck/hU8q6BzzPlC+/4JD/CWZi1p4k8YWQPb7ZbuP1hz+tch4j/4I5+GpoyNB+I+sWbnodQsYrhfyQx1+h9vfWtxgwzRyhgMbHBzUzYDDkA9cdh+PSp9mT7WaPyB8cf8Ek/ivoKzz+Htd8PeKIIv9XB5r2dxJ9EdSg/7+V8pfEv4LePvg7ffZvGnhLVfDrMxRZrq3byJCMcJKuUbqOh7iv6KeFzuOCx4UnH55xVPWvD+m+J9LuNN1jT7TVdPuF2TWt9bpNDKPRkcEN+PrS5F1No4qUdz+awP8pIO7DbTjnB9wM/y/GvSfgX+0R46/Zy8UDWvBOrtaqxAu9Mmy1ndoD0kiJ9zhlwwycMOQf0X/ag/4JV+HvFkd14g+E0sPhjWhlm0K6cmwn4ziInJhPB+X7vP8IBz+XXjHwbrnw98TX/h7xDpdxoutWLmO4sLxNrofcHqpGCGztIIIODmlrHY641IVVY/cX9k/wDbI8LftT+H5zaIdD8W6egbUtBnfLIOhmiY43xE46DIyMjkE++XEKXkDxSxpJC6lWRlDB1I5BB6gg9D1/n/ADifD/x/r3wu8YaV4p8K6hLpmuaZKslvcQt26FWByCpyVIIIIyD1Br9xv2Rf2ptF/ak+HaatbKtj4msCsGsaTv3GKXn94mf+WbkHGemMHPU7QmrWZxVaTg7xPzj/AOCh/wCxr/woPxd/wmPhW0K+AdbnP7mMEjTLphuMRP8AzzbnZ6YK+hb41UvDIksbMjxsHVkYqysOQQR0PfI//V/Rp8UPh1o3xa8A654R162W50nV7doZEHUE8q6Z6MpAcHsVBr8AvjR8KdV+CnxN1/wXrKkXelzmOO4xhZ4Ww0Uq5xwyMD+JrKa5XdHTRlzKzP2P/YX/AGjx+0V8F7O61OfzvFej40/WFBG6SQD5LjH/AE0AJ7fNuHTFdX+1t8JrD4yfAPxZ4fu/KjuUtje2dxIAvkXUXzxnd0GcbTjqHNflJ/wT7+NE/wAI/wBonTbeW4MGkeIk/sq7Vmwu8kGByOmd4C/9tK6D9vT9pLxz42+L2u+FH1m7sPC2lOi2un2rmNZAUVtz7Tlj83fpj3NPn01J9m1K6PktlxgHqODxjBwCR+tMY7dvOATgnGcU/AYA/L90f/q684prR5H3tqngt/dPX+mPxrJb6nTra59eWX/BMP4q614dsNa0LWPC2s2d7apd23lXkqNIjqGUjdCAcgg8nvXiPxY/Zn+J/wAEVefxl4QvtNsVO06jCUuLTJ6DzY2ZQT6Eiv0k/wCCYfxlbx58CX8M3U5fVvCNx9jMbEljaSAvASO4GJEHsgr7Va3tdW06W0uoIbyyuEKPbzxiSORT1VkPylSOxHpWyjFnHKrOL1P5uUOWDAnKnduXkp74/wAR3rpPhz8Q/EXwn8Zab4r8KajLpOt6a/mwyRN8rJ0KMD1UgnKnIwTxX6H/ALa3/BNPT7fTNS8efCLT/s8lurXOoeE4VLRyoBl3tO6sOT5ecHgDBGD+Z3oM4HU/447HB/T0Oahpx1RspKoj97P2T/2lNJ/ab+Fdr4itIlsdYtX+xaxpqtuNrcgZJHJPluDvU88E8kg17LcqksO11DI3ByPUHP6Zr8T/APgnT8bJPhB+0jo9hcTFNC8VqNFu0ZsIJGbNs2PaTC+yu3XpX7Ws3TPG3G1D1Bzzn9atO+px1I8rPwE/ak+GyfCL9oPxx4WhjWO0tr37Taqo4EMyiRFHsobb/wABNeWelfYH/BVDTUs/2pbe6jXAvPD1rI57syySpn8gK+P8Y49OKxnuejTfNHU+tf8AgmD4hOh/tKXVoF3DVdBu7bJP3SrxTA/+Qv1r9e9N1QTRxsDjIGfbivxb/wCCfUxt/wBp7RZAcY0+9yc4/wCWWK/XTw3qxdUBOeg65B4rS90ctRanov25P79FYX27/YWipMbHYe+cGvN/2lzn9nX4ocYP/CMal/6TPXpFeb/tLL/xjv8AE/8A7FjUj/5LvSW5K3P56of9TH/ugfoKnWq9vzCn+6P5Cp/X6VMtz047I/YL/gkmC37LN9nHPie9/SK3H9K+1idrZHXp+Z6V8W/8Ekx/xireH18TX3/oEFfRH7R3xR/4Uv8ABDxl4zABm0rTZZIA3Rp2wkI+nmMhPsO9dNtDy5fEfmx/wU2/a0uPiF43uvhV4avWi8L6BcY1Z7aX5dQvVwTGT3SJhjB/iBOPkU18WeE/DWr+NvEenaHoOnz6rrOoSLb2lnbD55WPG0f3QOfmPQDJPNZDyS3lxJNdStLPNI0sskhJLO2SzE9zk5r9VP8Agld+znZ+G/Ab/FjV7ZZNd1vzLbSxKMm1tFYozD0LsO3ZRzycQvedkdl1TirFr9m//glh4V8L6bZ6t8WJf+Ep1s/P/Ylq7RWFsfRiMNKw6HOAcdxX2P4f+Cvw+8L2ywaP4G8N6bEoClbfS4FLY7n5OT/nmuvQBRk8H+9jAPbp2/z6V4V+03+2h4A/ZYj0+18Sfb9U17UlMlvo+kxo83ljrLIzMqomeOTk84BwcXypb7nFzSqM9cb4c+FWwf8AhGtFfB/i02D/AOIqNvhb4Mk+/wCD9Bc5yN2mQH/2Svn/APZ3/wCCi3wu/aI8VQeGLWLV/C/iK4UC0tdaSMR3bcnZE6SPlsdm2k9s19SKwK/e6deeRwf8KheY3eO5zS/C7wWudnhDw+AeuNLg5/8AHaRvhf4Kbr4O8Pk/9guA/wA1ryPx9+318Cvhv4kvdB1nxxH/AGnZyNDcxWFhc3aROpwyl4o2XIIIIByCDWDH/wAFLv2dWYH/AITyXOc86HqH/wAYq7xsPlke8N8KvA78Hwb4dOOMHSLc/wDslRf8Kf8AATdfAvhlv97R7c/+yV4j/wAPJ/2dWyf+E/cZOf8AkCah/wDI9SD/AIKQfs6t/wA1CA/3tG1Ef+29TeIuWR7xofw/8M+FLo3OieG9H0S5ZdjzafYQwOy+hZVBx7ZreVQqAAZjX+HPHsfqMD69a+aG/wCCkH7Oy/8ANQR+Gjagf/beox/wUk/Z2fI/4T//AMo2oD/2hT5kHLJn0hqWkWOtWZtNQsra+tWwWhuoVkj3c87CCD1NY6fDLwdGzbPCWhAkZO3TIBn3+5XhP/DyT9nZWOfiAcH00XUD/wC29H/Dyb9nbkDx++Mf9AXUAf1gpXiPlke8f8K38IHH/FKaER76ZB/8RSf8K08Hnp4R0HPb/iWQf/E14I3/AAUs/Z2Xr48lHGPl0S/P8oKT/h5Z+zrkf8V3MR/2A9Q/+MU7oLM98b4Z+Dm6+ENAJ7/8SuH/AOJpn/CsPBrN/wAih4fPt/ZcH/xNeEr/AMFKf2def+K9kX/uCah/8j0n/Dyf9nbPHj6T6/2JqA/nBRdC5ZH0PpPhPRNBdpNL0XTtNkbgvZ2yQkj0yig+n4E1p+WdoB+cADOeCxx6+mefrXzN/wAPKP2dv4vHzj0xouoH+UFI3/BSr9nbjHj9yQf+gLqA/nBSuhcsj6S1DR9P1m2a2v7K3vrdm3NFdQrIhYdyp6k+tY6/DHwaGYnwjoAJ/wCoZBk/jtrwL/h5X+zqud3jyQ7j/DomoH/2hS/8PK/2dTgDx1If97RdQH/tCmmg5ZHvq/C/wZxnwhoI576ZB/8AE07/AIVj4N7eEdAHb/kFw8/+O14D/wAPLv2dkznx4/T/AKA1/wD/ABimr/wUy/Z1bp47l/HRb7/4zVaC5ZHvj/C3wY//ADKHh8+v/Erg/qtN/wCFV+Cu/g7w/gdzpVv/APEV4N/w8r/Z2br49YfXRr//AOMVJ/w8m/Z1/wCigED/ALA1/wD/ABildD5ZHuy/C3wWv3fB/h8Z7jS4B/7LTv8AhWXg/wD6FHQfw0yH/wCJrwc/8FJv2duP+K/LDOcf2Nf/APximf8ADyr9nYHH/CeOOc8aLqB/9oUuZFWke9/8Kz8HL/zKWhf+C2D/AOIo/wCFa+D+3hPQR/3DIP8A4ivBR/wUo/Z2zz4+kH/cE1Af+0KG/wCClP7O3OPHsh+miagf/aFHMieWZ78vw58JRruXwroa+uNNgH/slK3w58Jty3hbRD/3DYD/AOyV8/8A/Dyr9ncDnx5L+Oiah/8AGKX/AIeXfs7Fj/xXkoHp/Ymof/GKFJByyPfx8OfCK9PCuif+C2D/AOIob4c+Em/5lXQ/x02D/wCIrwH/AIeWfs7dvHkp/wC4Lfj+cFO/4eVfs69/Hrj/ALg1/wD/ABiqug5ZHvX/AArjwh/0Kmhhu3/Etg/+Ipf+FceD/wDoVNCJ7/8AEtg/+IrwI/8ABSv9nXcP+K+bg/8AQF1A/wAoKa3/AAUs/Z2BOPHkjZPbQ9Q/+R6OZBys+gF+HPhDt4V0NfppsH/xFPX4e+FVPy+F9FH/AHD4R/7LXz4v/BSz9nZv+Z8lH/cD1D/4xUn/AA8p/Z27+PXOP+oJqH/xii6FySPoL/hAfC//AELOi5/68Iv/AImmt4B8Md/DWi4/7B8R/wDZa+fW/wCClf7OgP8AyPj/APgk1H/5HoH/AAUq/Z1fp49ZfrouoD+cFLmQcsj39vh54Tb73hbRW+unQ/8AxNQyfDHwbNw/hDQZB/t6ZAf/AGSvBv8Ah5V+zqnXx8x+mjX/AP8AGKP+Hln7Ov8A0Psn4aJfn/2hU3Q+WZ7c3wc8BPIrnwP4Z3D+I6Pbk/8AoFbek+FtH8OKy6PpOn6SGGD9gtUhJ7jO0DIB5xXzsf8AgpZ+zt28dyn/ALgeof8AximN/wAFLf2eO/ji4/8ABHf/APxii6Hyy6n026gYwNoByR7Y7/j/ADr8Xv8Agol8IvG+g/tK+NPFuq6HeN4e1qa3msNUt4WkgZVgjiEZYD5HGw/K2Ohxmv0GX/gpV+zxIwUeOJs9g2iX+PXJ/c884r0r4Q/tPfCz45XUln4I8YWOt3cYMj2BSSG52fxN5Uqq7c4ywHGRn1ospKyLjJw1Pl7/AIJL/BvWfBXw98XeMdb06aw/4SW4t4bBLqIxyPbwCQ+YFIyFZpjz32V9s/EDxpp3w38Ea74m1SQR6dpFhLezbjgYjXO38cY+tdCmNqupBZQB07nHH6ivif8A4Kv/ABKbwn+zinhq2k23XirUobJtpwxgjxNLj2OEU/7xqrcmhCk5s/I/xt4z1L4jeLtc8VavM0+pa1ey308jHPzO2Qo9gMAfSsuwsbjUry2s7S3luru5kWGGCCMu8jswVVVRyWJIAA5OaYoBZs9yT7cnp+dfen/BJ/4D2/jP4ia18SdWgSWw8LhLXTBMmUa/kXcXGTyYkx9DKpHSsV78rHfKShC58r6p+y/8YNDt/Pvvhd4tgh27i/8AY8zqo/2iqkA+x5rzvUNPudHuXt9Qtp7CdDho7mJo2B9MMBzX9KEa+Vg5IGcfMct09e/+T3qK60y01GNory2trlCc7Z41dTj1BPNX7IwjiZLdH81XmYb7+D6EYI/A0pJGCQ31Kt/jX9D+ufs//C/xJM1zqvw78J6hM2SZLjRrZ3OevJXNc9dfsc/A285k+FHhEEjJ8vTIoz/47ij2ZX1rvE/n+80HA3rx6sD/AFp6yLwxwQOuMV+9zfsNfAKRix+FegZ/2YmA/IPSP+wj+z/Io3fCvQcenlyD/wBnp+yEsSux+CYfg8N1+lMbavXqfYD+lfu5ff8ABPT9nnUHDSfDDTovT7PdXMQ/8ckGfxql/wAO3/2dOT/wrmMe39q3w/8Aa1L2TK+sR7H4ZblY5C57f55pDtPA/Ic/yNfuZJ/wTb/Z1kH/ACTtE911e/B/9H1Qm/4Jj/s8TdPB15Hk/wAOtXh/nLS9m0P6xDsfiEIxuGRxjsp5/KmfZY3A/dgrk5GP6V+2N9/wSz/Z+vExD4f1SxfP3rfV52P/AI+WFcD4j/4I+/DO+WT+xPFnibSZSTj7SYLqNf8AgOxD/wCPVPK0UsRTvqj8ovD/AIs8ReEpxNoGv6tok68eZp19LA6+n3CK9t+Hv7fPx9+GskCWnj681q0iOfsmvot6rD0Zn/efkwr6L8bf8Ec/GFgrP4U+IGj6yqZYR6tZyWjfQFPMAz+Ar5X+LX7IPxe+CKyT+JvBd6umISTqmnEXlrj1Lx52j/exVXkh81Gofavwf/4LE200sVp8TfBTWJY4fVfDTGSNSf4mt5Wzj/ddj1wK+9/hZ8Z/A/xq0BdZ8E+JLHX7HaGl+zSZliJ7SRnDofYqOhr+c1XWQBlO4N0PI/L/AOtz6V0fgH4g+JvhX4mt/EPg/WrzQNZhwVubR9pcZ+5IvR1PdXDe46EUp/zGUsOnrE/pBLlmXB24OD0JHGef044P9fAv2uP2RPDX7Ufg4wXMcOmeLrOIjSddWMF42wT5MmBl4Tz8vbJI5PPkP7F//BRrSvjpc2fg3x3Hb+H/AB4yhLa5RglpqrdMJuPyS99hOG6KScLX21u3Y+X/AL6HPX+XH+cEVorNaHHrTep/OB4/8B638L/GmreFfEti+na1pcxgubdh7cOp/iVlCkY4ZSpBruP2Yf2gNU/Zv+L+l+LrFpJ9NY/ZdWslb5bq1bBdccDcuA4z0KYzzX6U/wDBTT9lWP4pfDuT4jeHrXPjDwxbs1wsS/PfWAJZ0PHLRgsw9AX9hX4+/KyDBDBgAuOmD0B/AHnvmsGuXU9CMlUif0keG9f07xToen6xplyl/pmoQJdW1zGcrLE4DKw9iG/pXwH/AMFavgcuq+F9E+Kmn2yte6YRpurMq/6yCQ4ic/7rkj23gVs/8Em/jdL4u+FesfDvUrjzdQ8LTLLY72G42UrYCjnokm72AkUV9ffGr4eW3xb+EvivwjdBTHrGnTWqsw4SQjMb/g6j8RWrtKJyRvGZ/PBb3U1jeQXVvIY5oHWWN0ONrrgg59civvT4Y/s6af8At8aSvjU3U3he6tlSz1O/CLKZ7lEUuFj5zwynJIxv6GvhDUbGXTby4srpCtxbytFLGwwVZWKkH34P6V96/wDBIf4hS6f8QPGngmaZjDqNgup2248LNEyo+BnqyupPtHXPyqT16HVJtK6Oa/a4/wCCdTfAH4fDxr4Z1688Q6TaSxx6ra3sKCWGNyAJldRyu7rnGOOua+KW+6Dks23O5u/XAP6V/Rb428K2Hjzwdq/hzU7dZdN1ezlsp43GfkcEE/hnP4V/PN4m8P3XhLxHq+h3ylb3TLuWymz3aNihOPfbn8a0nG2qCjLmTufTf/BM34kr4H/aWt9HnkeKw8T2E+mHMmFEygzQn/eJRkH+/wC9fsba3KQsDGy7WG7jlSPr/hX86fhzxBqHhLxFpuuaRctZapp1wl1bXCqCY5EYMpGR6gV9V+A/+CoHxi8K3iHWRo/iixL5aG5t/IlUHskseNv1Knp2qYyJqU3N6H7MwTlhHtGBnK89P8/nivxu/wCCmX7PNp8HPjNb+JdCtVtPDfjBZLtIYlxHDeKczqAOgYsrj/eI4AFfbH7PH/BQz4a/Gi+g0i+kk8H+IZvlFjqzp5UrEEYScYDN6BsE54HBrif+CucNtdfAfwtciNDcweIo1STvhraXI9BnapxntWjalGxhCMoTsz8pLHUp9Hu7bUbSVoLuzmSeGReqspDA/ng59RX9Ffh3WV13w/pOpxg7LyziuV3HON6Bv61/OPOQ1nKqnIxx+Vf0F/Au6a6+Cvw/lJz5nhzTXOeuWtIif51EDeur6n5lf8FYI9v7QXhxh/H4bQ/+R5P8a+Le5+tfbH/BWVQvx58JnHJ8Nrn/AMCHr4m3f1/nSqLVG1LY9/8A2FZxb/tE6a+M7dPu+2f4AP61+qHh3VCNmTsA7Divyo/Yh/5OBsWzjGn3f/oIr9OvD9wVlOeecc+9IxmtT0r+1x/eb8hRWDub1X86KZnyo97rzj9pZv8AjHf4n/8AYr6l/wCkz16RXmv7S3/Ju/xP/wCxY1H/ANJ3pLcxW5/PVbjEEf8Auj+QqZu/0/qKht+YY/8AdH8qnxu4/CpluenHZH7D/wDBJP8A5NUuv+xmvh/45DWv/wAFTtSl0/8AZD1yFJNqXmp2EEi/3lE6vj80FZH/AASS/wCTU7o/9TNfH/x2GpP+Csjbf2Vyp5Da/ZA/mxrrZ5v2z8b5pGRJjnPUnHfjGP1r+hP9n3w3F4V+B3w+0qFEVLTQLGL5VxlhAm5v+BElvqTX89UmPJbPpX9G3w1Gfhz4RPT/AIk1n/6ISueJtW6HSY2jqTjnAGST6fzr8Yv+Co3gjxFpP7Ums69qkEjaDrdjanSLplYx+XDDGksYboHWTc2Dz+9B71+z/wCWe2elY3inwPoHjjSTpniTQ9N8QaaziT7HqtpHdRbh0Yo4I3DJ+bGfyrS7MYyUHc/DX9iP4Ya78UP2lPA0WiwSmHR9Wt9a1C92nZaQQSCUszD+JtgRfUtjpkj9z/FkOqXHhTWItGkWHWXspksZHOQkxjIjJx1AYr7kY6GofCXgTw54B09rHwx4f0vw5Zs+82+l2cduhb+8wQAN/nk1uN8ylcYXoBnOBjGPcdePel0FKfM7n83PiXw/qXg3Xr7R/EFjNpOtWczR3lneKVmSTJJ3D3znOOc9TjjJ82IE7pYz+Nf0k6x4X0TxAyPqujafqUiZCNeWqTFQTnALA1mH4W+CJCS3gzw63+9pUB/mtLlTd2b/AFjTY/nJ8yE9JV9/85pPPtl6zgZ9Rj+df0bf8Kq8Djp4K8OD/uEW/wD8RUg+GfgxRhfB+gKPbS4P/iKOWI/rD/lP5xftFsvSdV/4EKX7VAeDOpH5/wBK/o6Hwx8FN18HeH8++lwH/wBlpG+Fvgduvgzw6310qD/4mjliH1h/yn8432i3P/LZePaka5gGMzJ+df0cf8Kp8Dnr4K8OD/uE2/8A8RSr8K/BCfd8GeHR9NJgH/stHLFi+sf3T+cdbiE9ZVFL51uf+Wy1/Rz/AMK08F9B4P0D/wAFcP8A8TSN8MfBUn3vBvh9vTOlQH+a0/ZruL2/90/nHH2f/nuopDJB/wA90P41/Ruvwr8Dt18F+Hcf9gm3/wDiKZJ8IfAMzDd4D8MsffSLc/zSj2ce4/rH90/nMMtv/wA94x+IpBNbd7hPwINf0Zp8Hfh8uT/wgfhlfpo1t/8AEU//AIVD4CXp4G8ND/uEW4/9kp+zQ/rH90/nK8+DvMo/Kmma2PWdD+IFf0c/8Kp8Drjb4L8Or9NKgH/stSD4Y+DF4HhDw/j20uAf+y0ezQfWP7p/OGJrbj9+nvgg0hmtu80ePwr+jw/DDwX/ANCf4f8Ax0uA/wDstH/CrfBTdfBvh4/9wqH/AOJo9mH1j+6fzgeZbDpPGPxFH2i27zp+Yr+kBfhf4KXp4N8Pj6aXB/8AE07/AIVr4QXp4T0L/wAFkH/xFHs11F9Yv9k/m+We27Tr+lP+0Q8YnT8xX9Hv/CuPCK/8ynoY/wC4ZB/8RSH4b+D26+EtCP10yD/4ilyRD29vsn84jXEJ589fwIpvnQN/y8L+Jr+jxfhv4OXn/hEtBU/9gyD/AOIp3/CuvCB6+FdDb/uGQf8AxFHJHuP6x/dP5wvOgX/luv4MKTzYD1nU/U1/R5/wrXwYevhDQCfQ6ZB/8TS/8Kx8Gf8AQneH/wDwVw//ABNLli9g+sP+U/nCMlsP+W8Y+pFM862zxcJ+Yr+kD/hWXgv/AKE/w+PppcA/9lo/4Vr4P/6FHQT/ANwyD/4iq9mkL6xf7J/OB59tnmdPxIpwmtv+e6H6c1/R9/wrXwd38I6Cf+4ZB/8AEUxvhj4Lk+94P8PsO2dKgP8A7JRyxD2/90/nG862/wCe0f403zrY5/fRj8f/AK9f0cN8KPA79fBXhxv97SLf/wCIpn/CoPAJOf8AhBvDWf8AsEW//wARSUYsPrH90/nJ8yAdJk/A5/rQZrdR/wAfCfjgV/Rx/wAKj8Brj/ihvDY/7hNv/wDEU9fhb4Jj/wBX4N8Px+u3Srcf+yU/ZrqH1j+6fziLPbt/y3TP1FKZIP8Ansn5iv6PP+Fa+D/+hR0EfTTIP/iKd/wrfwewwfCehf8Agsg/+IpcsR/WP7p/OB5lv/z2jP0Of5Um63H/AC2U/hX9HbfC/wAFN97wb4fP10uA/wDslJ/wqnwO/H/CGeHSP9rSbf8A+IpOMbCdd9j+cfzLdefNRlz+APb/ADmvov8AYH8N+KvE/wC1V4IufCcLyyaZeC71K8yTFBZBWEwkbnG9cooyMsw9Mj9pZvg38P5sGTwJ4Zcj+9o9uf8A2Titrw/4X0fwnZi00PSLDRbMNu+zadaxwR59cIoB/KlFK5Dq30NaNgq5Bb5VwGbkjHavyX/4K8eOhq3xh8FeF42zHoelyXrlT1knkA5Hrti/Wv1mVQqIo5Cgcd8DjH5nP41+GX/BRLxAfEH7YXj3DAxWQtbFOem22jLfhuZqfM7MVJJs+bwxXryQMHuMcH+dfZv7DX7fWj/ss+B9Z8J+IfDOpavZX2pvqkd7pUsYlWRoYoipRyoxiFcYPc18YgfMfzp2wdNvzenes4uzOyUVJWZ+tK/8FhPhg20/8IV40Hdh5Noefr9oqSP/AILB/Cvnd4N8bg57W1mf/bmvyT2n0b8qYRtPOR9a09ozP2Me5+ui/wDBYL4TjG7wf44/G1sv/kqk/wCHwXwm5J8JeOAc/wANrZn/ANua/Ixcnp+tOVdp9/alzsfsY9z9do/+CwPwiY/P4U8cge9laH+V1Vhf+CvnwdYEnw541Ud/+JfbH/25r8g/LPUqfxpODz+Xy9fzo9ow9gj9iLX/AIK4fBKb/Waf4uts/wDPTS4zj/vmY1sWn/BVj4BXGS+p67bkdA+jzN/6CDX4vcd1p/oCSR2zT9sxfV0ftWn/AAVM/Z7b73iTVUP+1od1/wDEVOv/AAVB/Z3lIH/CX3yc/wAWiXv9Iq/EvA5/wFJz0GD7ZA//AF0e1uL6umfuNZ/8FJ/2drpwg+ISxFj1n0u9jA/FoQK9J8M/tVfBzxgYU0n4neFrmabAjgOqwpK5PQbGYNn8K/nw2kcjcO2VGKjZUZslct13d/x7/rR7QPqp/TDDeQXUayQTxyg4w0cm4HP0PNSNiRSrEMjZQqenvkHj8MV/OX4C+MHjv4W3ST+EPGGueHGVt/l2N/IkTH0aPOxx7MpHJ619u/AL/grl4m0K4tdL+LGjR+ItN4U61o8awXiDuzwDEcg6fc2ng8HPGsZRZzTw046n1Z+0Z/wTl+GnxyjuNS0m1j8EeLWBK6ho8QSC4fr++gHyNnuVw3XluMfkx8fv2cfGv7N3iz+xfF2nrHFNk2OrWuWsr5BzmOQ9/VDhhnnjmv3s+HfxM8L/ABc8I2nibwlrVtruiXQIF3atkL0zG4zlHBIBVgGHpVH4tfCXwz8bPA+peFvF2npqGl3a7SpA82B+NskTY+RxwRgfXINNwugp1nB2Z/OisjwyJIjyRSxtuR0yrKw5BB7EH8R+GD+u3/BO79uR/jNpqfDzx1ep/wAJxp8G+y1CRtp1W3QDduyeZkHLH+NecZVifzl/ab/Zx179mn4nXXhbVj9rsJAbjStVVSqX1uTgNz0dfusvYrnnOT5l4a8R6r4P8Q6dr2h3kun6vptwtzaXURwY5VOQf8QeoJB4NYr3WddSKqRuf0l3UMV3bzW88ayxspR45BkMpGCD6gjIP41+AH7VvwfPwK/aC8XeEYlK6dDci507cMZtZVDxj/gPK/8AAa/aH9lP9oDTf2kvg1ovi2zSO31AqbTVLFDkW10o/eKozkKc71H90gdq+Gf+CxHgOK08VfD/AMaRRjfe2tzptzMBgHySkkRP1Er/AJVc9jmo3i+U+eP+CfHxMb4ZftYeEZHl8ux15n0K6GM7hMP3Q69fOWH9a/cX7iY6lePf6j9T9a/nA8Oa1deFfE+ka3aOYb3TbyG8hcdVkjcMp/AjP4V/RvZzpcwxSxn5GUMpzntkfzGaiD0LqqzTPwl/bS8Fx+Bf2oviPpcQUQPqX29Av3QLmNJ8D2zJj8K6T/gnTdTWH7YHgXZuRbg3kDr/AHgbSY49+Vz+Ffb37dH7C+q/tAeLLDxn4P1Cws9cjtBZX1pqjsiXKISYpFdUJDrnbgjBAXkY5rfsW/sB33wB8aSeN/GeqWGo+ILeF4NOstMZpI7YsMPK8jKpLEEgKBgAnnms0m3obOceQ+3bhdykDjco+b6jI/PIr8Rf+Cgng9fB/wC1d4x8uPy4NWEGqJ6FpIgHP/fat+dftq027HyHucHpwM5Pp0H5V+T3/BWDTILf4zeEr+P/AFlzo7Rv64SQ4z/32a2lexnQ31Ph7Pc8duan8mVYRKYpBExK+Zs+XIxkZPBIyO/eo1X5xzgHjpnuO1fo5/wS60bRfHvwm8b+Htd0yz1a0ttXil8m+t0nQCaFRyrAjgoe3fisVqdUpcmp+cisHUEDdgfKM9OnOB0/Guy8R/Gnxv4s8A2Pg3WfEd5q/hywuheWlresZPKcI6AKx5C4c8ZI44r9H/j9/wAEvfC3jW3n1f4a3S+FNZI8w6Vc7pdOmP8AsjBaFie43KM9BX5pfET4deIfhX4sv/DfivSptF1yzb99BcDnb2ZWHDp6OvBz7U0rE3UtTlZOYXGSRjqT7Yx/Kv3+/Z1kE3wH+HLZznw1peP/AADiH9K/ASRf3LjGD0Nfvj+zK4b9n/4cnnP/AAjmmj/yVjpJ2ZnW2Pzq/wCCtGf+F7+EsjH/ABTY/wDSh6+Is/zP86+3P+Cs3/JdvCfJP/FOL1/6+Hr4j2lfzNXPdF09j3j9iX5fj9ZZ6HT7of8Ajor9K9JkHnLzjuM+nevzT/YnYf8AC/tOGcZsrr/0Cv0m0pgswXgknAP+frUES3Ov+0R/7X50VU2P6rRRcmx9N8V5p+0y239nX4nn/qWdR/8ASd69Lz0rzP8AabX/AIx0+J//AGLGo/8ApO9NbnMtz+eu2/1KfQfyqyvUfWq9uMQx/wC6P5VP/wDrqZbnpR2R+w//AAST/wCTUbr/ALGS/P8A47DUv/BWYZ/ZXz/1MFmf/Qqg/wCCSf8Ayajef9jJfj/yHDUn/BWhj/wywAP+g/ZfyNdTPN/5eH42yZ8t/p/TNf0cfDJt3w28IN2OjWR/8gJX840hH2dz7f8Astf0cfC3n4X+DD/1BLL/ANEJWUUbVt0dTzjOOAOagv8AUrPS7SW6vbqKztYvvz3DhI1GAcljx0Oan5+UqcHPcdPU1+LX/BS7426z8SP2htc8HteyL4V8JNHZW1gjYjknMStNK68gtuYqCeQF4xk04vqzGEXUdkfs3pesWGuWKXmm3tvqFo5+Wa1lWRD7ZBq0GDdCGHXINfzy/A39oDxx+zv4qGu+CtVks3JBurCRi1peqCBsmjJ+YEdwQwzkMDzX7T/so/tY+F/2pvBzahpZ/s3xHaKP7V0OaUNJbt0LqeN0ZPRsA9AQPlFVo9SpQcNz3Ju1KB60daBnce9QzIdy2fYUn/66RsjHbmkPNSA4MADxSsfujA5OAfU0zdtxyuenOa4b4xfGLwt8CfAOo+LvF18tnpdqnyx5Hmzyn7sMYzy7EdO3UkAUCO5EqqrMWwAN3zcY5x39f1pzOFyD1x25/Cvwf/aW/bX+IX7RniSaV9SuvDPhWJiLLw/p1y8aAbuHnZSDLKQBlug/hHUn60/4JUftLeLvGXizWvhp4p1m81+zg0xtT068vpmkmt9ksaSRb2JZlYSrjJ428dapI2dNpcx+lmMMw7gkY+lJ7d6U4X+Hb/Me1N3dPTpmkzIevpStg4B9fXmo+FOe2cVkeLPFWkeCvDuo6/r19Dpuj6fC013d3DhEjQDkE+/HA5JwKQG0sis2R970UEj+X5+nFJ9rh8zYZVEuM7CwyR2wK/HT9qT/AIKXeNfipql5pHw7u7nwb4PVvLW7iwuo3uP+Wjyc+WCOipggHlj0Hx9deJNZvtRbULjV7+51Atv+1z3UjybvXcTnPvnNM1jSlI/pQbHUjj1YEU0YYZCgjse1fih+zX/wUW+I/wAD9WtLPxLqV3468HmQLNa6nN5l3AvdoZ3OcgfwuccdRX7EfDn4keH/AIreDdM8V+Gb9NS0bUYvMhnT73oVcfwurZVlIBBHNadCHFxdmdPx/dXpnrSghWK4wevygn8abuy2APnBx9DjpX5Qf8FEv23vFt58Rta+F3gfV7jw/oWiSC11O/sJTHcXdyAC8ayKQyohypwRk5yOBS9RRTlsfqmPEGmNd/Zf7QtftXUW/nKZD/wHOf0q8zLz3I7YNfzQebI101y0jvO0nmmVnYsXzwxbOSR65zX6F/8ABOf9uLX7Pxxp3wv+IGt3Gr6RqreTo+qX8pee0uOqwu7HLI+Ao64baMckhJpms6Uoq5+qRx2470nXOelA44I2n+76ck9fxprUmYx8x5z6ZNJ970pN3NG7dxwPepAcF78D39KVnHB5OeeAcfX/AD7VEW5GOHB449jxX54f8FHP25NX+HOrt8LPh3qH9n675Kya1rUJDTWQcArBEeQshUklsZUFcEEnDRUYOTsj9DmvreObynnjjkxu2uwU4/GpmIVQx+7kfMeB/wDXr+avUNa1LVdSn1C91C8u9QmfzJLy6uHkmdv7zOTuY8dSc/lk/ZH7D37eXi/4c/EHRPB3jbW73xH4K1i6jshPqExludMkdgqSRyP83lgkbkYn5c45GDSsaSpyirn7FdyMFeevel4+nsKYvBIxjscdAepA/E/qKXI9c0mYK4/O7/8AVSMQqknB/Smbu3U+mM96+Xf20P24dH/Ze02DRtMt4td8f6hGXtdNaQrFax9BNcEHIXOcKMFsHkDBKQ1c+pTheW+X/e4H60pIxyeOvHWv58fiT+1N8V/ixrE2pa/461fEx3rY6dcyWlpFycBIo2UY9yS3qTXX/A/9uz4vfA/VIZLXxPe+JdHUgzaP4guHuoXUddrE74yAScgnoMg44rQ29jO1z93mwSOQSRn04+lIuPTFeSfs0ftJ+Fv2mvh+niDw4Ta3sD+RqejzMPOsZ8ZKnHDKc/K46j3BA9b44Oc0S02MdVoxS27FJnt2pB0pc47VICnJ5PXpTd2Pp3pd2PzpvqQO9BQe+cAEE8ZOBzX4AfteXct5+1J8UpJsBxr1wgwP4Vbap/ICv3+Py4bjAP8APgD8a/Dn/gop8O7j4e/tYeLXaIpZa4ItXtZD0dZFCvz7OrD8aUdUzSjufNykKwbpg53YyBjnOOnGM9O1frL+xj+xL8E/iB+zd4L8U+IvB6+INb1a3kmu7ye+ulw4ldCiqkoVQu3bwBnFfkyc8EfUc989/pX6Ff8ABN/9uTw18K/DM3wz+ImqDSNKjuJLjRtXuCRBAJCWkt5H6IN5Lqx4/ePkjAzVPXRnRWvy6H1+3/BN/wDZ0Ztx+G8OM541W+A/ScUf8O5P2dGyF+GsQ+msagP5XFen237R/wAJr5d8HxP8GzAAAtHr9oQf/In61bX4/fC9unxG8JN/u67an/2pW2hxXkeR/wDDt79nTOT8OV/8HOon/wBuad/w7k/Z1XBHw3hP11fUD/O4r1mT9oD4XR4z8R/CK5/va7aj+clXNF+M/wAPPEWoR2Gk+O/DOq38pxHaWWsW80rn0Cq5J/Kp0C8jxC6/4Js/s83CsY/AZtywIDQ6vejB9RumPPWvyT/ae+EZ+B/x08W+EI0ZLGyujJYmRixa1k+eHk8n5Wx9Qa/oGZlcNxuOSo6HBB61+Zn/AAV6+D7JeeFPidY22UZDoupSKOF5LwMfwMi59hWb8jejUvKzPzY3hMk8AAk/gM/0r6+8Ff8ABMH4v+N/C+ma3b33hu0sdQto7yDzr5yxjdQy5CxHBwR3r5AlX5WJwV5Qg89uv5H9K/ZD/gl78cofiZ8BR4SvrjzPEHg+QWjJIQXNoxJt256gAMmf9getKCT3NqspR+E/N/8AaK/Y98e/sx2+j3Xio6ddWOqSvDBd6bO8ieYq7trFkXBIyR/umvEFboRyMZ4PU8YH61+/H7V3wIt/2hfgZ4h8KJEiaoyC70udgB5V5Gd0fPYN9w+zmvwM1KxudJ1K8sr2FrS+tJWtp4pF2vHIpwysOxDAj8KqcUth0qnNufUf7Ov7APiX9pL4Zf8ACX+H/GOgWaC7ls3srxJDJFImDhyqnGQykYzww6c1e8bf8Ewfjh4Rt3nstP0bxVGoJI0e/AkwOvyTLHk+y5qD/gnT+1FB+z/8Wm0TxBc/ZvBfihkt7mR3AS0ulz5M+TwAQTGx4G1tx+7X7UxMrbWWQFWGQc/eGOOePyNCirGUqs4vyP5xPGngPxL8OdWGmeKvD+qeHL89LfVLV4GYeo3AZHuK55m+Xjv6r79wev06flX9Hnjj4b+GviV4el0XxRoOn69pkqlWt76BXX3IOMqfdSCMda/LP9tT/gm7c/B3Tb/x38Njcat4Ptl8y+0eUmS502PPMiHH72IZ5z86jn5hkqcq6GkMQnoz5v8A2a/2oPF/7L/jpNc8PzG60m4ZV1TRbpyYb2IdiedkgydsgHyk4IKllb9x/gr8ZPDvx2+HeleMfC9x59heRnzIWIEtrMuRJBIATtdW+U8nIwwJBzX87S8ZCsT23f8A1u4/z2r61/4Jv/tKT/BP42WnhjU7nb4R8WzJZzRyNhLa7JxBOMnHXER9VZf7oyQl0M6tNP3kfpj+2Z+zZZftJfBrUNHWOOPxLpqte6NdunzR3CjmM/7Mg+RgOOQ3avwgvrOfTrue0u4ngvLeRoJ4ZOGR1OHU+4YEZ9vav6WI/mwgx/d57HBH9RX4t/8ABTb4Nx/DH9ou41uwtvs+keLLcanEqrhRcDi4Ue5bD/8AbQ1VTXUmjK+jL/8AwS7+Nz/Dj49P4PvLkx6L4yj+zqGOFS9jBMLAZwGZdye5K/Wvur/gop8FtU+N/wCzvPHoNm2oa54fvE1m3s4U3SXCqrpKijufLkLBRyTGAMmvxa0PXbzwvruma3p03kX2m3Md5byjPySRsHU8ehH6mv6Jfhv4stfH/gfQfEdscW+safBqCM2BtEsYcdDxw3Y/jTi+ZWY53hJSR+DPwZ+B3if43/EbT/COg6Zcy3clwq3k0sTolnFuG95SV+XCjp1OeARzX7/2doljaW1urblhjWFWwcttGAT74AqdY7azaVkjhR3yzeWg3OPwGff2zjkVy3jrx9pvgfQrzVNTu1tba2haWWeRwAqAdT79vyqHHk2M5TdRo8R/bW/a0g/Zi8E2sthbW+p+KNUmWGysbhiE2AgyOwHOAMDjuRXws/8AwVi+KitiPw94WVQeFaC4YjPPUze/YV4P+1N8ebz9oT4r6hr5lkTSIc2mm2zc7Ygcbh6M3H5CuL+Hfwm8XfFzWJtL8HaFc69fQRedLDblQFUELksxAHfqf4TSTaOpQjZOR9Tz/wDBV74tSxkJonheItxuS1mJ6e8pr55+N37QXiv9oTXrLVvFbWpnso3ihW1jKKqs2cck+grt7b9gX473X3fAc4HPLXtsBx16ye9eefFz4E+NfgRqthp3jXRzpF3fQtPAnnxy7kVsE/Ixx26+tTY0XL0OE3V9+/8ABI/WBH4m+JWkmQL9otrG6VCcfckkUn8N618BKM/zrf8ABvjzxP8AD+9ur3wtr+peH7qePy5JNNuXhaVQc7W2kZGfWpFKPMrH9DWnyjEStuU5A9SPl/n/AI18O/8ABWrQ9Gk+EnhTXLi2t4tet9XS1trhQBIYGRy8XqVyqn0H418B2/7U/wAYrGQmH4neKlZSBubVZjkAcfxe/wClch47+KvjX4lNBJ4t8U6x4ia2BMP9p3jzpGzYztDEgEgDkegqufoZRpOLucpOStseeFXBHvjn8ea/ez9mOQf8M+/Dgjv4d07/ANJI6/A+bBhfAwu3A/Kv3n/ZbIk/Z3+Gzc/8i7p//pLFSVrjrbH58/8ABWb5/jl4RPr4dx+U718Rt1P1r7b/AOCsX/JcPCA9PDx/9HvXxJj5j9c057ounse3/sWf8nBaVnJH2O6HH/XOv0n0hv3wyML1Getfmx+xeuP2gdJyAf8ARLr/ANF1+k2kNukTBCkdsdakiW50fmD1NFHnj+4v50UiT6h9PavNf2mv+TdPif8A9ixqP/pO9el9hjpXmX7Tbbf2c/igfTwxqP8A6TvVLc5Vufz2wf6mP/cH8qlbO0/57VFB/qY/ZR/Kpm+6foamW56cdkfsL/wSRz/wylff9jNff+i4af8A8FZFB/ZZJ9Nfsz+hH9aZ/wAEjv8Ak1e+H93xNfg/9+oKl/4Kxg/8Mrynt/btn/Oupnm/8vD8bJv+Pdl9v6Yr+jb4VNu+Fvgwj/oCWX/pOlfzjzEeWxweK/o4+FClfhb4LH/UEsf/AEnjrFG1XU6lug7V+Av7YX/J1nxbPf8A4SG4z+lfv4y9K/AL9sXj9qz4uf8AYxXP8xR9lkUdGeRBRnn9K6f4a/EzxL8IPGth4t8J6pNpet2b7lljPyyLkFkkXo6MBgqevsQK5Uepp/Tp+R5B9QfwrNO2x2tcysz90v2Qf2x/Df7Unhh0ATRvG1hHnVdDkfpjrNCW+/EePdcgEdCfojg574OOtfze+DfGet/DnxTpniTw1qdxo2t6bL51teWr4dMZ65yCpBwVIIYEgggkH9pv2LP209J/ac8ONpuqLBo3xC0uEHUNMVtqXCAf8fMCk52EkZUZKZAJIwa10aOKcHHY+m9v4UdPx4/z+tKzfMR1k/uZGT7Yrlfid8UvDfwd8D6n4v8AFOpJpujadH5jyty0jdFjRf42Y8ADrjPTmlymCfNsVPi98XPDHwP8C6j4t8W362Gl2Q5XI82eQ/dhjXPzOxIGO2ckjFfiB+1F+1F4m/ai8dNrOsFrLRLMtHpOhxyZitI84y3rKcDL+2BxzUn7VX7U3iP9qPx4dW1Eyaf4dsS0Wj6GsmY7aPPLuf4pW/iftnaOOa8UwOec9s45Pp/hj2pyaWiO2nT6sayncTnPYHHP+fbtX2V/wSbz/wANXTj/AKlq+z9PNt/64r43254H1r7P/wCCSy5/aq1B/wC74XvG/wDI9rSi9TSr8J+xbfePOecf1/rQKMevX/65/wDrUbSKHucI1iqZySPl59uRz/n1r8jf+CnX7U03xF8ey/C7w/e48MeHZ8ao8LZS9vwfmVh/GsXK4OBuJP8ACM/oV+2F8do/2efgT4g8Uxsh1pl+w6VAxGWu5PlRsd9gJf8A4DX4Hy3E91NJPcytcXMzGWaaQ5Z3YlmJPckknPvRsrs2pRu7ibvMYnkH0Jz+vel20iqOaXis7nagb2JX3Hb/AD+mc+x+t/8AgnX+1VN8C/ipD4V1282eBfE9wkUyu+Esbttqxzr6AnajD+6c/wAIFfI5prAspwSD2b09x7/0Jq4ysTOCkrH9Lf8ACEOOAMDoDjt9OMf8Br8Ov+CiHw5l+HX7WPjBnQrZa+ItbtZCOG81cSj8JVkz9a/S3/gnr+0Efj18AdNbUZ/N8S+G3XStSDnc0gRcxTk9cvGOSerI/wCPmP8AwVg+CP8Awmnwd034g2MG7VPCUv8ApJVfmexmYLIPfa4VuegZ/YHdrmRw0/clZn5HY74qS1vLjTbqC7tJpLe6t5FmimiOGjdSCrA9iCBj0PPao/xzx1/z/nmj0Ncq91noStJH9AX7LHxot/j58C/C3jFGUX1xbi31KJDkRXsZ2zLgdMn5x/ssters2W96/KX/AIJH/HBfDfjzxB8LdSujHaa5GdT0vc2MXkS4mVR6vFhv+2R9s/q0AW7YA/x/wxW0l1R5ko8rEpQOQD0NAB6UfdbuOxb07/0qBHmv7RfxosP2f/hD4h8cagFleyg22lqzBTcXTnbDH+Lcn2Ffz/8AiPxBqHi3xBqmt6vcvd6pqd1Jd3Vw3V5HYsfwyTj2x6V9mf8ABUj9ouP4kfFK3+HekTrPoPhF2N40b5S51BhhwfURrlfYu3pXxHy3fOOMnv7/AFpPsdtGOl2Jg9Tyf/rE163+yX8Lbj4y/tFeBfDMMfmWp1KO+v8AIO0WluwlmyQOMhNg92XoOR5MygjDYxj/AOvn9K/U7/gk18BW8P8AgXV/ipqlsUv/ABCzWOklxylnG/zuvtJIrD3CZ71pTjd3CvLli0foUrZCkcrgY9x1/rj8Kdtxn8z/AI0yM8k9M9B2HHQVI2PlwN/OQPf/AD/OiS1OGJ5b+0f8dNJ/Zz+EuteNdVAne1TybKx3hWurt8iKMfzPouT14r8FPH3jnW/iX4y1nxR4kvZL/WtWuDNczOc7WHRAP7qDCqOMAAV9V/8ABT74+/8AC0PjgPBmnXXm+HvBm62YxnKT3zgec5GeSnCexVvqfjPdu579/wDP1qZaHXSj1YuN2STkk5NBG3p16j6jp/n/ABpdtI1ZnSeufst/tEav+zL8WNP8U2JkuNJkItNW05W+W7tScsMcAMpy6ehGM4Nfvd4b8R6b4u8P6Zrej3i3+l6lbx3dpPG2VljcblYe5B5+ntX82nGVz0Jwfp3r9QP+CSf7Rb6to+qfCHXLrdcaaj6nojSHLGAkedAuT0RiGA9Hb0raL5lqctaGvMj9HvXnPNIelLt2nHQdfqaQ+v5VLOYTA65xQylTzQTjtkml+9nrn0NIBNvfgHHBxmvlv9vb9kv/AIaW+Hdtd6GsMPjjQA8+ms5CrcRnmS3YnseoJ4Dema+pVUijZ5hUdec/T3//AFU0+XYafKfza+JvDeq+DdautI1zTbvR9Vsz5dxZ30LRSxMOMEMB9fxrMU7ZMg8q3Y+3/wBev6Bv2iB8N/Cnw81vx1498MaDrVtodmZll1TTYZ3Z84jhQuCQXcqgXOMvnPp+BXiLWpPEniDUtVmggtZb+5kumt7WMRxRF2LbVUAAAZx+FKSsddOpz6MzVUAAFVOBjOAKXyVZsFQ3GegP9KXGK7T4Q/C/U/jN4807wlo19p1hqd+dsD6pcGCJ27JuCsdx7DHJ46kCoubWXU4oQxgZ8sDP95Qv86lt8W80csamORGDKycHOeMcdc4wRkj88foJ4S/4JA+MLuRX8TePdD0lVYbo9LtZbpvddzeXz+P1FfWvwB/4J6/Cn4EapbazFYzeKfEtviSLU9c2y+RJkHdFEoCqeODyRxz66RizCdSml7p61+zreeKr74G+BbrxvDLB4ul0e3bUI7hSkwcoMeYp+6+3G4dm3DtT/j78I9N+OXwh8TeCtTIjt9TtSsc5GTBKpDRyj3V1U8dga79V2LnPy+nv6/546DAxS7grLyQc9QDx7/l/Qd602OTns7o/nE8b+C9X+H/i7VvDmv2jWGsaTdPaXMLL91wSCPcEHIPcEGu//ZX+P17+zZ8ZtJ8WQ+bPpLn7DrFkp3faLJyN6gd3XCuvuoHevp//AIK4af4Nsvid4UvNOlji8a3NiU1a1t8EfZ14geT/AKaHLgf7KY7DPwHI3UMOeN2OvYEj0PWsdmd9vaRP6S/D+vad4s0HTdb0i6h1DS9Rt1u7W7jYMkyOCyEYPQgj+Vfml/wVA/Y/msb+7+M3hG0zZyhV8SWkSY8thwLsDHII4cjoQG6FiOa/4JrftqR/D/Ubf4T+Nr7y/DmoTf8AEl1KZgq2Fw7ZMDE9InOcf3WJ6BuP1cvLO31C1ltLuCGa2uI2ikimVWjZDnKFTkHIOPQ8+1dHxI4lekz+aRkzuB6N2IxkZ4B/nxX6M/sJ/wDBRqLwXpen/Dr4qXsv9lW4FtpPiZzu+yx9FgueOUHAEn8I4OAAa5D9uL/gndqXwkutR8dfDiyl1PwKxM91pMCtJPpHdivUvAOSD1UcEY5r4aj+YZAJ+nI/HB/rUaxOtpVUf0rafqVnqtlDe2NxFeWU6B4LiFw6SRkZBVh94dcY61NNGk8bRSRrKjcGOQAhgflIwe2Ceo6Zr8Ev2ff2sviT+zreI/hfWzcaFuzLomo5lsZfZVDAoeeqMDnbnIr9nv2cPjRZftCfCHRvG1jpk2kRXxliksZiG8mWNzG4UjAK5Xg4GRjIByKIyTehy1Kbhufk3/wUJ/Zjh/Z7+MC32hWxh8F+JVe709FBKWswP763B7KMqyj0bHbn5UkLwuskTGOVTuV1OCpByCD25HX1r9rP+CnXw/g8Z/sq65qQiBvvD08OpQyAcgbgkgHoCrfmBX4ry4kUt6+n+frWclyu6OulLmhqf0Jfs2/En/hbfwJ8C+L2kWa61PSYJLpl6faEUJMv4SpIK+Zf+CtXw8HiT4A6Z4nghzdeHNUV2k/uwTgRsP8Avvyj9Afoep/4JYatJqH7Hfh+B2JSw1PULZM+huGk/nIa9K/bY8PxeJv2VfibaSpuWPRZrxR33QYmX9Y62exyxSUz8FCTzglSxJwPQg//AFq/Wb9gf9qbwov7O+g+HNb8T6dpmvaG02nvBql9FbM8IctCU3n5lCMF9tv0z+TP8K55HB/Xp+VN2DrwW6Zxg4zxzmudOx2yjzH7f/Ej9tb4YeAdIuLm98aabqUqLxa6fdJdy7h02rESc+5OK/M39qj9tDX/ANoW6bTrBJNF8KI+4WpcGa6x3mIOCv8As184lBkHHP1/yf1ob5mznNPmFGkojG7HkADBbOeOeT79OfYV+sv/AATL+EMXhX4FN4pmXydR8V3LTbzkFbaJ2jWPGR/EJG/4GK/Jsg4OOtben+M/Emk2sNvYeItWsraEbY4be+ljVRknAAbA5JqlJLVhOLlof0LW8SwuIwWK5IxuLBge2K/ML/grdq0F58TvAlqjAz22kSmVcYK75RgH/vk18ZS/ErxnNGY5PF2uyIf4ZNTmYflurAvLq4vpvOuriW6lxt8yZy7beoGTz1J6mhzTVkRCk4yuQ57V9EfsW/AXQ/j9408R6drrXYtNNsY7hBay7CWaUDnj0Br53xkn6V94f8En7ET+KfiRdsPuW1hEPXl5if8A0CkloXUbiro9n07/AIJc/Da8hbdfa5A33U23S8HA7lTXy5+2x+xFF+zPpejeItF1m41bw9f3X2KVbxFE0EuwsuSowykK3vwOOeP2E0+ER+TwMcH15r5G/wCCsEEb/sxWchXmPxBauO3JDj+RpJGMZybsz8gXH+iyfiR9MV+8n7LOV/Zy+Gg7/wDCPWAP/gLFX4Ozf8e79yev5V+8P7MLY/Z7+GwH/Qvaef8AyVipJ6l1dj8+/wDgrJz8cfB7evh0n/yOwr4jP3s19tf8FYGz8bvB/wD2Lp/9KGr4lqp7o0p7HuH7GP8AycBpGRlfsl10/wCuRr9I9HxuQScbsc+2O35ivza/Yx+X9oLRjgHFpd8H3iNfpJpOI3Ug4BHAx04FSZy3Om8iP1aio/O/2v0opEn1N/KvMv2nF3fs4/FH/sWNRH/ku9em15n+02f+Mc/ij/2LGon/AMl3po5Vufz2w/6tP90fyFSt0P0NRQ/6lOMfKP5Cpux/z2qZbnprofsJ/wAEjPm/ZX1D/a8UX2P+/UFT/wDBWMZ/ZVk/7Dtmf1x/Sov+CR+B+yveH08TXx/8hwVP/wAFYlP/AAynMcj5dcsx+pNdbPN/5eH4zSfNDJ9Cf0r+jv4Wjb8L/Bo9NFsv/RCV/OHJ8tvIf9k1/R78L8f8Kx8Hg/8AQGsv/RCVib1d0dRncvof8mv5/P2vH8z9qn4tH/qY7r/0LH9K/oC2t1PU1/P5+1wv/GVHxZH/AFMd2fzemvhZFHc8lFPpuMU6sTuBeM8ZHp/n2zWv4N8Xax8PfFGl+I/DuozaPrWmTCa2vbU7WjIz65yCDgjoQSCCCRWRik2jBHTIxn+lOLsxPXc/XH4Mf8FWvh3rnw6M3xIkfwx4tsINs9la20k0OoMB96AAHbux912GMgbmGa+Cv2uP2vPEn7VPjBLm5SbR/COnuW0jQ/MzsPTzpj/FKwHXooOAOpPgnXIyQM8DJOB+lNKc/Lx+dae0M404xd0C/MTx+mPw/Cl20baOKzuaCj5cn2r7T/4JIjP7Umre3hW7/wDSi1r4r28GvtP/AIJIn/jKTV/+xWu//Si2qo7mVT4WfsT3POP/ANZpCFYge/b/AD6ZpcYPIz1/nUV3cR2tvJPMwWKNNzknACg85PpV9ThPyZ/4K2fFz/hKPit4f+H1rLm08M2n2u8RT1u5wNpPqVjVf+/hr4MZhuJHSuz+L/xCuPix8UvF3jK4ZnfW9TnuU3HOyLdiOP8A4CgUVxbJjmplqzvguWOg4YwSegGT7D1pThepX/vodfr/AF6e9dF8OfAWsfE7xxonhXQIBcazq1yttao2doYnLO3XCqgZiQMgLx7/AKyeGf8AglD8IdP8Hppusz65q2vtCFm1qPUGg8uTA3GKJfkCqTwrhjjvRGN0E6kYH49DDKCOhGfT9P69KO3HXn+Ve3ftafswat+yz8Sv7CurhtU0PUYje6VqhTaZ4t21kcdPMTK7scfOK8T49PYj09qmSsbRfMrn1p/wTE+MD/DT9pa00C6nKaN4xgOlyLu2qLpSXtmx/eJBQf8AXQ1+x3ivwzYeNPC+qaBqsKz6bqltJaXKMM70kRgx/FefbFfzkaLr134W13Tdc06VrfUNKuYr63lXqkkbq6t+BFf0W/Dvxfa/EDwJ4a8T2fFrrOm2+oooPGJY1kA/DOPwxXTSldann4iLUro/nz+Lnwz1H4O/E3xL4K1NSLrRbx4FduPNhPzRSjOOHRlYf71ciMHk1+oX/BWb9nM6ro+l/GDRrZWuNNVNN15VXO+1LYhuG4/gdtpPoy9ccfl5yeT1wP8A9R/HP6VhOOt0dNOfNFI2fBfi7VPh94u0XxRoszQato13HfW7qcZeNgwU/wCycEH1Bx3r+gr4K/FbSPjV8LfD/jXRpA9lqdsruoP+pmHyyRN6Mrhgfp6Yr+d3nt1r6c/Yx/be1j9lXUrvTL6wm1/wNqMnnXNhDIBcWk2MG4ty3GSuAyHhsA5FOMtLMitBt3R+37fKwHvt+pxnA9a+cf24v2qrT9mX4R3FzYTRv411kPaaJasN2H2jfOw/uxhg3uSoxhiR4x4w/wCCvvwy0/Q5n8MeF/Eur6wUzb219BDa24YjgPIJXYDrnarZyRxwa/M/41/GzxV8ffiBfeL/ABferdajMPJgitwVgsoASVghUk7UG4+5JJJJOarRamMYNvU4m4uJrq5mnuJZLieVzJJNK253djuZie5JOST3JpF6E+lRZ3dBjPJFSZ2qWPAUFv0P+fwrPdncrI7z4I/CTUvjt8WPDngXSt3mardBLi4jGfs9svzzTfRUDEepwO4r+gDwf4W03wT4Z0jQNItltNK020itLSBBgJEihVH14wfcZPJNfGP/AATB/ZkPw4+Hs3xK1+1KeJ/FUIFmkyfPaafkMg/2TJhH4/hEfckD7qRRuOPXP5/5/PJ710x/dxsefWnzserbRXmX7S3xig+A/wAE/FnjSbbLcabZkWduxA826kOyFf8Avps/QGvTWynPpz9MZ5r80/8AgsB8VMR+Bvhva3PEjSa/qESnkqAY7fP/AAIzNj/ZFYp8z1FGPNofmpeXlxqF1cXd5M1zeXUjXE87nLSyOSzufqxNRBTQx3dv/wBXpT165OKzk22ehFaWDG5c9qZkN90g/Q5Nfbv7EX/BPuP4/eHz428c3V7pXhFnaLTrSxcJcXrq2Gl3FSFjBBUY5Y7vugAtu/tmf8E4LD4P+A7vx78PL/Ur/SNMHm6vpOoyLJLHESQZ4pFQEquQWUjOB1NUovqZ+1jex8Dlex611fwj+Jeo/Bj4neGvG+lFheaLepdbFOBPGOJIT7SKSntuzXJhQvGc9zjoTjBP44oY7VzjIHJ/z+Y/GkvdZrJKSsf0jeEfFVh438K6P4h0qYXOmaraRXltKpyGSRQwP155+la3518O/wDBJv4yDxp8EdR8CX1xv1PwfdlIVdvmNlMzPEfor+YvsNtfcf4Y+taSXU8zVOzELY9velU578jvSHtjFGD9KgB38RPekbO5BgEs2ORx/nGaPQd+9eIfthftDQfs1/BHWPE6vGddmX7Do9rIR++u5AQnHcIMyH2XHemld2GfAf8AwVQ/aaPjrx9b/C3QrstonhmVZ9VKHKXV/t+VDg8iJSRj++x/uivguNc4OSfXj9f5fnVi9ubnULy5urueS6uriV5pbiZsvLIxLMzE9SST19K9t/Y1/Z7b9o745aT4euY5D4bsV/tLXJk3LttEIPl7hgqZGKJwcgMxwSpFGsnZHYrU1c8g1jwzqvh8aadU06504ajZx6jZm5iZPPtnzsmTI+ZDtOCM9DVK3kktZYp4neGVG3LInyshx29DyPwPvX7wftLfsl+Ef2jvAMOi3ltDouo6VCU0XU7WEA6djACbVwGi+VQU4xtBGCMn8Z/jp+z740/Z48VNonjLSmtdxItNShzJa3qA8NFJ36j5SAwzznrRUi47DhUjLRn1p+zD/wAFTtW8E2dn4d+K1pd+ItLiCQw6/YANfxIBgCZSQJgOPm4bHXcTmvvfwP8AtefBnx9Zwz6T8RvDqSS/dtb6/js7nPfMMrK4/wC+cV+BbIB14OdvUfiORwfbrQ0KsvTK9P8AOc1KqWVmEsNF6o/oH8TftOfCTwfbSTat8SfCtsUBJjXV4JJfwRXLE+wFfGv7RH/BWbR7O1udJ+EOnSarfkGP/hINWhaOCL/biiPzO3XBYKBwfm5FfmB9nRUOF479cfrlacqAYHb6/wD1/wCVN1NNBxoJbmj4p8U6z428Qahruu6hPq+sahIZri9un3SyufUnjAHToAMDsKypFHHILYyOeT7/AOfQ163+z/8AszeOv2kvES6d4S0pvsEbgXmtXSlLO0XPO58ctwT5YyTjoOCP1O0f/gm/8K7T4Fz/AA/ls5LjUbw/aZfFOwfbxdY4mjz91RyPL6bSQclt1JJy3HOoo+6j8UMAkjr7dAfx/P8An6Z/Rn9iv/gpWfC9nYeA/ixdT3GlwKsGn+J2O57dAAFS6GPmQDA8zsAMjmvkP9pD9mnxf+zP4w/sbxLbebYXGW03WbdT9mvYwR93j5HGRmI8rnuCK8mXurA+h/z61Sk4sUoxqLQ/pT03VLHXdMttR065h1DTbpBJBcwOHSSMjsw4I5/z2+Of2jv+CZHgT4uXlzr3g6ePwH4kmOZEhgB0+5bOdzQggxkknJQ477SSSfzS+Bv7V/xO/Z5mH/CG+IpIdMZ/Ml0a+U3FlI3c7CcjPqrKffivt34cf8FhtOmhjj8d+AruzuAAHu/D84ljY/3vLkwVHtuY+9a80ZI5uSdPWJ5Xof8AwSd+LE3jCCz1jU9CsNAEoNxrNvctIfKHURxsgLNjpuP48V+pHwv+HOjfCHwDoXhDQIGt9H0m2WCBWOWfuzse7MxZj7knvXztof8AwVC+A+rRo8/iC90mc8lbrTZiw9jtjI/Wuntf+CgXwEu1Dj4gWKluokhlU/qtTFRjsTOU6nxHTftlWI1H9ln4oRMmR/YVww/4Cu7P/jtfgZH/AKrB4xwB7ZxX69/tR/t4fB7XPgj4z8O6F4pTWNY1fS7iwt4LeB2BaRCoJOOACR1/DNfkIvygjGMD+uayk7s6KEbKzP2T/wCCT6n/AIZDtM9P7cv/AP0Ja+g/2hoftfwH+IsRAO/w5qAOemPs714D/wAEpV/4xDsffW9QP/kRa+g/jwu74JePwOC3h7UB/wCS71vI5ftn88MLboUPqAf0p/Pp7VHakfZ4j1ygP6VNjnqQegx7kVzvRnpJ6Ia2FUsSMDvmui8K/Dfxb46Qv4b8K634gjB279L02a5Un0yimv0Z/Yd/4Ju6XNomm+Pvi1pv2y4u1E+neF7hQIoIjyklwMZdiMHZnAzzk8D9ELeTTfD1rHZWFvb2drGnlpb2sSxxqB0AUcAewFbKnpdnJPEWdon863ij4a+LvBOD4j8K63oCk43app01sM+mXUc+3WufX5sBRubGdo6/lX9It6tj4hs5LW9tYLy1ddj29yiyRMD1ypBB+h49a+Iv2rv+CaPhb4gaXe+IfhhZw+GPFMa+c2jQYjsL/HJVEHEEhOMMvHJyO4iUFuVGvfc/JU4bBHI6gjofp60jVb1TTbrSdSu7K9gktr23leOeGZdskbqSrKw7YIIxgdM96q4FZaHV0uhv8LHOAB1/T+v6V+i//BJjT/8AiT/EC/Kf6+/trfcVOBtjZuT0H+sr86vxxz+XvX0P+yH+11efsy6xd215po1fwlqVws97bwnZcwSBdnmxNnByoGUI52jHSri+hjUu4n7Z6f8AK+AVO0ivkv8A4Ktjd+yqrY+7r1n/ADavoH4P/F7wp8ZfCsHiDwlrUWr6e+ASuFkjfH3HTqjdevHBr58/4KqTA/stBCRka7aZH/fX68/54pq9zmh8SPx4kP7lvpn9K/eX9mP/AJN7+GnI/wCRb03P/gLHX4MyZMMg9sfpX7xfsu4k/Z1+GTE9fDenf+kyCpW6N62x+fH/AAVdYf8AC8PCPB/5F3/2u9fFOea+1v8Agq9n/hd3hDPT/hHeP/Ah/wDCvijHOKup0NKex7h+xiwP7QWkD/p0uv8A0XX6R6W3lsCV3DGBivza/YxG39oLSMjP+iXXQf8ATOv0k0khmQk4wOFA5qXoZy3Og5/55tRUmR/z2FFSSfUv868x/aewP2cfikScY8L6l/6TtXp36e9eY/tPLu/Zv+KYHfwvqQz/ANu701ucq3P57ofliUE54H8qm+8Dj0/pUMf+rQ+qg1KO/wBKUtz01sj9hv8Agkbk/sq3xx08S33/AKLgq1/wVjCn9lK5yemuWZ/XFVv+CR4/4xTvueviW+/9Agqx/wAFZP8Ak1O46D/id2Y/8eNdbR53/Lw/GWb/AFLj0GP61/R98L+Php4Q/wCwNZ/+iEr+cObHkOfX/Cv6OfhdJu+Gfg84ODo1lj/vwlYG1Q6z057iv5+/2ulx+1T8Wc/9DFc/+hV/QIv8H1Ffz9/tdHd+1R8Wsf8AQxXX/oVP7LIo7nkuPSpI1JYD1pgqRTtw3OQeMfzrA7jufFXwN8X+D/hn4T+IN9p+/wAJ+J0drK/t23rGyyOnly8fIx2Fh2K985A4I/iR06EV+5H7L/w60H4ofsI/D7wx4jsYtQ0XVfD8aXEEijkksQwxghwfmDDkEZHODX5W/tYfsn+If2W/HTWF6r3/AIWvXLaRrYQhJI+0UnZZFyM/3s59cbyhbY54VVJ2Z4TtzRt/AVIIyvVSBnbnHGfTPrVixsLjU9Qt7Kztpby9uJViitYF3SzOTgIoHO4kjGKxOi1tWR6fp11q19bWNlbS3d9dSrBBawIXklkY4CqB1J9K6f4qfCLxZ8E/FS+HPGmjy6JrDWsV6tvKytuikB2sGUkHlWU4PDKw6g1+qn7CH7B9r8D9MtfG3je1jvfH11FmG1dQ0elxt1UD/nqQcM3UYx3NeL/8FkNBtrTXvhZqqxr9suoNQtZJgMF1jNuyA/TzH/PpW3L7tznVT3+U/ORfpX2f/wAEmG2/tVaiB/F4XvB/5Htj/Svi8HP1IzX2d/wSaP8AxlbeD/qWLz/0dbVMdyqnws/Y7ufSvFP20PHT/Dn9l74i61FL5U40t7SJu4edlhVgfUGQGvauOfavin/grP4mOk/sy2+lqT/xOdbtbR1DYyqh5/yzCv5iq6nHHc/HmOPy4o0/uqAOMdqcqjcB6nFBxuPOT/Lt/SjbjPvxWXW56a2R9xf8Elfh2viT45a/4unhWW38N6WY4mb+C4uWZEYf9s45h/wIV+uceCV5GN2SB9Afzya+Df8AgkP4OTT/AIG+KvELxbbnVtdaESEcNDBBGEI+jyS195qu1gcDPUkDGf8AIxXRflWh5VTWWp8Wf8FYPh7H4k/ZutPEyQL9r8L6rFc+Z1IhmPkyqPYlo2x/sCvx9YbWIOM5GePYc1+/v7W3g9PHX7MvxK0Zo/NabRLiSNf9uNfMX/x5BX4AI5kiRiMEisnqjroN2F7Z565GPXBx9a/aj/gmD48/4TT9k3RLJ5Gmn8O393o8kjdwriVAPYJMij/dr8Vx19PSv03/AOCNfiiWTSPif4bkmxBb3NjqNvCzclpEljlYD6Qw5+tOna5eI2ufoh4r8L6Z418M6noGs2cd/pWpW0lpc20oyskbqQwP4Z/ECvwN/aa/Z91f9mv4t6r4Q1ESXFgv+laVqLDi8s2PyNnpuX7rAdCp5xgn+gduvIyvcZ689PpXiX7Vv7MWh/tPfDd9D1Bo7HXbQtPpGsrDl7WfqVIGSY3xhk5znOPlrWWuhx05crPwPwMkdxTlO3OPpXZ/F34P+LPgb4zu/C/jDSZNM1G3JKOAWguY+0sT9HXHf0XBweK4tuG2n73p/WuZrXU9JWlG4m0cdsdMZ/xpjLt9hT8CjaKQhFQ9cE/hX09+wj+yndftF/FCHUdWs5B4A8OzrcapcSIfLu5V+aO0H97cQC4HRfTcK5X9k79lbxB+1H48XTbEy6d4Z09hJrGtBMi3Tr5aZ4MrAHaei9Tnof23+GXw18O/CPwdpXhXwrpsWl6LpseyGKIEFycF3ZiSS75JZjkk85543px+0zmq1V8KOmt7ZbeOKNEEccahFjQABQOgwP8AP8hbVe46fWmw4bkDnoM+mf8ADFOX5VPpVVJcxxWBnDMoDHk44/L+tfgX+2V8T/8Ahbn7THjzXopN9jFff2bYgHKiCBRGCD6MQzf8CNft38cvHy/C/wCEPjDxW8qo+laXPPEzcDzdhEY+pYqPxr+dpHeRFeQlpG+dyxJJY8nPvzWWyOqitbiqtbPhHwzd+NfFmieHrBd17q19BZQ+zSSKmfpzz7ZrI2nnjP0+tfVX/BM/4fDxx+1Vot5JGstl4dtLjVpNwyN4HkxfiHl3D/cPpSjqzpnK0T9hPh74LsPh14L0PwxpUSwWGkWUVnCiDjai4z9T+p571s6tpNnr+j3unahbpdWN5C9vcQyLlZI2UqykehB/lVqJAqjAAB5wPoKlVR0PHf6+1bVJbWPMW7Z/On8VvAM/ws+J3izwfcbi+ialPaKz9ZIw58uT/gSFTXLL2/XB9wcV9jf8FUvh+fCf7Tya9DEy2vifSbe7aTHymeLMMg/BREfxr4547cVjJa3PTpvmWp9Nf8E5fiu3ws/ap8NwzTeXpXiZX0C5Rj8u6U7oCffzQo9gTX7g9sde4z3HrX81VjqV1omoWmp2MrW97Yzx3UEyfejkRg6sPcFRX9F/wz8ZQfEb4d+GPFdqNtvrWmW1+qg5A82NXI+oLEfhWid4nLWVpHT9vSm/xdKOaGPI49z7DuagxDlsgEjPGR24PNfiZ/wUS/aQT49fHCbTNKuPP8H+FDJYWG1spcSlsXMw9dzLsU/3V96/Q3/god+0f/woX4IT2elXRg8XeKg2maYyHDwRso8+cdxtQgA9mdfQ4/EhVxgY4xk+/GSx/WnsjenHW5MAZWRVQzzyMEWNVy0rE4AA9T0x9K/br9hD9mmP9nT4MWn9pQ7fGHiBU1LWJG+9GxBMdvk9o1ZgfV2c+lfA/wDwTN/Zx/4W/wDGAeNNZtfN8LeEHSdRIuUudQPzQRY7hMeYfdUHRsj71/aw/bo8Kfsuta6WLT/hKPGd4nmw6PBcCMQxEnbJPIASqkZwMEnHYYJ6KNoJtirSc3yRPp5QYmU8LtOVJ6cZH48d/wBKyfF/gnQfiF4fn0PxJo1nrukzj57PUIFlQ+5BHB64Iwfevykh/wCCwXxWjuC58IeDXtWJPlrDdK4UkfLuE+M8H5tv4V7X8N/+CwnhDWLqO38ceCNV8O+Y6p9s0mYX8SjuzAhHH0AcnnHTlSnzOxj7GcdTb+Kn/BI/wF4muZ77wN4k1DwVM5LLZzJ9utEPooZldR7bjXz5rH/BIv4uWtw403xP4S1KHPytNcXMLn3KmFv/AEI1+nnwu+OXw/8AjRpq3/grxXpviCLjfFbzqJ4s5wJIWIkQ8HhlHQ13EjDkAZP93GMfmOKnki0Uq04ux+Rmi/8ABIn4sXN1H/afiTwnp0WfmaGa4ncD1A8lfyyM19EfCX/gk38PfCFxBe+ONe1DxvcxNuNrGv2KyJ9GVCXYexfBr7o80bDycDk+3OM/rXkPxk/au+FnwHs5n8W+LrK0vEXK6bbN9ou5OeAsSZIJ5xuwOD0qeRIqVacj0jw74a0rwfotno+g6Za6PpdqPLhsdPhSKOMYyMKowM4Pb8uc6m3zc/IXDDnKnkenrj9eK+U/Dfxw+Mn7TNqLv4Y+E4fhv4Jn4j8XeNo/PuZ0/wCeltZK20+zO2059jXrHgr4Ax6LPHfeKPGXijx9rKyrcNNq2qvDaxygf8s7OApAq+xVj7+r5uiMvU6z4l/DHw18YPCN74a8W6PBrOk3Q+eG5X5g2OHVhgo47MpB9Sa/Ij9rT/gnj4p+At1d694VW48U+BiTJ5yJvu7FME4nCj5lAB+dRwASwHU/tBtw5d/mO7cxwP8AOPxNcf8AFrwVqXxB+G+veHNG16TwtqepWrW8GrW8Ima3ZuSQhIyMDHY9wQcGk0a06jgfzr7eB24zjv8AlSHBxkZ/AV638fv2ZfHn7NviIaZ4v00mzuGJs9atAWsr3OT8jYGxyBko+GHPbmvJGIyPzHuPWsbWZ3KXMroNueAST25o8tT2GPoP8KdGrNIsaL5jucLGDyx7DH1/nX214B/4JS/EnxZo9rqGseINF8Mm4jWVbVkkuHQEZwwUBQfxP+M2bLcoxep8RlfLDEBQPU9/ypF7ADHHTPHNfW37QH/BOPxr8Bvh3q/jSfxNomuaVpYja4ht45Y59ryLGCqlSp5cE/MOAetfJYXGSDkDn9Af609hxkpJ2P2b/wCCU6/8Yf6afXWtRP8A5FFfQPxzH/FmfH3p/YF8f/ID14B/wSn+b9j3S/8AsMaif/I1e/8AxzP/ABZfx5wfm8P6gMf9sGrpkeV9o/ncs+beP/dH8hX0f+wL8H7T40ftNeHtP1OD7Ro2jRya7fRsMq6wlRGpHcGZ4sg9RkV83Wbf6LH24H8hX6Ff8Ecre2k+JnxJuXVWuotLtI4s9SjTMXH0ykZ/4CKmKXNdnbJtQ0P1E1jUvsqmKPajtxgD7uF6Z/A/jXFXWvW9jM/2idUVRnc7ADvkE546D862dcnZJpQMkvuH5Zx+Jwfzr8q/+CkvxY1r/hYOm+CrLUprTSYLIXt3FbuUM8sjuAHIIOFC9O5Jp1ZORx0qfMz9StH1aG8ZXglUo43fKQwPGc9frW8brdGFZUzj5j94cjgdeev05HNfi/8AsW/thXnwH8ZJpfie7vL/AMD6kywzB5jI+nP/AAzx7v4M/eXOMN7V+oms/tVfCHw34fTVrz4j+GZLNYhKkdvqsM8jg/NtSJGLnntjjvisC5Qadj83v+Cn3gKz8L/tAw67ZQrAPEVis9ygGM3MR2SOfUkFMnuRnua+O+K98/bK/aSh/aQ+J0Go6XZy2XhzSbc2enLcj99KCQXkfn+IjgdgK8CUGjqdkL8uo/aO3XI4/HH9R+dJtI6Ag4wD0OfTmtvwX4XuvG3i7RPDlkA13q97DYxD/akcJz7Ddk9+K+7v2pP+CYN/4Vt5/EXwm+0axYQxg3Xh+4YPcqVABeFv4wQCdhII7bs8NK6uEpKLsfGfwZ+Nni34C+ME8Q+ENSewu14ngf5oblcj93KnRlPPHUdc5r6Y/ax/b10P9pj9nrS/DK6LeaJ4qj1SG7u7UsJbUoqOGMb8N94g4ZR9SevxncW0tpcy208MlvcRSmKSCZCro4/hZTyG4PB9KrtJnoWJPJ+bqPrRzD5U/eGvjY+PunI/Sv3a/ZRkLfs4/DIY/wCZc08c/wDXsn+NfhK3KnnP4exGP1r92v2U2Ef7OHwzHP8AyLunk4/69Yv8aI7mVbY+AP8Agq+u341+EOv/ACL3/td6+J/4j9a+2P8Agq8xb41+EATkDw8cc5/5bvXxP/EfrTqbo0p7Ht/7Gahv2gNJz0Wzuj1/6Z1+kGjtsmBIUtwQQc8/5NfnD+xjj/hfmmk9PsN32z/yzr9INHJMg4AHGNo9u9Te5nLc39kHo35UVJsX/nsn+fwopEn1N3615n+03/ybj8UTn/mWNR/9J3r0wce4968v/agbZ+zf8UT2/wCEZ1H/ANENVLc5Vufz4R/6mP2UD9KlHf6VDF/qk+g/kKmXn+VTLc9NbI/Yf/gkh/yanef9jLff+gwVZ/4KyLu/ZTn/AOw5Zn/x41W/4JIj/jFK7Pr4kvv/AEGCrH/BWXP/AAyrL/2HLP8A9CNdjPO/5eH40Sf6kg9h/wDWr+jj4XqV+Gng8Dto1l/6ISv5xpG/dMPav6Ovhnn/AIVt4RHb+x7PP/fhK53ua1DqlxuB755r+fv9robf2qfi0Dz/AMVHdf8AoVf0B4GB6D/Cv5+/2ufm/aq+LZH/AEMl3/6GaS+Fk0dzycYp/p9c/oajHFSbvlP+e1ZncfvJ+wrMT+yD8KT3GiRgH0wzD/GvS/iR8NvDfxa8H3vhfxTpMGraNeDEkE2chucOhHKOCchlII9a8x/YVj2/sg/Cn/sCof8Ax9692Hr37V1VGeV1Z+Wnj/8A4JBeK4fEkp8E+MNHvdCY5iGuCWG7hTPEbGKN1kAB+8AucdBX1D+yb+wF4S/ZvuIdf1O5HizxpswL6WILbWmfvLBGc7Tz98nPHbnP1Tz170bfTA9sVh1uayqSkrMVQynqCcYz/n/P8h+a/wDwWax9l+Dx/wCm+qD/AMdtK/SrsK/NT/gs5/x6/B//AK+NU/8AQbStt0FP4kfmbHn9K+zf+CTf/J113/2LF5/6Otq+Mo/l6+lfZn/BJlsftY3C/wB7wxej/wAjWxrKO511PhZ+yIQ9RzkY4Br82/8Agshr2zQfhdooYFbq8vLxlB5BiSBV/wDR5/Wv0kZRjIAzjcuc9eK/Jr/gsJ4gF58YPAejh2YWOjTXYBHA86bZkcf9O/8AKrOOnrLU+Cf4iDyQeaV87ePf+Rpq/XPenv8A6tz7f5/XFYdT0uh+4f8AwTt0D/hH/wBj/wAAR7NslzFdXTkfxeZdTMrf98lfyr6S9O/Feafs1aSug/s8/DOxCCNovDWnbl6YY20Zb/x4tXpq49c1vI8qWsilrlkmqaJqFlIu5Lm2khIPQhkII/I1/N3qmnvpGp32nyDElpcywsPTa5GPzBr+lH26Z6Z/z6Zr+eb9ofR08P8A7QHxM0xEZI7fxJfhAwwdpmYr+mKjozei9bHn3Tk19uf8Ej/ECad+0lrenSzeUmo+G7hIoz/y0mSe3Yfknm18R4r6O/4J364ND/bK+HLNny7qW7tHx/00s5lX/wAeK/lSjudFT3o6n7nN0Hbjpjkd/wCtICeMcEflTcHgMckLjPqeacM+lU9zzjj/AImfB/wZ8ZfDzaJ4z8PWWu6fnMYuI/3kB4+eJxho291I/nX43ft6fsu6J+y78S9D0zw1f317omtac19GNRZGkhkWQq6BkVQVxsIOM8nOetfuC33Tg9QR+lflz/wWXUf8Jp8KWAALafqKfgJIP6k04+8nc2pt8yPzqxhjTuqkeox7dMf1pqnOfrmn4wCawueikfrL/wAEg4Q37P8A4wc8lvFkyk/7ItLXAx9Sfzr7uVSeTy3c18J/8Ee2z+z94xU9R4snP52lrX3ev5fjiumT0seXL4mKo2jA9ac33umRTdw44zz1zQxLcZyOfwrNsk+O/wDgql40/wCEZ/ZSvNJBxN4i1S10/AODsVjOx+n7oD/gQr8apCSxOTjOBX6Pf8FivF6Sap8NPC8U53wRXepXEII6P5SRMfxSYfhX5vYxn86UtjupLQk9x1HI/I1+nX/BHvwOIfDHxF8XvGM3l7BpMLkchYkMjgexMyflX5i7tiMxOFHU49j/AEzX7af8E2/CaeFv2R/CUvleVc6vNd6lcD+8XndEYexjjjqqe1xVnpY+oFXvwB2AHapMds4U9fXrTQoHPSncH3pS3ONdj88/+CxXg0Xnw58A+K0jJl0zVpbFyv8AcuIgxz7boB/31X5ZHgkZye5/z2xiv3D/AOCjPg//AITD9kPxzsiEs+lxQ6lGdudvlTIXPt8m+vw82javcYH/AKCKctjrpPQRvunBwcY4PPUdP8+tftF/wS38eP4w/ZO0rT5Sz3HhvUbvSGLNklNwnTHPQLOFH+57V+L2dvNfo1/wRr8aLF4i+JXg2aYn7TBaatbQk8LsZ4pWHuTLB+VKm9LDr7XP1COVPrUF9fQafZ3F3dzJbWtvG00s0hwiIoJZm9goNTc+WCeDs3FfSvg//gqp+0d/wgvw4h+F+i3QXXPFMRfUGhkw9vYqw+U45HmsNv8Auq/qM1szkS5tEfn/APtfftDXP7Snxu1jxMjSR+H7X/QdDt3PKWiE7ZMdjI2XPpux2ryfw54c1Lxj4i0nw/oto9/q+rXUdlZWiH5nmkYKoB7cnr0A64FZ20MxYDAycDHbk/n7D61+h3/BJz9neTWtfv8A4wazZZsLASadoQlXIlnYbZ519Qg/dgjqWccFaIxdSXkdsv3cD7B0XSfDn7B/7I074imTw5prXd5IrbG1C/kxubOM/PKyqOPlUKvavxf1KPx18dvG2ta8dM1jxX4g1W4a6vHsbOSdt7HgBUU7VwAFXjAGB0r+grxs3hxfDN2/iv8AssaCMPOdY8r7NwdyljL8v3gGx6jPevM7b9qL4DaDIlhb/EfwXpirhRHb6lbpGM9/kIUfn2reavoclKry3dj8U9Q/Zp+Lul2purr4YeMIrcLvaVtDuQqj/vjgCvPri1lsbp7a6hktrlDhoLmMxsv1VgD/AFr+jbwn458L+N7Nrjw34g0rX7XH+t0y8imXB75UnH41m/ET4KeBPi5p8lj4w8K6Tr0eDHuu7YNInTlXHzIenKkHgc1lyG0cU4v3kfzxaNrGoeH76LUdIvLrSr2E5ivLKZ4ZU+joQV/Pn3r3fw7/AMFAPj94ZsYrW2+Il3e28a7EXUrW3u3x/wBdZY2cn6tX178cv+CROn3ZuNS+FXiJtOuCSw0XXj50R7hY51XcvfhlY+rcV+e3xO+DfjH4N+JH0Pxp4fvND1LJMf2hQUuAP4opFyki+6k9ecYOM3dG3NCpsdR47/a/+NPxEhmTW/iTrrWzIQ8NlP8AZIyvAwVhCZ7dc9frX2F+wB/wT9tdes9O+K3xQsjdxXB+06JoN6u8SL1S4uAfvgn5lQ8Hqc8V85/sLfs4L+0B8brK31KBp/CmhhdT1VhykyqwMUP/AG0bGQcZRX9Vz+4FvGtpEiRIqKoEaJGNoAAwAAOMe3A7elaU05K7OatJRfLEnZo7W2dmZYo4lOSQAqKAOSxwAAO/T8q+Xfi1/wAFKvgp8K9Sn01NXvvFeowtteHw7Atwqt0IMrMqE/RjjFfFf/BQj9tvVfiR4m1P4ceC9TksvBekzG11C8spSj6ncLw6hwc+UhyMdGJOQcCvhsKD2UKoz8oOFxnsMf5NEpcug6dFyXNI/W7T/wDgr78Kri/SK88KeL7OIttM/wBntZNo7sVFxnA9gT7V9WfCL47eAfj1obap4H8SWetwqB58IylzADniWBsSIMg8kAHHBODX88rNw21M4+9tGQD7joDz36V03w3+I3iT4S+LbPxL4S1ObSNYtWDpJG3ySrkZSVOjxnptb6gcVPN3G6d17p/Qr458CeHvib4XvvDvibS7bWNG1CPbNb3KhgxPAYEcqw4IcYIKgg5HH4k/tlfsp337L3xIFgkkt94T1RWudI1CQc+WCA0MmBjehK5I6hgcda/XD9lH9orTf2mPhPY+KbVBZarFIbPV9PD7vs10oycdyrDayk9Q2O1Y/wC298Fbf43fs7+ItNjtkfWtNt21XSpAPnS4iBYqPZ13IR/tZ7VUlzK5FOThLlZ+EjKY+fmUjn3U8EH6jP4decYr92/2Lvj5D+0L8BtH1udgNc08f2brEYILC6jVRu+jqVcf7+O1fhLJksc7l56E989/x5/KvuH/AIJL/EiTwz8b9d8HzTbdP8RaW80UJbP+k253oAP+ubS89eAOgqIys7M2rRvG591/8FAEA/Y/+JuQCwsoec+lzFX4Z4H3Rxxj8q/cf/goE4X9kD4lKDkmyiH4m6ir8Nw3zZ9ef0pStcdG8Ys/Z3/glQP+MOtI7Z1fUDn/ALbV9A/HZgPgz49Zj/zAL88dP9Q9fP8A/wAEqf8AkzvRR2/tbUP/AEca9/8Ajv8A8kX8e4OAfD9+B/34atmcn2z+da2+W1j5zwP5CvrP/gmX8Urf4b/tPWNlfOsdn4ps5NG3u21VmLJLD+LNFsH/AF096+T7bm2i5z8oP6Cp7e6n066gu7WZ7e7t5FlhmjO142UhlZT2IIBB9RWX2j0HG8bH9G99ai5LBgzBhuHqOCMg/nX5kf8ABTv9n/WU8Saf8TNMtpLvSPsken6n5aDNmyOxSV/9hg5BY8AgZ6jP1h+xR+1jpf7S3gGO1vZktPHmjwiPVtP3ANNgYFxGM8q4GTjocj0J+jLvT7fULea3uII7m3lXa6SpuWRSMEMpHIPvxwRzWko30Rxwk6b1P5xFjclflZdy91x/nsfxFCxiPO0gLj7oYc/0/DFftr40/wCCdfwK8b3Et3J4SOgXUzZebQbuSzQ98iEExg89AmPzrnNN/wCCW/wM0ubzJoPEOpquT5N5qpVMY9Y1T+dR7N7HT7aFr21Pxr8srkj5h7DApyIW6DnGcV9Y/wDBQb4N/DL4J+PfD+ieAY2sr5rNpNVsftUk/lcp5RJdiQTmTv2r5SViuT09/wAQazlpobRkpK59T/8ABNb4bt48/ai0i/kjDWPhu3m1SUsPl8zb5UQ+u+XcP+uZ9Of2ZtWDRlj3OPlOMEgdD/nrX5Zf8E6fjZ8JvgL4F8U3/i/xTBpPibXNQWA27Ws0rxWsKgoSUQgBnkk78hR+H6DfD/8AaI+GfxIkSHwz440LVrgpv+xw3sYnx6+WSG/DFawslY4aycmee/tS/sM+CP2jbO51GKGLwv43VP3OuWcIxMR0juIxgSIcdfvDGQT0r8fvjP8ABnxT8CfG1x4Y8W6e1pfR5eKdctDdR9pInwNyn3AI6EdCf6DGm8tOu5yMrlTnnocdf09a/O7/AIK7afFP4N8AXhjUXEeqTwhgeURoclR7EqpzVNJjpyd0j8yWHyP/ALuf0zX7rfsrnd+zn8NcDn/hHNPH/krF/hX4VSf6lsdwf5Gv3Y/ZbX/jHX4aEcD/AIR3Tv1tIj/WsI7m9XY/P7/gq5gfGzwgecnw8x/8jvXxT97Nfav/AAVa5+NnhAA5x4dP/o96+Kl4JqpdDSn8J7l+xaf+L+ab/wBeN13x/CK/SLSeJVAGcn1z3OP6V+bv7F3Hx903pn7DdDn/AHBX6P6UoWVcEgbsdPc9KmWhlLc6jzovWL9f8KKPM/6YR/nRSJPqHrXl37Un/JtnxS5/5lnUP/RDV6j0brXl37U3y/s1fFI4/wCZZ1Hp/wBcGpo5Vufz5Rj9yn+6P5CpV+Xmoof9TH/uj+QqU1L3PTXQ/Yj/AIJIj/jFG49/El9/6DDU3/BWTn9lOc+mt2Z/8eNRf8Ej/wDk1OYf9TJff+gw1L/wVi/5NRuPfWrMf+PGu1nnf8vD8ZpF+Vq/o8+GY/4tv4S/7A9n/wCiEr+cSQ4jZu3X/P5V/R78NRj4ceEh6aPZ/wDolK5ma1Dpf4a/n7/a4I/4al+LJ/6mS8/9GGv6AjyPwr+fn9rI7/2oviyR/wBDLejn/roaF8LJo7nlY+YVJtOD+X6VGtTD7rfTNQdrP3i/YaH/ABiD8KM/9ASL9WY/1r3PPOP614j+xLH5f7IvwmH/AFALc/mCf617cPvZxW9Rnlrdhnv+HWj3o7AcDnNJ3x3zWRQ4t0r81f8Ags3za/B//rvqn/oNpX6U4PSvzV/4LNcWvwfH/Txqn/oNpVxd0yoP3kfmaPu59sV9k/8ABJ1sftaS/wDYtXv/AKMt6+Nk5Uj6Gvsn/gk+D/w1lKe3/CNX3/oyCohudtT4T9lQxXHPzDAH4df0Br8Zf+CrWsLqf7VwtRK0n9n6BaW21ui5aWT+Ugr9mmG0kk468+nf+mPxr8Rf+Cmly1x+2V4pRhjydP09OmCc2yNk/wDfX6Vb2OSl8R8uKMflUjcrgcknGPzpg6D6VqeHbX+0PEejWuM+ffwRf99SAf1rLqdsnof0YeGdHXQfDmk6YmCtjaRWwx0+RAv5cVrbc9cDFIy7ZD2GeP5/yIp3B962l0PMvrcRsrz14/LjrX4N/t3aQND/AGwvihbgECS/huQP+utvFJn8d2fxr95WUckD65r8Rf8Agplpyaf+2V4vdGZjeWlhcEsMdLZI+PwjFQvhZtS+Kx8vCvUf2WdTfR/2mPhVdI/lkeJ9OjZv9l7mNG/8dY15ctb/AIB1M6F4+8L6n5nlGx1W1ud/90JMrZ/DAqU9Tslsf0dfxE0o54zikLAtweO35mnAe9ayPN6isDtx04r8tf8Agsq2fHPwpX/qHagfzkh/wr9SWboPrX5af8FlmH/CefCkf9Q2/wD/AEZDShszSHxI/O5TUn3s49KiXkVKvGawPRT0P1k/4I85PwF8a/8AY1y/+kltX3njHuDXwb/wR5+X4C+Nl/6mqX/0ktq+9Fxg+3610S2PMl8VxnQYxilH3h169Afx/pSt24xTfQk42nIPvg1nuI/Fr/gp94sPiT9rLVrBgpXQdMstPVl7hozcfzuDXyWRXrf7WniR/Fn7T3xS1F23f8T64tUYdDHA3kJ/47GK8lpSPRgkkLtJwFGWz8v16Afjmv6I/g74R/4V/wDCjwb4bbaZNJ0e0snKjgskKhj+Jyfxr8E/gf4bj8afGrwBoMqGSHUtfsLWVf8AYe4QN+hNf0OqO3X8Oaqn8LOes9R2725p3bPT6UdwB09aO/AzQc5yfxa8Jp48+Fni7w66Bl1bSrmxPP8Az0jKfzP6V/OfGGSMRyLtZCVI75HBr+ltlDEDrz2/lX86fxk8NDwZ8YvHmgiNol07Xb2BFb+4JmCfhjFG6dzai9bHJfer6w/4Je+LJPDP7YOg2CkCHxDpt9pcpP8AdEX2kf8Aj9sg/Gvk4cV65+yPrj+G/wBqP4UX6P5Z/wCEksrVm/2ZpVhb8NrminudFRc0WfvJ448Z6V8PfB+s+J9cuPsuk6TaSXt1J/cjRMnHqSeAO5YV/Pr8Z/i3rXxw+J3iHxvrp23urXBkSEElbaFfljhTP8KqoH1ye9fq5/wVT8WXGifssT6dbuU/tzWrOwmKnGY13TEe4JiHFfjbnqeoJ6k5z3B/XH4VcrPRGNGNkpM7T4O/C3V/jZ8SvD3gnQo2GoaxcrD5yrkQRD5pZj7IgZscdBz2P75eC/Bui/Bn4aaZ4d0K0K6NoFh5MEMaFpJfLUksAOXdyCTj7xZj6g/mB/wSP1HwtY/GvxPFqdxFB4qu9KEGjCcj95Hv3XKID1fCwnjnar9s1+tkig/JhkGT1H1xj9P5+hrel7sXYxrSbZ+CP7TX7SnjT9o7x7qeoeILu4s9IineKw8PxuRFaRq2ArL/ABPxliwySegACjxlMRqAo2c/Qe5wOlfvR8Tf2OfhD8XtcfWPE/gizutUfPmXlu8lrLJz1YxsobgDk5PXmuctf+CevwAhi8kfDuzZWG0vJdTs4PYhjIefwrCzk9zeNaEUlY/E/wAK+LNa8D61Bqvh3Vr7w/qsJBW60+d4ZUOeQSp56Dg5HPev1r/4J7/tyah8fmufA/jcxf8ACZafaG6tr+JVQajAhAfKDAEiAqTtGCCTgY5/LT41eBk+Gfxc8YeFIi5t9H1W4s4S7FiY1chCSTz8m2vSP2Edbl0H9rv4X3EJwZdUNo3+7NDJET+Aeou1I0qJTjzJH7xt95RgZzzn+X1rj/ih8I/Cvxl8K3Hh3xfo9trWmSjgTLiSFsEB4nHMbj+8pHUjHJrrF4IwMAAd/wDOec8+9ePfEz9sD4Q/B3xNceH/ABf40tdI1mBY3ms2hlkeNXUMpIRD1BFavc4Fe+g39mX9l/w9+y/4T1PQ9EvbrVpNRvnu59QvlVZnXGIYm28YQdwACSzYG7A1v2m/Hk/wv+APj3xPaEJd6bo1xJbt6TEbY/wDMp/Ct/4X/GTwT8aNBl1nwT4is/EGnwyeVNJbFg0LejowDL7ZHPOOhrnf2nvANz8UPgB4+8L2ab73UdKnS2Qn706DcgPtuUULyBay1P59dpHDPuYY3Me5PJJP1NfY/wDwTx/ZA0j9ozXNY8SeMFkl8GaBMtuunxMVOoXhUPsZh0RFI3DqfMXnGa+OW37tkg2yKSrq3YgYwffI/Svr/wD4J5/tf6X+znr+reG/F3mJ4N12WOf7ZFGXNjdqAnmsq5JRkChiAcbBxzURs5e8dtS/J7p9/wDxl/4J8/CD4neC7jTtH8KaX4O1qOErpusaTbCF4JAPkMgX76dirA+uc9fxP1zRrrwzr2paNfp5N/pt3LaXMS9EljYqy47nI657+1fsX8bP+Clnwm8A+DZ5/COtQ+OfE00RFjY6cGMSuScNNJwqqO45PtX44arqV3r+tahql7N9qv7+5luribpvkkYu7fmTVVGmiKF9bn3P/wAEifGl1pnxu8UeFvNKadq+h/bPLZiR9ot5own/AJDlkGevAr9XrqNWhAZfkZRuzzwRyPyP6V+U/wDwSH8A3erfGDxT4yMR/s3RtINh5h6G4uJFIA7HCRP/AN9L2Oa/VHW5kt7GfLmMKMM2cYBIBP8A3zu/KlTbs7mVTWdkfzy/Frw/H4W+K3jLR4kKQ2Os3cEa+iiVto/AYr0/9hTV5dF/a4+GVxDjc+pNa89MSwSxH9HP6V5l8WvEcfjD4q+MddgfzIdS1i7uo29UaVtv/juPzr0X9iGze+/ay+GkaLuKaoZz/wBs4ZJP/Zawludcr8p+pv7fjK37IfxHAPAs7cgnqf8ASYq/D3uD6AZ/Kv24/b2bb+yH8RR1AsoAPwuo8foBX4jyEjgjtjj6Yq+wU/hZ+z//AASr4/Y70b/sK6gf/I5r3/47gf8AClfHhP8A0AL/AP8ARDV4D/wSt+X9jzRh6arqGf8Av8a99+PBH/ClfHn/AGAL4/8AkB617nF9rQ/nctI9tvGOvyqP0qzNBJBGkjq0aOMozrhHAOCQTwQDkZ7H61FasFjQ85wOnpgV+s3wQ/ZX8GfG79iv4d6PrtisN1Jpsl1a6paqFu7aWSV5N6sR8wO5cqRggCotzM7+blSPyv8ABvjDXfhz4ms9f8OandaRq9m26G4gfawGejDuCOx7e3X9CvhD/wAFcWWzt7P4k+FJHukUCTVdCGRI3Te0LMMHgZIY57AYxXy5+0H+xj8Qf2f72ee/019b8MqT5ev6XEz2+P8ApquN0LcjhuDzgnBx4JlSCQN+OegPH1p88loDjGWrP2Hb/gqh8FjDJILvVjPsB8tNPlDMe46bR+deE/Gn/grHc6tp01j8OPD1xYSygx/2rrWCyD+9HGCRu9CTx6HNfni8eCwxjBxg5x9RTNoXjAH0AqXUvoR7ON7mh4g8Sap4u1q71jWb+bUtUvHMs91cNud2J6k/5HtWfuP4d8/yowO/AHJPoPX/AD61Pp+nXWq6hbWNlbS3l9dSLDb2kCl5JpGICoqjkk54Hfp1wKjc00jqQ+XuwxyQvA3DPHuaRf3LK0R8p1O5WU4KsOhBHI/Ovtv4a/8ABJ/4peMtFt9Q8S6vo3gt5k8xbC633N0mfu71TCL9NxPYgEYrO+JX/BK74weB9Lm1DRbnRvG0MXLW2mSvFdkeojkUK3+6rFj2Bq1GW4vaQbszj/2ef29/iT8E9RtLPUtRufGXhTftfS9UuC8yg9TFOcup9ASRxjivUP29v2ivBv7QXwd8C6l4Uvt00WryfatOuBsubY+SeHTPAznB6HB5r4f1DTbvR9Rn0+/tbjT7+3kMNxa3UZilhcdVdWGQRjkVVJDbWIznt046fXpng+tK76goq90Nkb9yfUDmv3Y/ZV/efs5/DTJIH/CO6bx/25xV+E7Z8kj/AGRn69/5V+7f7KX/ACbh8MSMc+HNOPP/AF6RURM6x+fv/BVzK/HDwkCMAeHeP/Ah/wDCvir+I+xr7V/4KwKB8cvCfOSfDo/9HyV8VfxN9acjWn8J7f8AsY4/4X5p2c4FjdHj/cFfpHpefMwSuBk81+cH7Fq/8X6sumfsF11/3RX6O6WTHcEMAdx/zipeplLc6DzP9qinbU/55v8AlRSJPqbHQ9+9eXftUDd+zX8Uhkg/8IxqP/ohq9SzXlv7VHy/s1fFI/8AUs6gPzgamjlW5/PnC26GP/dA/QVLmooeI1/3R/KpT3+lRLc9OOyP2I/4JHt/xinMe3/CSXx/8dhqX/grD/yalP7a3Z/+hGov+CSmF/ZPm/7GO+/9BhqT/grED/wylc/9hyz/AJ5rtPN/5eH40zDFuw+o/Sv6Pvhv/wAk78Jj/qEWn/ola/nBl/1Lntyf0r+j74cqR8O/Cn/YItB/5BWsepvV6HR7a/n6/a0XZ+1N8Wl/6mW8P/kQ1/QLu4GfUV/Pv+1fJ5n7UfxbOef+Envh+UpH+NJbMijueWrUhPyt61GtSEfK30rM7HsfvZ+xX/yaX8JfT/hHrX/0Gva1BrxP9ik/8Yk/Cbj/AJl62H5Liva1471rUPMjuwbGQaQ8n+VKxpAORWaKHbto561+af8AwWc/49/g7/131X/0G0r9K2Ffmn/wWcIFv8HTn/ltqx/8dtK0hsyo7n5oJ/QV9k/8Enz/AMZXTf8AYtXx/wDIlvXxuqkcfh/SvsL/AIJUSeV+1vbg9JPD9+v1x5Rx+lRDc7KnwH7MzfebHPB4/rX4b/8ABRyZp/20PiBulEojSwjHsPsUJx+tfuOx2qCTgYxu/wCAn/P41+Fv/BQ/j9s74lZXbiSxG3v/AMeMFW9jlo7nzx2FdT8Krf7d8WPAlr2uPEGnw89PmuUHNcsvtXbfBCEyfG74bjj/AJGfS/8A0qj/AM/hUR3R1zfus/oib/WMeufWnelR87iSMd/z5qSqkzzkOXOT7g9/Wvxr/wCCssBh/awtn3Z8/wAM2cp47iWdf5KK/ZPPI571+PH/AAVyj2/tRaLJ0EnhS1x9PtNxz9OacdjWm/eR8V4/wpJnMcbNkjAycdeopV+bkdDyP5f0pLhM28hP92sutjuex/SrDJ50aP13qG9hkZ4qbG4jtWT4Xm+1eG9ImPJks4HJ+sSn+ta+MD37VrLoeb1CRuMd6/LH/gsv/wAlC+FYBz/xLL7/ANGRV+ppO0dM/wCcf1r8tP8AgsrGR45+FExGFbTtQXP0khJ/Q0U9mXD4j87lHFSN90jueKYv0/z1qTaWHAye31wT/Sse56HQ/WL/AII8sG+AvjX/ALGqX/0ktq+9V498dK+Cv+CPsLx/AfxoxHyP4ncqfX/RbfNfeq8jNbS2POl8QjdyTTWYIN+7AAJJ9OKe3buKyvFV7/Z3hvVrwcfZbSWcf8BQn8qiO5J/Oh4s1V9c8Xa9qUsnnS3moXFw0n9/dKxz+tZNR2//AB7oeuRn6H0/z61KO59BmpluenHZH0N/wT98Pp4j/a++HVvKpMUFzcXjEdjFaTyKf++lWv3RGPMJU89Otfjj/wAEpdEGp/tTTXDg50/w9e3CEc4Jkih3flIwr9j1w2frkcewrSPwnDVk+YVhhcDkfWmhvTgin8cUmzqaRkN+7ggZAI746kV+Ev7f2gxeG/2xfiRaw5KTS2t4Ce5ltYnb/wAeZq/dvlWGMZzj/P44r8Zf+CrWjjS/2tHuwABqPh6zuSQPvFWki/P92Pypx2ZpTdpaHx7nIFa3hXXpPC3izQdbiJEumahb3qY67o5Vcf8AoNZTLj+VOaMSRuDwMHn3wf8A69Zp2Z3NXiz9w/2+Pg3ffHL9nPWLPRITd6xp8sWs2FvEMmd4wdyL6sYmkwO5GK/Dzy8/wkN02Y5BzyPw6fga/oe+BeszeJfgl8PdWnbM9/4b065kLDOWe1iZs8+pb/OQfl79q7/gmb4f+MurX3ivwJeW3hHxVdEyXVpNETYXr5zvYLzHIecsoOSckZyTs49UclKpy6PY/IfT766026t76yuZbO6gkEkNzAxV43XurDowOOe3Wvqz4f8A/BT745+BtOSxvdQ0fxhCgVUk1+wLTKoGMeZC8ZYnqWfcxPevM/ih+xx8YvhHcXJ17wFqkllDktqelwteWpUDOTJHnAxk/MAa8ZPysVZSrKcMrDBU9wR2IqbuJ0+7Jn3bD/wV8+JwUCXwZ4Qk/wB1Lpf5zGrif8FgPH+35vAPhcnr8styOf8AvuvgenL3rO4exgdH8T/Ht58VPiJ4j8X38ENpea1fS30sEAOyNnbO0E8kAYHPpXof7F6eb+1h8Kk/6jsDe/AY14uQK6X4Y/EDUPhP8RPDvjHSoYbnUNFvEvIYbnd5bsvZtpBxgmmt9S5L3bI/ovaQoxOMhRnp1wen6GvxS/4KdaOdK/a+1yfDL/aGmWN2u5s5Hl+XjI5x+7/MV6vZf8FgvGa4+1/DvQ5sNu/0e8miwcjOMhsd/wA6+X/2oP2ibz9pz4iWfiy+0OHQJ7fTo9P+zQXJnVgryPu3FVOSZD+VW5XOWnBp3kenf8E5f2goPgf8eotO1S4+zeGvFYTTbl3bCQ3G7NvO30YvGSeMS57V+1bR7SyAf7O5uvqB/wCg/hX80jKeu4qezKcEf/W9q/V79gb/AIKAab420fTPh18SdTWw8UWqLb6drN5IFj1CMcIkjk4EwG1cn7/1q6bTVmTWi09Dw/8A4KFfsPav8P8Axbq/xJ8Faa9/4N1SQ3epWNlHufSrhjmR9oH+pYktu6KdwOBtz8LRqNuc7lzgMhyD/wAC6V/SrIEkBikAZDwytgggg5BH9R+fWvmr4sf8E4/gt8WNQl1JtDm8K6pMcyXXh6QWock/eMZUoT15CjOTTlTvsVCso6SPxD2FfmxgFtxbAH1A6ZH5/hXc/Br4J+L/AI8+Lrfw54N0uTUbp3AmunBW3tV5/eSyYwq4zjjJ5ABr9TfDv/BJn4OaTeLcanqHibxAitzbXN5HEjc/xGGJW/EMO9fVfgP4X+FvhZoKaL4R0Gx8OaWnWGxhCOw7s7clye5bJPrWapSehTxEYr3Ucd+zb8AdE/Zv+F+neENGIupoibnUdR8va17dMB5kxHpkYAGcKoHY15F/wUG/aCi+DPwbvbGxu/J8R65C2nafGrZKhyPNl/BWH4kV67+0D+0Z4Q/Zz8Iza34lvlSZkzaWETYuLiTGAEXP0HYAH8/xH/aB+PfiH9oTx/eeKNcYRK37qz09GzFZwg8Io9fVu5+lVK0djOnFzfMzzZcK2BwM45Pfp/ICvrz/AIJfeCW8TftKnW2jb7P4d0y4uTJj5Vlk/cIPqQ0uP9018g7xGpPGFHyjGSehx+Nfsh/wTp/Z5ufg/wDBOLVtVg8nxF4rdNTuI5BtaC3AxbxHI4+UlyD3c1ludNWVlZHT/t7J/wAYh/EjuRZwEj63UQ/rX4kyLuZsV+2f/BQ2ddP/AGQviI2cB4baLkd2vYQB+o/OvxNOFkYD5ueg/D/Gh76Chsfs1/wSu+b9j/Sgen9r6gP/ACNXv3x6yfgp48OcKvh++/8ARD14H/wSxXb+x7o5/vatqDD3HnHBr6a8c6CPFXgnXdGIBGoWE9oQTjh4yv8AUVscf2j+b6H/AFK5O1doJOcY+UHn8M/lX7Q/8E+Pibovjj9mvwrpVpeRPrPh+E6bf2BYeZCUY+WxU4yDHtIYHHJr8b9W0W88PaxfaXeQPb6hp88ltPCyElJUcqykdxx/KrHh/wATav4Rv/t+gave6PfKvlrdWNw8MoXjA3KQfw98Z4qb8rOuUHJH9ErRpMsiJiSJsqwYZDeoxjkfXIrxzx5+yB8H/iK0kusfD/RhcSE77uxt/skxYjkl4Qp7da/IrT/2vfjVpgVYPib4kKpwPNvmlP5vuP4Vbm/bT+OU0ZVvibr2G6+XOqNj/eVQRS9ojL2clqTftk/Cvw58E/2gNf8ACHhcTx6XZw20nk3EzTNFJJCrsm9iScAjv3rw9m5q94g8Rar4s1i61bWtSudW1S6ffcXl5IZZpWwACzk5PAA/CqKrxk1k97nVHYcuRlhwRz+h/riv02/4JX/sxxaXpU/xi8QWmb28D2nh1ZVB8uHdsluRkH5nYFQf7obsxr4O+APwbv8A48fFrQPBdiHVLyffe3Cf8u9onzTS57YUYH+0Vr98vC/h/T/CPh7TtF0i3Wz03TbdLWCGFRiNEXaFHbOBjr6+ldVC3xM5cRL7KHeIvGWgeC7eKfxBrenaJBNJ5azaleR26u/XALsMntjnp1NaVjqdpqlvDPazw3VrMA8UkLK6SoQejDsfY1+I/wDwUa+J138Q/wBpzxJY/a/N0vw2U0uwhByluyKBMV7EmXfk9eBnGK9q/wCCUfxq1Wx8ReI/AV/dzXGiNbDUbOCRywtWVgJNmTwG3LxjtUynrcx9k+W59Ff8FEv2SNL+L/gHUfH2g2EcXjrQbVppmijAbUrRBl4pMdWUDcrdiuOAePx4bBOVJI6ZPJ44yfc8H8a/o81Rop7K5SVVkgdHVw3R1IbI+hHH41/O542sYdP8Z69a2+PIg1C4jjwMfKJDgfh0/Cs5HVh78ruYciny2+lfu3+yjj/hm34YdCP+Ea03/wBJYq/CeTiFz22n+Vfuh+yXIH/Zt+GPXjw5pw/K1joiFY+BP+CsDbvjj4RAGB/wjikf+BEgr4p/iP1r7Y/4KwKf+F5eEBkceGl/9KZD/Wvif+L8T/M0SNafwnun7FuP+F8WQOcHT7rp/uiv0f0ra0wAJPPGeCK/N79i/P8AwvzTuT/x4XQ64/gFfo9pa7pBk7cnIwcmpMpbnQ7v+un50U7n1P5UUiT6m9K8u/ap5/Zp+KX/AGLV+f8AyA1epHqD3ry79qb5v2afij/2LOof+iGprc5Vufz5Q8xqfYfyqVs4qG3/ANUn+6P5Cpj2HrSa1PTjsj9hv+CSf/Jp8/8A2Md//wCgQ1Z/4KwD/jFG6Pprdkf1xVb/AIJKf8mn3A/6mO/H/jsJq1/wVg/5NPux/wBRuyH6k119Dzf+Xh+Mkn/HvIPYiv6QPhy274d+FD/1CbQ/+QUr+cBuY3H+elf0e/DXn4c+EvfSLT/0SlYx3N63Q6PhSC2dvt/Kvww/4KAfCzVfhn+1J4zlvbeRdO8Q3R1rT7o8pcJKAZdp7lJN6kdj9RX7o+gIyO4z+n5Zrh/it8D/AAR8cvDy6L448P2uu2KMXj8zdHJEx6sjqQyZwMgHBxzRFXTRhCXKz+dyMjBb+H+92/PpWhpljPql9bWdlA97eXMqw29rbjzJJpGO1I0UcszMwAA7mv2Juv8AglP8CLi8adIfEltuP3IdXJA+m5Sf1r0n4NfsR/CP4E60mteG/DslzrcSlItQ1e5e6kjBGG2huFJBIyoB7dKOQ3lWVtDsf2cfAd/8M/gH8P8AwtqiCLU9J0S1tryJW3COcRL5i5HBw2RXpCt9fzqNVK9WBHTpj8ev+f5SLjoKmT1OUG5/+uaQHrQ3DDn8KCO/SpGBORXwN/wV2+GOq+Kfhb4O8WaZbSXVt4ZvrgX4jUsYobhEXzSP7oaNQT23D8PvlVLVDd2UGoW0lvdQx3FtKrRyQypuV1IwQwPDLgnKkYPHpVRdmNSs7n81MZ+4OCWAAxjOeePrkH8q+8f+CSfwz1vVPjVqXj77DNH4a0vSZ7RdQdCI5bmV0AjQ4+ZgqyEgfd4zjIr78uv2I/gPeao2pTfC3w/9qLZ2JCyQn6xKwTnjI289817Boeg6b4Z02207SLG00vT7ZNkFrYwLBFEPRVX5R6cDvV2XQ0lVclYvou3A6dsg9uB+uP1r8sf+Cnf7JPiq4+Jd18WPC+mza3pGpwQx6tb2cZea0lijEYlKgZaMoq/MOhU5xkZ/U/PXPt0HT2/D1okO5SCoK4weAf5igiMuV3R/NDHJtYI/yuRna3B64719c/sHfsp+L/il8XPDPi270e80rwZoF7Dqs2q3kLRJO8Lh44odw/eFmUA44A6nkZ/ZX+wdKNwbk6bZm4Y5M32dN/4nH8sfSr20bVx95clQBgD+eKW2po6zkrCbQjcAqP7uP1z/AJ6U9eaaqiPAwOfTvTlwvI61O5iDA9sZ/wA/1xXwj/wU0/ZH8Q/Giz0Tx14NtjqmtaFavZ3elxj99c2u4urRf3nRmb5ep3cdK+7++TTW9Q2G7EdR+h/z3FNDUrao/m11Dw3rGh3r2mo6RqFjeL9+C7tnilB/2lYAg+1e5fs1/sa+Pv2hvFmnW6aHqOi+E2kU6hr19bPBCtvn51iLL+8cqGwFyM4yVyK/dkEp3OO3J/POaayiThsMM5+7g9v/AK9Ky3NPbStYjs7eKztYYIV2wxoqIAMcAAD9AKn3dskfSkx0J6+vXvTmxxQ2ZCEegAJr5L/4KFfsoal+0l4C0m+8ONG3inw280lpazyeWl3BKE82Hf8AwuTGjKfVcd8j607im/e5AOOn0/x+maIuw1K2qP50PFHwn8ceCdQksvEHhDXtJu4ztdbrTJY+RxnO0qRwDkEg5NdN8K/2afiZ8Z9Yh03wv4Q1OdZzse/u7Z4LOFT1aSVwFAHXgk8cA1/QWu7/AJ6N7YJ/yPoKQ5fqSR2XccZ9TzzVe6ae2keS/su/AWx/Zx+EOmeELa4GoXgd7zUb9RgXN1JguwH90YCj1CivWvXFCqBk/wD1/wD6/wCtKaHqZXvqJtz0qtqFjHqVhdWcy7obiF4pB/sMpDfXr0qzSNgr345/qD+dStAufgl+0t+yh4z/AGbvFl/aalpd1d+GBITYa9DCzW8kJPyCRwMK4GAQ2Oc4zXjmlWdxq2pQWFjbz3l5O4jit7WJpZXbqAqKCzHjgAc5r+k4gMpUgeW3VfrySffNVbHRdN02R5LOwtbSVuWeGBEZj6kgZJ69aLJvU2VZ2sj4h/4Jl/so+IPg3o+teO/Gli+ka7r1slnZaTN8s9ra7t7tKvVHdwp2nkBecZxX3WDznGBk4596GXkY4HTnrRna3tVaW0Mm+Z3YYxx6UrN0pN1I1SIX73T0/wD1frX5vf8ABXD4F6rrUHhn4oaTaPdWmlQtpmrGNSxghL74ZCMfcDNICe25ffH6QKaiu7W2v4XhuIY54ZFaOSOZA6upGCrAg5Ht3wKa0KjLldz+apPm24+cdyo75Oen4dK6bwB4F174l+KtP8N+GNLuNX1m/lEMNvbx7iD3Y9lUDlmbCqoYkgCv3E1z9iL4EeIr17q++GGiecxyTbK9sv8A3zEyj3/Gu5+HnwV8CfCWF4/B/hPSfDokGySaztQJpFzkK0hy5GfUmpcUzf22mhc+Fvg9vh78NfCXheSVbiTQ9ItNNaaPlZDFCqbgfTjvg+1dYDu+ncH/AD196bGu1cDgjqDzz/X6/jSnjnuetXzO1jl3PPvj38XNM+BPwl8R+NdVVZbfTbYmOAtsNxM5CRRcf33ZQSB3z2r+fnxZ4p1Hxp4o1bxBrE3m6lqd1Le3MgGF3yMXIAHQcgY7cCv1S/4K/apc2/wP8HWEe77NeeIVM+043bIJSFPscn8QD2r8mI2I5zuLEscDG73x25x+QpPY7qEVuzV8O+G9W8W65ZaLommXWraveTeRb2NnEZZpZP7qquSeASfQAk9K90k/4J9/tCQWqzt8Nb0qw3bUvrNm/ITZr6k/4JAfDLRLix8Z+P7hobrxBBcDRLNWAL2sJiWWSRQDkGQuq7hyBGw7mv0sVTGzbi2Scn5dueMA8Af/AFsfnpGndXMqmIcZWSPwWm/Yj+PMR+b4V+IG/wByONh+j1Vk/Y3+OcCkt8KfE5H+xZF/5E1++gZs8Dj6f4UrMfvEkAdd5O0U/Zoz+tS7H8+uofsw/GPSY2e7+FnjCGMdWGiXDgf98qa891rRtQ8P3n2TVdPu9MuwcGC+geBx/wABcA1/SfCoK4Dbx1BBP4dDXM+PvhX4R+KelT6Z4s8O6Z4gs3Uho9QtlkZSR1VuGU+4OfQ1HsyliG9z+cf7zAAHPoeP507qNw6jgEHBB+tfoJ+2B/wTDn+H+lX/AIw+E5utW0K1QzXfhm4JmubdRyzwPjMigZO1vmAXgtnj8/cq2GU7lPQ+3Tp9c/lWbjbVHWpKoro+nPgb/wAFFfi98Ebe3019Qi8ZeH4cKmn66Wd4kH8McykMvtnIGOF7V9f+Df8AgsN4DvLVD4k8EeINHuv4/wCz2ju4c+pbKHP/AAHn8K/KUDcQB1NPEYK5I4zjJWmqjiiHRjJn6/aj/wAFdvg3DCGtdL8VXzlTlI7GNSp+rOP8ivC/ix/wV91zVI5rT4e+D49JVxtXUtdlE8qj1EKDaD9Wr889o52hT9Ov6GmHn/E9/cU/bSY40InR+P8A4leJ/ih4il8QeLNaudb1RznzrhidnPCqP4Rz2HaucCjcx5ODjtn8au6RpN7rmoRafptncX9/cYSO1tYjJK5OMBQM5Jr9Bv2VP+CYd/f3Fr4p+MUIs7CMieHwqp+eXuBdOPur0ygOT0OBwYSbLlJQOA/4J/8A7Fl78XvEWn/EHxbYtB4G0+XzrK3nQg6tMh+XAI/1IYAlu5GADzj9ebeFcEFMKxG8Y9QRg+3+HvVTS9Kh0u0gtLK3jtLWBRDDbQKoSNQAFGBwBgYA6cV8Y/t8/tzWvwh0i88B+B72O48cXcJiuryM5GmRtgEH1kIzhf4cZOOM6uPLqcXNKrI8Q/4Kg/tVWvi2+T4TeGL4T2GnzLLrtzEwZJp1H7uAeyEBj749K/PpW+9tBz1AUcnHOB6nj9KLiSS4uJJJWeWZ2LFnbLOxOSST3JPJPevuH/gm/wDsdXPxT8UWPxO8U2Z/4QnSLjzNNt5lIGp3aH5XAI/1UbjJPdlC4IDYzS1Op2pxP0I/Yt+F198Hf2Y/A/hvVI/I1QW0l9dwngxS3ErzGM98p5gQjsVIr2mQN2GfTjj3znjpkde9SLGSeTkk+nt6/n+A+pr5P/bG/b48Pfs2f8U7pFrB4m8dzRCQWDSYgsgSNrTsvzBjzhF545wCM7O0UcGs3oeYfttf8E95/it4hufHnw+Fra+JZ8PqGj3P7uK+IGA6OcBJMDvwfWvzR8b/AAv8WfDTUjp/irw5qegXSj7moWzRg8nkMRhh05BI96/Qz9nz/gqtceMPHlj4d+JHh3TNGttRult7bW9GeSOO3kYhVMySO3yEkAsG4/unPH6MXGm2eq2ht720hu4DjMc8YdcehU/z4/So5eZXR0e0lT0Z/OX4e8H6/wCLpvJ0LQ9R1mUnG3T7SSc/+OA16Bdfso/FrT9DuNYvPAuqWOnW8Jnmnu0WLy4wMsxViGAA9q/eiPQ9P0uIxWFlbWMfRUt4VQdM9MegNfn3/wAFOv2h18L+HYPhnolyv9pauom1N4zhre2BBCdesh6jHQGpcbI0hWcnofmFtP0PcelPXEa5OB7n6GkXLtwM+g6cntXvX7Gv7Pr/ALQHxfsrS9iLeFNJ23+ry/wvGpzHDn1kZcf7ob2Bz8jbm5Vc+6/+CZv7PyfDP4ayeP8AWIPL8SeKgrW3nJ81tYA/uxg9DJyxHPAjPqBwX7Y3/BR/xH4N8beIPh/8OLS1sjpUgs7nxDckzyGXarOsSEALsJK7uckEj3+77SF0tFhgjVFWLZEigKigJhVwOgAwOPTHevzQ/aP/AOCdPjhfHGo654Bt18Q6NqEzTLatJi4tyx+6WbhxnPOcjp6Vu3ZWRyx5ZSvM+GdTv7nWNRu9Qv7mS7urqZ7i4uZmy8kjsSzse5JOfqa+yv8Aglj4WuNW+L3ijVVjb7JY6T9md8Hh5JUIX64jP6VgeBf+Cafxl8XapHFqekweGLDfiW7vpVbaO5VVzk1+nP7Nn7M/hz9m/wADR6LorNd3Mj+deX0uPMupccs3t6DtWT1WppKUfss77Vi1joF0Rksls/X2QjP5g1/Ph4quPt3ijWLnGPOvZ3x9ZCa/oR8dMLXwfrEgOPLs5WyTngIf8TX88epN5moXTHqZnP8A48T/AFpPTQrD6plWT5oXH+yf5Gv3P/ZJ/wCTavhjjj/indP6/wDXrHX4Xy/6pvpX7p/snj/jGv4YAYx/wjmnE/8AgLFVxHXPgL/gq83/ABfbwoP+pbH/AKUPXxSPvV9q/wDBWD/ku3hL0/4Rv/2vJXxUv3jRPoXT+E9z/YtI/wCGgNMzz/oN12z/AACv0i0hgswHPQnaOO9fm5+xaN37QGm9sWF2c/8AABX6RaXGVkCnv+tKWljKW50XnL/zzk/MUUz7KP8Anl/48aKkk+pu9eXftTf8m1/FAZx/xTOofrA1eo15f+1Ku79mv4o8/wDMtagf/IDU0cq3P58oRiNPoP5CpT2PpUUOPLXHoP5VKx+U/Q/ypfaPTXQ/YT/gkjk/so3Y/u+JL/8A9Fw1b/4KxL/xijc5/wCg5ZGqv/BI7n9lW+H/AFMt/wD+i4Kt/wDBWLn9lK4H/Ucsv512LY83/l4fjIxzGx7Yr+j74bqV+HPhNT/0B7PJH/XFK/nCZdtu30/pX9H/AMO/+Se+FP8AsEWn/ola54m9XdHR84+UbiBx715b8cf2oPhv+zpZ2U3jjX1sLi/JFpY28TT3M4BwXWNQTtB43HAzXqLAFTn7uCD7jHpX4e/8FKdcu9b/AGzPGsN1L5sOmQWNlbRtnEUf2WKQqMHpukc++6nHZmNOPM7M/X/4N/tDfD34/wCk3Go+BfEUGsx2rql1b7WiuLckHG+JwGAJBAbG0kHBODXojA7sYwQec1+M/wDwSh1i6sf2sBZwyutvf6BeR3EZclXCNG6nHqMDHpk461+zH3QB6dPp2p9CZRUXoDcYpA3X+lL+FJ6VmxBu6DOD9KMDnjH40n44oGOOPrUgOU8gmjd+Y6D/AD/nmk7+1eD/ALZn7TEX7LfwhfxLDpy6vrd/dLpml2UrbYzOys3mSEc7ECEkDknC8bty1FXYz3j73I5JGcYI9fX6Gk3cD0Pp/n3r8/8A9jX/AIKWap8ZPiVD4H+IunaPpF7qhKaNqOlRyRRGYAEW8kbyP8zAHawI5wvXBP6AsBvZR1B6egyf8DV+gtY7jh8uB2+tJyzDG7+fPpSMQqnd0H+OP6180/tr/tjWP7KvhawitbGDXPGutFv7O024bEMcaY3zzY5CAkAAYJOf7pwIN9j6U3K2TkfhSjHBByK+Jv2Hf+Cgep/tJeNr7wX4u0Kx0rXktHvrO70syCCWNCoZGWR2YON6nIJDDd93aM/bb7upBHrn1palWs9QPzFf8mml1PRgfpyfyHNZPizxNpvgvw5qeu6zeR6fpOm20l5eXUx+WKJFLM/1GBjrk8Y54/NKx/4LEatJ8UJmuvBVmPhy9zsiUSyf2okRx+9Ll/KLHO4x7MDpuOMkQRi5H6iK2M/dJ9AQadk9On0rN8P65Y+JtCsdW0y6W906/hS5triNiVkjdQysMk4yCOlaXVqGjPURh6DJwSBnJOPQU0EZ747ZUjNfK37bn7cEH7KMehaVp+gp4j8Sa1FLOkE9wYYbWFCF8x8AsxYk7VGAQrZI4r46f/gsJ8TlkLR+BfCJHUj/AEpjnAHB8zgcDj60uU0UZM/XHeuAScD1zwPr6Uc4PPHrmvyt8K/8FlPFEOpQ/wDCR/DfSbiyz+8/sq+lhmC9yvmblJ6ccV+gPwB/aO8FftKeEP7e8H37SCFgl9pt0oju7GU/wSpk/gwyD2NOwtUeo4+UDBLH0H+fWlXDEEZ9uMg/l1/CkfnvtcHHf5Tx+fBr8r/iZ/wV08Waf8UNXt/BfhrQ5vB1pdm3hfUkla4u40bDSb0kAUMQxXg4BHrwkgSctj9T1YNhuOf7vIpRngYJ+grk/hP8RbL4tfDXw14x06N4rPXLCK/SF8Fot6jKHHdSCDya+fv2zv28NA/ZjtP7B0i3t/Efj+6i3Jp0kn7ixUkYe5K8854Qcn2GDVNPqCTeh9Wr97jsMn29j70e/c9OevTn9a/Pb9jH/gox4s+N3xitPAfjvSdLhk1aOb+zLzRYHi8mWKNpWWQNI2VKxsAFyQQOucj761zWbTw7o17quoyra6fYW0l5cyt0jjjBdm/DA/yKlLQT7FxWEihh09e359D+FBbp69q/LTxp/wAFifEVxq1wfCPgDSbfRw5EEmt3c8k8qZ+VmERVV4/hBbHrXPN/wWE+KBA2eCfCI/3lvD/7Wpmns5dT9bMjaSTjHrwPzp+0rk4z+H6/Svyj8Mf8FivHEOtWreIPA/hyXTFkH2hdNluIp1TOCwLu69+4x7iv1G8M+JLLxX4d0vW9OLNYalZxXduZEMZMUkYkVTkAgkEHn9KLaGcouL2NVfnyRlvXb82Pbim7t3Y/TvXwH+1X/wAFQW+DfxM1PwR4R8J2PiK40krDe6lqV0yw+fgFkjRBkhSSpORyD6AnxT/h8L8SR0+H/hQD/rtdAflv4oUTT2c7XsfrMTjrxTtpY8d6/Jj/AIfDfEwrlfAPhIfWW5P/ALPWr4X/AOCwnjYaxbnXvh/oNzpRYCePTLieOfaTyVL71yB2Ix7inyi9nPsfqkVx/gQQfypOfXFcx8MfiNo/xa8A6D4w8PztPo+s2iXdsXXayA5DIw6BlYMpx3U+1dQ361JAnHYYpfwzz0pKXGOtABxz35zmhm/TmkqO4uIrS3lnndY4YkZ3duiqBkn8s0l5gfK//BS3QfDWs/ss69N4hvYtPudPmS80iSRsNLeLlViUdTvV5FPoCSe1fidzkEjJyC2eCe/I9jxXvH7Yv7TWq/tNfFnUNTM8kXhXT5HtND00vujigU484jvJIRvLHs23oM14ZHEZpESNGd5GAEaqWbJ4wMcnnAH1A7U3bZHfRi0tTd8D/Erxf8NLi4n8J+KNY8NTXIAnfSb6W2EuMgFgjAMQCcZ6ZPrXZL+1b8ao1AHxZ8Z47f8AE8uT/wCz11CfsH/Hx7WO4Hwx1bZIiyKpltw+09Mr5mQfYgGoH/YZ+Po6fCzXWx/dWM/+z07yK/ddzCT9rT42r0+LHi8/72rzN/6ETV/Sf2zPjro94lzbfFTxG0qnj7Tcicf98yKy/pUk37FXx4tVLP8ACjxKwH/PO2Dn9GNcH4y+Enjj4cqH8VeDte8PRltok1LTpoUJ9AxXBPtmj3g/ddz6x+EX/BWD4qeD763h8cWmneO9I3fvpjCtnfKp7q6AR59igz6iv05+Av7Qvgz9orwXF4i8HX7XEYwl1YzAJc2cvP7uWMHAPBww4b1r+eoMu4jqO+04yPf0+hGeO1fQP7Dfxqvvgj+0X4Wuo7hxo2u3cej6vBvwksUzhEkPujlHz22kdzS5mjKpRjbmifu621/lzwe469wcHtj+lfjd/wAFMP2abP4M/FOy8WeHrVLPw54t3yNaQx7Y7S9QZkVccBHBDhex3jpjP7GowYjPKjjj05/xNfGv/BVrw/HrH7LY1B4187Stas7lGHYuxhIHsVkH5VpLY5qV4yPxwf5FY43HGcdj04P51+gHw9/4JU3vjTwboevy+PFgXVLOK7EUWnj92HXcFzu5wD1r8/7jG4ZH3lBx6ZH+Nf0D/sv3n279nf4c3HLb9DtTz/1zArDqdVSTiro+B/iV/wAEtbL4f/DHxX4m/wCE11C8uNF0i61FIPsyBJHiiZ1B54GVr88FYFQx6A/dIz0/ya/oe+PkKXHwM+IcRHyv4c1BT+Nu9fzu25xbxMR82Ofyq5RSWgqU3JXZ+pH/AAR98N6ZP8P/AB5rcun20mqpq8dpHfPCGlWP7OjFFY8gfNyB1/Cv0MZYbaB5JWWGFAxMmcKiAZOc9uM9cDFfBP8AwR1X/iyHjls5/wCKlI/K1g/xr7V+Kchi+F/ixw2wjR7z5hyR+6btWi2OaV3LU/PT9sH/AIKcG4/tHwd8Irj5Tut73xSeSeMMLYcY9N56dgetfnBcXlzqVxNPcSvPdSZkkmlYs7nPLFick8/Wqlr81vCScfKABnOBjP5dT+dfV/7Cv7HMv7TniS71fWp2svAehzql60ZxLeT7d4gQ/wAI2kbmzkBwFBJysOLk7I7Eo043F/Yn/Yi1P9pDXoNe16K4034a2E3+lXWCkmpOp5t4T12kjDMOmcD5gdv7OaB4fsPDWk2WlaVZw6dptjClvb2tvGEjijUfKoA4AA4/D3pPDeg6b4Y0Wx0rRrGDTNKsIVhtLS3iCRwoBgAKOAMA18wftv8A7cWnfs26HJ4d8PNFqXxAvoibaFm3LYK2MTTDueThcducd9+RQWpxylKq9Cr+3d+29Y/s76HL4V8MyQ33xB1GA7FzuXT42xiVxn7x52j/AGST2B/G3XNa1DxBq1/qeqXk1/qN5O09zdXEm55GbGWYn37/AMqd4m8S6n4s1y/1nWb6bUNUvpTPc3lw+WkLd8np7CmaPpN/rmsWWm6ZZzX2qXUyQWtnbRb55JicKirySxJ6Y9+1ZSd2dkaaijR8FeENT8f+J9I8NaFate6vq91HZWVuoI3yOwAJ/wBkckk4GFJzX9Gel2jabpdpbSztdzRQrE07D55WUYJ/Egn8T618j/sJ/sK2n7PWmx+LPFccN/8AELUICvlqQ8WlQuPmijb+KQ8hpB1BIXjk/VfirxTpvgvw7qGuaxeJY6VZ25nnuJm2qigHPzevH604R5Vc5Kk+Z2R57+0l8cdH+Avw11bxLqsi5hjKQ25YBppD91AM9zj8Aa/CD4iePNa+J3jTVvFGv3DXGqalcNLKWOQpP3UHsBgAe1ewftjftVX/AO0p8RGnt99t4U05jHp1kx+8BwZX55JwCK+f1BGW3FePvdec9fyz+VRJnTThyLQ0dC0W+8Ra1YaTpds99qV9OtvbW8Q3M8jHCgY9+Pxz2r9qP2XPgHZ/s+/Cuy8Pokc2rzsbjVrpRkzXTD5hn+4nCj2XPUmvmH/gnB+zI2j2cfxa8R2RF3eRvH4ftZBjy4WJDXHszgYU9cEnuM/oPpVjtkRv7gG846nHJ/Pt/jUbMipLsaWn6f8AMHKrnf5jcdun5dK2Eso48qAu0D/lnzgkjpjr1H+cUkax2cUs87KiKm53Y7QqDknJ/P8ACvzo/as/4Kn3GjazdeGPg99jvBbuYrrxNeIJo5GHDLbx/dK/7TAg9h3qzDlcj9HDEPvgZK/LwORjgnmlZflyTuJ4y3JNfC/7C/8AwUK1H48+MI/APxCtbG08UXEbyaXqOnRGKO9EaFniZCx2yBVLDb8rANwpHzfdbYZQQPnYBgT3BGf8/jRuTblZx/xQUf8ACv8AxECcf8S+bpxzsNfzx3bf6TLn++w/Wv6FPjFeJafDvxFLI2xVsJyWzgH5DX8800m+aR+fmdjgnkcms3udlHRBIcQv78V+5/7JhB/Zt+GXHXw5pwBxx/x6x1+F7sfJkwMnHev3S/ZTUQ/s3/DAA9fDemtj/t0jqkVV1PgL/gq9lvjp4S9vDfp/03evir7ua+1v+CrjZ+OPhE9c+HP/AGu9fFP3qc90VT2Pcv2K8f8AC/bDd0On3fbP8Ir9ItJAZm+9gHjIwa/N/wDYrXd8fNP9PsF13x/CK/SPSWZpjxk5x1yKlmctzoPN/wBqil8tfSikSfUNeY/tR/8AJtvxT/7FjUT+Vu9en15h+1F/ybb8VP8AsV9S/wDSd6a3OVbn8+EIxGv0H8qlYcH6H+VRJ9xfpUjHg/Q/ypdT010P2E/4JGn/AIxWvv8AsZr7/wBFQ1b/AOCsf/Jqs3/Ycs/51U/4JH/8mq33/YzX3/ouCrf/AAVj/wCTVJef+Y5afzrrWx5v/Lw/Gc/8e7f57V/R/wDDv/knnhQ/9Qi0/wDRK1/N+3+pbHv/ACr+kD4c/wDJO/Cn/YItP/RK1itzer0OiPK471+FP/BQo7v20PiYT3ns/wD0hgFfurn+dfhT/wAFB+f2y/iUR2ntF/KzhH9KnoyKO52n/BK1f+MvtOP/AFBNQ/8AQUr9pG+bB9uK/F7/AIJWr/xl5YH00PUD/wCOxiv2hUY4q/sk1PiFXPfp04NI3OcdB6ml/wAab0z9azZmJRRRSANp4+tfnx/wWOkMfw2+GadA2vzMfwgP+NfoRu/Tmvz0/wCCyn/JN/hk3Ya9cA/9+K0p9yov3kflxp95daXfWl9ZXElre2sqTwzwth0kUhlYHsQQDn296/eL9jv9om3/AGlfgtpfiFjGniG1P2HWrOM/6q7RRuYeiuuJF7YbHUGvwajHyg/TH14x+vbvivo39hL9plf2a/jPbz6pOyeC/ECjT9ZjyTHCNx8u4wP+eZBz32O/XABUNdDpqx5ldH7ZeJ/FGm+DPDOqeItZvI9P0jS7WS9ubqTpHGi7mb3wAeO5Ar8Av2iPjfqv7RHxc1/xzqiPCl66w2Ng7bltLRD+6h9zj5mI6szHvX2r/wAFRP2totflm+DfhK98y1t5I5vEd5CwKSyAB4bRSCchcqz44zheoYD86JB94YZfRTngemT1xTlZaCpU+sj6s/4JbLv/AGxNEBJ2jSdQz6t+6PJ/P9BX7VtnkkEnHOOcmvxX/wCCW6/8ZhaKR0/sjUD/AOQsf1r9qZ5kt4pJpHEUUYLPIxwFUdSfatErxM6uk7H55f8ABW347N4f8EaH8K9MuVW78QN/aOrbHwyWMTDy0PtJLz/2y96/K+SHcxVVLHdgdyR1wR6jrnvgCvUv2k/jC/x9+O3i/wAaDIsbu58nTo35EdlCBFAAD0zgOQP4nbrXXXv7IPiO3/ZNj+OBuV+xtekjStgMi2Jfyluy4OQTMCNv90g1n1sjpppRWp92f8Enfjv/AMJt8Jr/AOHepXHm6r4UYSWe770mnysSuM9fLclT6bkH0+8X+UnIyBgkevP+Ga/AH9kf42S/s8/tAeGfFLy+Xo8k39n6qF+61lMwV26/wnbIPeMdM1+/cMkVxDHJEVeKQbkZDkENzkHuOc/jVxXMcVSPLI/Ij/gsAzL+0N4QUnKr4YRVyOn+lTf/AFq+c/2bf2afE/7UHjS/8NeFr/S9NuLKxbUZ7nV5JFiEYkSPA2IxLEuO2MA819Kf8FiowPj94KI6nwz/ACu5RXjH7DX7UWj/ALLPxP1zX9f0nUtY0zUNIbTjDpfl+asnnxyK/wA7KCoCOOvUilJJNWOmLfJoVP2lv2MfHX7K9ho2peJb/RNX0vVLg20N1o88jqkwUsFkV41IyA2AM5wfSuq/4Ju/EC+8C/tWeFLW2mddN8RiTR7+1J+WUGNpIic85WRV69ASBUv7bn7cQ/ast9C0fSPDlx4f8O6Vdve7tQuVknupzGUViq/LEFUucBmzu9uV/wCCb/wz1H4gftPeFtRtYXbTPDRbWNRuf4YgEdYhu7lnZceoDelTLdco2/cfNuftgylkCBsZTG9TyMjBA/HJ/Gv5pPL2tKdoXDMOvAOTxz2461/S8q7mjbB/z1r+aeePbdXanBxLInHB4c9D25HoabVlqRh+tj9Orf8AbK079lf9hn4X6No8kGo/EPVtB82xsiQy2UbOzG5mHZRn5AfvEegNfmfqmp6v4y8RXWp6ldXms63qNw0s1zMDJNcTMx5/2mJbAA/D2qMGk5kcyfKqNuJ+6AOOp4yD7ewr9LP+CWv7L/hjVvDo+MWtzW2tawl5La6Tp+3cummPhpZB3mOQyjHyqQRy3y1fn0KaVO8j03/gnn+xCPglpVv8QPGcG7x7f2+LWxf5hpFu/UD/AKbOuQzfw5I65FfTH7SLeX+z18TG+9t8M6kck4zi3c/zr0dE24IHzYx6DoO3avMv2pJFtv2a/inIc7U8L6kTjr/x7PTlHl0OTm5pXP552fy4FZSSQgxn/dBJwe/4196aL/wSH+IuraXZ3p8deE4Y7iCOYLsuGwGUMOiDPBr4MVQ0SIejIo5GQDgDP8+vqK+qNJ/4KVfH3QtNsLCDX9Ne2s4I7aPzdHt2+RFCrzsyeB1zQuXqd1XnsuU968I/8Ed9SXUrV/FvxLsf7MWRWuLXS9PcPKgYblWSR1C5GRuKtjPSv0003TLXR9OtLGwt1tLK2hW3t4IuFjjQbUQcYwFwPX3r8wf2X/8AgpZ8UPHXxo8IeEPFdho2raXreoR6fJcWNk8FzE0mVVwVfbgE5OR0Br9R41256HdzuX+LjGfxx6/lQ7bI45ybfvH5vftUf8EtfE3xC+J3iHxr8PvEGlMNcuXv7jR9YZoXjnc5cRyqrblJycHbjPfPHxT8f/2UvHv7MsPht/Gy6bF/bjXKW0djdfaHUwhC+/5QBkSLjrnnpX7+L2BPy59+f1r85P8AgsxGD4b+EkrZLLqWoL+Biiz/ACpKKknc2jWnorn50/Cj4Z6t8YviRoHgnQ57O31XWpzb281+zJAjBGf5iqswGFPRTzivsbQf+CQPxNudSt4tc8XeFrDTi48+aze4uJVTPzbEaFAWxyMsOlfOv7Es5g/a8+E7D/oNxr+DK4/ka/fM4zkdcdPxpKKtcc6sk7HNfDfwFpXwt8C6D4S0ON49I0a0SzthI2WZUGN7HAy7HLMe5JrpyCelMX3p46dcVDOYT7vBFK+Oo/Kk3Bs9fxpB+tSwD3/SvL/2ob66039nP4l3Nk7pdR+Hb4o0fUfuGyR74zXqH161k+LPDtv4u8Mavod2N1rqVnLZyD/ZkQqf0JpFLc/m8jQKiqMYA4x0HPb24z+Nb3w+1K10X4ieFNQvgpsLPV7S5uAwJUxpOjMMD2B/I1V8SaBceEvEWq6HdrsudNu5rORT1Bjcp/SstlDKQRkHgj/PXnHH+FK9pXPRveB/SwkoZgytvR/mXaRg5JOc98jHepBhupyfYk/1r8mf2d/+Cq+p/DHwBY+F/HPhi78XvpkYt7HVrO8WK4MCgCOOYOCHZQMbwckEbgWBZvUm/wCCynhpsFPhlrjdCQ2ow9e/aupyTPM9k7s/Rfa3HzE8d2H+FVNY0mz13T5bDUrWDUbKZCk1veRLLHKuPusrZDD2xzX52t/wWV0Vc+X8LNVOT/FqsY/9kNRN/wAFltNxkfCnUA3+1ri//GuKm6QKlI8C/wCCkH7L2i/s/fELRta8Jwx2PhbxOsrx6ZETss7iPaZFjH8MbeYpVe2GAAAFfI8N02nyRXUTFZLeZJVYdirZyPxAr6M/bE/bSvP2so/Dls/hZPDVlosk0sa/bvtLytIqryfLXGNvvnPtXzRctttJR/CRk/n/AICsn70lY74pqNmf0paTcC+0uzuR0mgjkH4oD/Wvlv8A4Kff8me+JvX7dp+Pr9qjr6U8C5bwP4cJ5J0y1LY658pa+Zf+Cokwj/ZA15CwXdqWnj5uP+XlD3+lavSyOSPxH4s3km2bj2x9MCv38/ZDz/wzL8Ncdf7Et159lwf5V+AF1jzM57/4V+/37InH7Mvw1/7A0J/Q1zv4o/M6Kvw2On+OjKnwR8fHnH/CPXx/OB6/nag/49YvdR/IV/RD8dFLfBHx8nf/AIR6+H/kB6/nftebSFv9gH9BWz1RnRP1h/4I6qT8DfHP/Yzt/wCksFfZvxcX/i1ni0f9Qe87f9Mmr40/4I7MF+Bvjkdx4mY/nawV9ofFVPM+Gfi1fXR7z/0U1OOpl9s/nLtFH2WL02jIxjPy9K/UX/gjxeSS+B/iXZNJvhh1S0mRW7M8TAnH0RR/wEV+XVqP9FhJ9Af5V7t+zf8AtaeI/wBmXw940sfD2n211e+IUtxFdXLnbaPEJBv2Y+fiToSOgpRlaV2ddWLlTsj9N/22v219O/Zt8PnRdEeG/wDH2oxYtoC2RZg8CWRe3fCkdq/GfxN4p1bxl4gv9d1m+m1HVL6UzXF1O+XfPYk9s8D8Kf4m8Uav421691nXNRuNS1S7kM013M5LsSensOcdfSk8P6DqHiXWLHStEsp9S1S8lEVnaWke+aVycBVHc5J47YJPAzSnPmY6dP2aKmj6Pfazq1jpul2M9/qd3IsFpZ20RkmnkY4VEXqxJOMY7e3P7C/sH/sG2n7P2nw+MfGMcF98QLuArFCAJItKjcHciN/FKQcNIDyBgHHWX9hf9g2y/Z8so/Fvi2OG/wDiFdwkRxqBJDpEbj5o4yfvSH+KQYzkqOM5+x7m8t9Ls57y6nW2toVaWaaVgqooHLMT6dc1rCNtWctaprZEepX9toun3V/eXC2lrboZZpZiFVAB98k+gz7f1/HD9vj9tyf49a5N4N8JXMlv4C0+YiSSNsf2nKp5Y4/gBzj1ya3v2+/29ZvjBd3fw+8B3klv4Ktn8u/1CJiH1RlPKg9os5+vpxXwx97noF5PYD3x2HQY/wAamcrl0KdlzMVV3N0wAMe3c5/z7etfSH7FP7Mc/wC0L8SFuNTt5E8E6E6zapNj5Z5eDHaqehLHlsH7uefmFeafAv4I+IPj58QrLwpoEflvJ893fOuY7KAEbpH9eM4XufTqP20+DvwT0P4N+A9J8L+Hbf7LpdihJmb5pJ5mGXlf1Zmwc/gOAKw6m06ljptJ0WGC1t47WFba1hVVit4lwkagAKqj0AGPwrqoVg0m1luLiWO2gjVpJ55WCqiAZYkngAYyScAYprSWmi2NzqF/PHp1paxNPPNOwSKGJRkkseAAMnJ9a/Jn9vD9vq4+Mkt34B+H17NZ+AoX8u91CIlJNWKnoOc+Rn6b8g9BzWljkjebNH9vj9v1/ic998OvhzfPD4QR/K1PVoSQ2pkHmND1EXHsWz/d6/BJ3MTxnHJ7fj/L9O55dktyM/zyfb/D/wDVV3RtHvvEGrWWlaZayX2p30y29taxLuaaRjhUH1bH0IB6A0J9DthFRR9P/wDBND4Zal4+/ak0DV7ZZE0rwvHLqt9cqSAPkeOKMHH3mds4OOI3+h/bCTbkjOGP93v9P1/KvB/2NP2Z7T9mP4Q2mjSpHP4o1LF9rl4vPmTEcRD1SMfKPXBbHzV0f7RX7QHh79nbwHdeIdduMvt8u0s42CyXEp6RqvuTz04rRR0ucU5OUrI8Q/4KOfHS2+F3wbu9EtblBr3iBGtLSEdTG2BI/wBArH8SK/Gk4DYByPX8TXoPxw+NPiD47fEC/wDFOvTATyttt7WMkx20YPyogzge5HU/SvP2Xb04GcAVizthHlQ5vut9MV+6n7LeV/Z1+GAxn/imdN/9JI6/CtsKjZr91P2Y/l/Z2+GXONvhvTQcf9esdERVD8/v+CrDbvjd4QOMf8U6f/R718W7sGvtP/gqwu341eDznP8AxTxB/wC/7f418V+9VPdFU9j3T9ivH/C/LDjP+gXXGP8AZFfpRo+WlwqYwT0GDX5rfsVn/i/ljj/oH3XP/ARX6T6QpaXacHnOc80n0M5bnQ7m/wCeEn5D/Gin/g350VJJ9O+1eYftQDd+zb8U8d/C+pf+k716f/FXmf7TS5/Zz+KCnv4Y1Ef+S7VS3OVbn89i/cT/AHRT2+6fp/Smxj9zH64H8hUm35TSe56a6H7Cf8Ejv+TVb3/sZr7/ANAgq1/wVmwv7Ksmcn/ieWnT/eNVv+CSHy/sp3h9fEt8f/HIBVj/AIK0f8mrt6HXLQ/+PV1rY83/AJeH40N8sLfQ/wAq/pA+HP8AyTrwn/2CLT/0StfzfSY8t8elf0g/Dldvw78Jg9tItP8A0StYdTerujoiOB9RX4Uf8FBht/bJ+Jg/6ebQ/naQn+tfuuTwPqK/Cr/goQP+MyviX/13s/8A0igqejIo7nc/8ErF/wCMurQ+mg3/APKOv2dGd3+fWvxl/wCCVK/8ZcWo9dBvv/adfs233qq+liKnxCHr7ZpDz0GeaX3z+FIV7kVDIEwaXFH3e1GOlIBMZ49a/Pf/AILIsD8M/hrxknX5j/5Lmv0J6c+hr8/f+CxVhK/wn+HN6q/uoPEMkbsc4Be3cqPqdh46mtYFRtdXPzc+DPw8PxZ+KnhbwYt5/Zx168Wx+1bd3lbkPzY9iBWT4/8ABGrfDvxlrnhbXYBa6xpN09rdRqPlEit95f8AZOMg+hBx6+xfsE6RJrX7YXwvt4k3NBfy3b9MhYrSWTPsOBz6kd+K+nP+Csn7Pi2Os6R8W9JtcQ3mzS9b8vhVkAAtp29mXMZbtsjHVqFH3Lrc7FO8+U/OaNRHkknByxz6YyeSfXPfvXovxK+Ces/C34e/DjxPrTLbt41tru8tdP8ALKvBbxNGI3cnvIJA4HZSueSQOi/ZD+A837Q/x00Dw1JBI+hW8n9oazLtIVbOIgsjHHHmMVjHfL/XH1J/wWEtzH4q+E6RwpDarp+orFsAVch7cFQOgwAvTtRGN4tyKnUV1FHlX/BLOPd+19pBH/QGv/8A0WK+6v8Agpn8ej8I/wBny50PTbhoPEPjCV9JtXQ7WjtwAbpwf9whM9vOBr4h/wCCVemzX37WFvNCpK2mgXs0jf3Vby4wfzkX86k/4KkeOtQ8YftQ3nh+UyLpvhbT7a2tIT0Zp0W4kcA9yHQEjtGPSq5uWCZjKPNU1PjaMKowp2qRgcDjqAR9Pr1NfRs37evxSvPgqvwslj8OnwyNIGhY/s8mf7MsIi2bmkID7QDvx1561f8A2Jf2PT+1N4i1yXV72/0fwbosI+0XlhgSTXLn5IkLqVI+Vy3BIyvHNfaC/wDBIH4VkFZPF/jQ8bdpnswdvH/Ttjr7VEU+hpKpC9mfknNEsvygh1Y4POCRkDJ98cdq/a3/AIJp/HZvjP8As62Gm6hO0viTwey6PeGQ5aSFUzbSn6xjZk9TEa/Oz9uD9kNv2VvGGjf2Zf3ureENZiLW19qJTfFcRt+8gkZQqkgbGBABYE8fLXW/8Er/AIiXvg79qK20CJZJNP8AFWnXFncx8hUkhjNxHIwHcbGTPbzferpy5XZkVLTjzI6L/gsHKG/aH8IRDrH4VjYj/evLj/4mvi/wR8N/E3xM1a703wrol1r2o2tpJfy21oAXEKOqs2CRnBdeBzzxX2R/wV0t5f8Ahpjw/IyMIW8KW4R2GFJF3dFuenGRn0yM1o/8EhfDcmpfGnxtrKxM1vY+HhatKvRXmuY2XB9SsD49ce+alayDmVOF0fAu1lYqF2S5KgEEEEH07cjHOMdeODX7e/8ABPNPhm/7Oej3fw5smsTIypri3jiW8/tFVAkM7gDf/eTAClWGAuCB8Nf8FMv2Y2+E/wATo/iBoVqLfwr4smPn+TETHZalg+YjYG3EwDSLzkkS8AKM8J/wT7+POs/B79oPw5o9msl3oni68t9Ev9NL5VWkk2QzLz96JmH1TevfIp+7oKo+eN0fuPG37xQeDu5Gc4xnIz3/AMcjtX81d0u7U75UGWa6m2j1/eHAr+ksOQE2ksgX5PfORn+f0x+J/m0vo3tr6+jkG2UXEyMG6Bg5yD6EY79DipqSuicOuXVm/qnw78SaF4P0LxZf6LdW/hnXS6adq5UeRcMrujoGz8rBo5BtbBOwnoM17l+w/wDtaz/sv/EF11VprjwDrckaapaxgs1u+MJeRr1LqMg4HzqehKrn9H/2ZPg1o3j39hnwT4M8WaWt3pOtaSbia3lXDqs0kk0ci7h8siq6sr46qpxX5SftJfs7+IP2a/ihe+ENZY3ds4afS9WWMrHqVsTwwz0kDAB0ySGU4JG1mnlcVdGnMql4n75aDrOn+ItFstX0m8h1LSb6Fbi0vLVxJHNE43K6sDyCDnI9q8z/AGu5Cv7L/wAVSvT/AIRfUfxH2dq+D/8AglT+0Nrdj4zk+EN75+o+H7yCbUdNl37zpsqfNKAf+ebk844D9ssxr72/ac0u68Qfs6fEzTrWJprqbw3qUMcaDJLmB8L7np09eO9XzXVzl5OWVj+e7cIYS5OMKDnGffH6dxj6V+uHw1/4JUfBjXPAnhvVtSuvE13qF9pltdTumoxpEJHiVm8sCIfLknHNfkj5e5AAA2Fx1HoRg98Zrt9K+M3xF0azhs7D4geKrO0hQRxQW+t3MaIijCqFEmAAOw6VN0jrqQcrNM/aX4KfsJ/B/wCAfiWHxJ4c0S4uddtQ3k6hqd69y8AIIZkU4VSQcZxX0DkFsH738uP/ANZ/GvwA8HftUfF7wTrlnq2m/EXxNcXNvKsgtr3VJ7uCYg8K8LuQ4zxjHev3t8J317q3hnR77UrF9N1C5s4ZriyY5+zytGrPHnHJViy/8BFXzXRyTi4vU1ewr85P+CzDj/hE/hOP+olfn/yFF/jX6N8rxX50/wDBZXTpZPBPwtu1jYww6neRvJ2DPChUfUhGwOpxxSTsOGskfC37G8nkftbfCVj/ANDDarx7tt/ma/f3A3HPrxX4CfsgWM97+1V8KEtYmmnXxHaSFEGW2q5Zjj0CgknoADnocfv4V+Y9jnPIPSndpDmtRfvUnHenAbcjOfpTSPyrIzA0DofWjacD+VKBj6+lJgN5XtmhlLYA4OeOO9P5pu3t0PX/AD+dID8Ff23tFTw/+1t8T7WNNiSar9qAAx/rY0kP6tXiGM+w7mvpb/go/am0/bI8dkjAnFnKvuPs0Y/pXzWvXjHv9KUlqenHWKE2eqkf7ymlXB64P05/lX1h+zb/AME8/E37SHwvj8aaR4v0TR7eW6mtBZ3UEryK0ZAO4r0zkEdeCOld3c/8Eg/imr4h8Y+EZ17GSS6T/wBomq5W0T7SGzPhTaD/AAmmjC5/xr7jk/4JD/F9eniPwY30vLkZ/O3qs3/BJH4zpnbq/g5h/wBf84/nBU8rD2sO58S4GDiopF8yNl27sjB6cj05B9ua+0rr/gk38crc/u7jwpcH0TU3X/0KIVkXH/BLT9oCBjjRtFn9DHq8Qz/31iqUWncTqQ7nt3hr/gr7Y6H4f0jTZ/hteSmytIbYyLqKHcUjVSfuDqRXlf7Wf/BRKD9pb4Uy+C7LwldaB5t7BdNdSXayDbGSdu0Lzk4rmm/4Ji/tC7sf8IppzD1GtWv/AMXTl/4JgftA7gT4X01R6nWrb/4uqd9zC9NapnyhOnnZfgZJY/mP/rDHvX7/AH7JMZj/AGZ/hspGD/Ydu2COxGRX5w/DL/glJ8VNc8TWMfjJtK8OeHRKDfSw3q3Nw8OcskaoCAxwBuJGM5GcYr9aPD2h2PhXw/p2jabCLbTbG2S2toh0SNFCqPwAFTy7SCpJNWRy/wAb+fg348HT/iQX36wPX87tv8tnFzz5Yx+Qr+iL44DPwa8dEA/8gC+H1/cPX87kK5tYlz/Ao/QVV9Aon6vf8EdmP/Ck/Hg7/wDCS/8AtrBX2z8Slz8O/FQPQ6RdjPbmFq+IP+CO8ob4N+PkGf8AkY1I/G1i/wDif6+teqft7ftYaR8C/h1e+HLKSK/8ZeILOS1trVH/AOPaKRSjTv6AZOPcGq2M+V82h+KsH/HvFjptH+f8+tSbaSNcogUhhjr0yc4/PAH5VIflUs3C5xnP+cfj6Vg3qdy2VxgwuGPAU5BAycgH8+/H+FfsP/wT2/ZB0n4PeDLDx9rv2fVfG2u2Md1A6YePTLWRA6xxN3cq2WkHXoCRyfyBuLWfT7yS2urea1uIwN8UymN0BAIbBwRxgj6199f8E7/22P8AhBb6z+GfjvUVj8LzFv7J1S6cImmy4LeQ7ngRMd2M/dLYHBwt07X94yrXa90/VSWeKzt5pp3jgtY1LSOzBVChQS2ewHrwO3bn8lf2/wD9vWX4rXl58PPAN88PhC3k8rUtThbD6k6nlFPURjHX+LPtTP25v+ChU/xgjvvAvw7uZrLwYJDHe6qhKSaoAfup3WL34LZ6DFfCO0ydgDjkev4/QdK2lUvoY0qXWQ3rwBjuew/Adh04p6ggEhdxxwPU9h/n0z2q7pei6jrU0kGnafdajPHC1y0VnC0rrEoy0hCgkKBklunBqp0bI2sMleDnjvz7j+dYu50+h+z3/BPn4P8AhnwH8BdA1bRbiDUrzxLBHqGp6ou1yzMM/Z+DkLEf3ZHcqxxzX1dDCqktzsX5Tn69T75PTsMetfjh+wT+2cf2f/EB8JeKp3bwBqs28TE7jpdy2F84DAzEwwHT6MOhr9ibPUoLy1hurSZbi2mRZIJYWDo6FRh1Ppg8HuAOauNjiqc17n5Xf8FL/wBrDU/G3jjUvhN4fu3s/C+gzLHqzQOQdQvAFLRsR1jjPy46Ft3Hyg18FOoP3QTk49x14+g/r07n9Cv+CjH7IepWPinUPip4SsnvdK1AiTXLG1jLPbzAYa6RACTG+Mvj7reoOa+A9N0u71rVLfTdMtZNQ1G6cQwWtovmyyucYVAuck+39DUSvc7I8sVdFCOOSSSOKKNpJpGCIkY3OzE4CgDnJ7DvX61/8E8f2FZPhLDbfErx7Zg+MLqI/wBmaTKM/wBlwuOWfj/XMpwepQZHUkCP9g3/AIJ5j4U3Fp8QviZaQ3Hi/Hm6XorYkj0wkfK744M+O3OzGQc9Pr34z/GTw58CfAd/4r8U3iwWtuvyQ5AkuHxxGgz94nvx9K6KcUldnLUq8z5YlH45fG7w5+z/APD+98UeJbtI7eNcQ2+Qsl1IR9xFzkEn8q/D/wDaO/aL8R/tI+PLnxFrUjQWas0en6arkpapxg+74AycVb/ac/ae8SftMeOpdb1eQ22mQkpp+loSY7dM8E+rEAZPtXjwQBsnJ4+8ev4/rWUpXZvSpKKBV7noB2GAAPb+vvXouqfBLxHoPwd0/wCIuoxCx0jU75bGwhmU+ZOCjMZcEcJheDnnOcYwa9z/AGI/2Mrz42ata+LvFVrJB4Et5CYoWBVtSdSRtHfygfvHvkr1zj6O/wCCoGnw6b8BfDMEMKQRR69DHHHGoCootpMAY4wB27Vnurs0lUV1FH5eSD904HTGAPwr90P2Y8t+zz8NgP8AoXdPH/ktHX4Xzfdbb3Hev3P/AGYOP2efhtk/8y/p/wD6TJUrdEVT4B/4KrZ/4XT4QJ6Hw+cf+BDV8Wf/AF/519qf8FVB/wAXm8HDPH/CPN/6UNXxXjmtZ7ounse4/sWkL8fLDPewuh0z/CK/SbSWXzcg7Qe5GBX5t/sVgN8erHk/LYXRx/wAV+kWj/LICQu3uOv51DM5bnSZ/wBj9aKb5q/3lopEn1J7dvcV5p+0x/ybr8T/APsWdR7f9O716XuxjNeaftLc/s6/E8f9SxqJ/wDJd6aOVbn89sI/cx/7o/lU3aoYWHkx/wC6P5VLuG0nsBUyep6cdkz9h/8AgkrER+yjOP73iO//AJQ/4VL/AMFZxu/ZVJ4x/blp1/3jSf8ABJzEf7KHqT4hvyf/ACHVv/gqtYtefsi6nIAf9H1SzkJ9AZQgP5sPzrsPNfxn4uzcQuSMArX9IHw5YSfDvwoynIbSLQj/AL8rX84ci7lfvtBIz7Dn9a/og/Z/1hfEHwJ+HOoqwf7T4d05yQQeTax5H1ByD9Kw6m9Xod8V6c9xX4Wf8FClMf7ZXxKz/wA97P8A9IoK/dV/ujPc4Ffhl/wUYtzD+2V8RDjG82D+/NlDQ9mRR3O3/wCCUqb/ANrWJu0egXzH84h/Wv2X6gc5wMV+GH7A/wAcfCv7P/7QCeJfGV1LZaJNpNzYtcw27zmOR2jKkqgLY+U9Aa/TVf8AgpT+zrLnHj51/wBltHvs/pDQtiaifNofTOe2KQ/L3zXzP/w8i/Z4ySPHrN9NHvv/AIxUE3/BSr9nlenjiZv93Rr7/wCM0tCOWR9PHk0p6Y714P8ADP8Abm+CPxb8TWvh7w745gk1q8bZbWd9aXFmZm7KjTRqrMTgBQcnPAr3bzFYcEjjPQgj6g9PxpWF6jl6Zxu9xXH/ABV+E/hj42eDbrwv4w0tNV0a4ZZDCzFGjlX7ksbj5kdcnBB7kEEGue+NX7Tnw2/Z5htW8d+JodGnuxutrKOKS4uJlBxuWONWbGTjJAFePN/wVI/Z9ViP7e1h+2V0S5Iz/wB81pHQqzex3XwC/Yo+GH7OOvXet+FdMu7nWLmE2xvtUufPkhhYjfHHhQFBxknGTgDOK9e8YeC9G+IHhnUvDviLT4tW0bUoWt7uzuBlJUYc/Qg8g9QQCCCAa+Zv+HpX7P8A0Gta2P8AuB3H/wATTl/4KkfAAtj+3NZ/HRLn/wCJq72Vhcsr3PZfgl+zb4B/Z50y+s/A+ijTDfusl1dTSvcXMxXG0NK5JKqMgLwO/Ukmf4z/ALO/gX9oLQ7TS/G2ipqMNnI01pNHI0U9s7DDBJFIIUgDI6HaMjivGP8Ah6N+z938QasP+4Jc/wDxFH/D0T9n/t4g1b/wSXX/AMRRzBaV7nqfwH/ZR+G/7OP26XwXoYtb69VY7nULuQz3MkYORHvP3UyAdqgAlRnOAVq/HH9kf4aftDXMF54x0HzdVt4xDFqthM1vd+UDnynccSLnJAcHbuO3HJPmv/D0b9n/AJH9v6v/AOCO6/8AiKVf+CoX7Ph6+JtTH10S7/8AjdF1aw7Svc97+FHwh8LfBPwjb+GfB+lR6VpMLmXbkySyyHG6SSRjudzjG4noB0rsud2eo6EN3GTnJ/H9K+Vx/wAFPP2ez/zNWoD/ALgl5/8AG6Q/8FPv2exn/iqdRP8A3BLz/wCN0XVhcre57x8VvhH4V+NXg258L+MNJj1bSJ2Eu3c0UkcoBCyRup3I4yRuB6MfpXBfAP8AY0+F/wCzjqV3qnhLSLh9auYfs7apqVwZ51iJBMacBUB7lQCe+a8+k/4Kifs+qRjxHqr/AO7ol1/VKVf+Co37Pzf8zDqw/wC4Jdf/ABFCaHyu1j2D44fs1/D/APaJ0m0sfG+iLqD2TM1nfQStBc2xYfNsdTnB4ypyDgHGQMHwJ/Zt8B/s4aDe6X4H0lrFb+RZr26uJ2mnumUEJvducKGbCjAGScZJJ8hH/BUT9n0/8zFqv/gkuv8A4ig/8FRP2fh/zMWqn/uCXX/xFNWQuWR9GeOPAGg/EjwvqHhzxLpNrrOhahCYLmxulLRyL68YIbIBDAgqyqwOVFeG/B3/AIJ+fCL4I+P4fGOhadqV9rFqS1n/AGve/aY7Niu3dGu0EsBwGYkge4rC/wCHpH7P3P8AxP8AVz/3BLkf+y0jf8FSPgB213V2+mjXH/xNLS4WkfVyx9Ac9gT3bjv+NfNXjT/gnb8EvH3jqfxXqfhu4jvLiYz3VjY3rwWl1ISCzOijOG7hSAaxV/4KjfAA4zrusLz/ANAS5P8AJalX/gqB+z8c/wDFR6oOe+iXX/xFPTcSUj6k03TbXR7O2srO3jt7O3RYooIY9kcaKAoVVHAAUAAe1cT8ZPgT4L+PvhFvDvjbRk1SxB3wTBjHcWkn/PSGUfMjdAecNjkHpXia/wDBT79n09fE2pL9dEu//jdO/wCHnn7PQ/5mrUSfQaJd/wDxuhtMOWS1O7/Z7/Y7+Hf7Nd9qOoeFrW9vNXv41gm1TVrhZrjygQfKQhVVEJAyAMnAyeBXtbRDaAcAqOG79CK+VH/4Kgfs+9vEWrf+CO6P/slRj/gqJ+z7n/kYNWP/AHBLkf8AstJWSsP3jrvE3/BP/wCAPi/WLnVNQ+Hlql3cO0sgs726toyzHLERxSqi89gorOj/AOCcP7OseP8Ai3aN/vaxqH9LgViL/wAFRP2fs/8AIe1f8NFuf/iac3/BT/8AZ+bGfEGrL9dEuv8A4ijQVpHa+D/2EvgV4H8RWGuaP8PLKHU7GUT28tze3l0kbjlX8uWZkJBwQSOO2K93VSuMnJxyT1J/zj0r5YX/AIKf/s+Ac+JtSH10S7/+N0L/AMFPP2em+94r1BProl5/8bourByy6n1QVHPeuP8Ait8JPC3xs8HzeGPGGkx6tpEjrMI2JV4pFztkjcco4yeR2JBBBIrwn/h5x+zyv/M3Xx/7gl5/8apv/Dz39nn/AKGy/wD/AASXn/xuo0HaXQ6r4C/sO/Cz9nXxI/iDwzpt3ea4Ymgj1DWJ/tElujLtZYgAoTcOpxnBK5wePf8AHXjAznv9Pw6Divlb/h57+zz/ANDZf/8AgkvP/jdOH/BTn9npv+Zuvl+uiXv/AMaqnawuWTd2fUvHal+tfLX/AA8z/Z65J8ZXY/7gl7/8apy/8FMP2eWx/wAVpcjProt9/wDGaz0L5WfUfr6Ufzr5fb/gpb+zyvXxvcfhol+f/aNN/wCHl/7PJ6eNbk/9wO//APjNLQXKz6i4PJ60oyzKOOv/ANb+RNfLv/Dy79nnqfG1yProl9/8Zp8P/BSr9niU7f8AhOZkzx82i33T/vz64o0FZnxR/wAFbfh3PoXx00HxekRWw1/SkgMnbz7ckMPrsZPyNfDIb07jNfpn+3t+1l8C/j18Cb3QdB16TVfE1vcxXWlY024i2OGUSZaSNQFZC2fcL+H5msdzbsYDEn5eQMnOKUrbndTbtZn6Of8ABI347WGl3HiP4Uapcrbz39w2raMsjAefJsCzxAk/ewiMFHUBzxiv05V1bvg4xjHH15r+bLTdSvNF1K3v9PuZbK9tnEsFxA5R4nBBVgR3BA/oQea+t9C/4KnfGzR9Jt7K4Xw7q8sSBGvr2xcTS4H3n2SKu7GBwAOBx1rZVLRsYTw7b5kfswrKpI4B79KdvDLtzt/X+Vfjqv8AwVi+MyjA0vwr9Vs5x/7WpG/4Kx/Gfbj+zfC6/wDbnKf5y1POiPYSP2LaQ7sDdx355pVkYLkng9OcV+OH/D2L408f6D4Xx72Mn/xyo/8Ah7B8a16Wnhgf9uMv/wAdp8wvYSP2QMmT95fz/wDr03zBuyQMj3OD+tfjiv8AwVh+NmD/AKL4XP8A24S//HqT/h698bG62/hrPtYyD+cpo5kH1eR+xzNnoAxH95jn8PSmtIN2ScnH8Vfjn/w9c+NXe28Nn/tyf/4ukf8A4KsfGaRSPs+gKfVbaQf+z1Fy/q877n6lftBa1b6L8DvH17cTCOGPw/fsS3THkMPzyQPxr+eqHiGJehwv8hXu/wAZf20/ir8dNEl0bxBrUcGjzf66x0+MxJMPRzk5HtXheMbu4Y9On4/X/Ck7WNoQ5D60/ZJ/bQsP2Xfgv480iz0+bUfGWs6jHLpkTDFvGPJCGSRsg/KVzgDnjkc4+ZvGXjTWviF4k1HxB4g1GfVtX1CUzT3MzfM/bAHRVGMBV4AAAHFYfO37xPYLnr/j3qRY2ZlRVZy3yoFXPOCAAo6nJ4o5rl2S1DlcsRy3K7lxn0644wDzX6c/sJ/8E7Y7FdN+IvxV01JZ2VbrSfC94m5YVPKzXSEfM2ORG2cH7wzirv7Bf/BPc+E5NN+JnxOsE/tkKtzo3h6ePIsuAUuJwc5lGMhD9w8n5gMfomqg8gEPjqew+p7VSj1OerVb0R8Jf8FD/wBi2P4naXc/EvwfaKPF9hBnVLJUx/atuq4EgAHMyqAB03AAdVAP5LSEHcGG7kBge+McdwRkfj6jFfp9/wAFCP29rbR7XVPhd8PL7zdVkH2fVtet33fZUPDwwnPMh5Vj/CCwHJ+X8vN/mNkggnsTnHtmolua0YvlswK9Oc443Hq3JOT+f6CnLnoBuzwFxnJ6D/P4d6FwAT05xz69Mfnil3Beind+WOv65AyPTI4qfM2fY/cv9jv9nvwb8FfhPotx4cSHVtT1uxivbzxEoVnvA8e8CNv4YumFHHXv0+Lv+ChH7Co+Ht1e/Ez4faco8LTN5mr6Rapxp0hP+uiA/wCWDE8r/ATx8p+WL/gnT+2enw+1O0+GPjW82eGb6fGkajMcLp87nPlMeiwuc47KSegJx+k/xc8feG/hn8M9f8QeLJbWPw/a2rC4juMMs24AeQEPLF87duO9a6OJxrmhLU/ni4H3undeh+n+f/rV91/sB/tzSfDW4sPhv47u2m8KzyCLS9UmbJ02Ridsbkn/AFJJA/2SSehO34l8Ualaat4k1S+0+z/s3T7i7lmt7Pdu+zxM52R7u+Bge5/HE/hXwzqvjLxBp+gaJp82p6zqUy2trYwj95LIxwF9h1y3QYyeKy1TOmUeZH9FS2yXyvGG3K4KmQnI24I4UHHr1yMHkZ4GB4R+CfgTwX4guNd0Lwfomj6vckrJfWdhHHIQQMqCBwCRnA6+1J8DvBur/D/4ReDvDniDUBq+uaXpdvaXd4uSJJUQBgCeWxjGSASBkjNP+L/xg8N/A/wPf+KfEt4tpYWynapIDzPjiNAT94nv2xXQlpdnnu97IT4w/GTw38C/At94q8T3q2tnbqWWNmHmTyYwI0HHzH14x6ev4hftUftUeI/2nvG7apqDNZaDakppukK5McKA/ef+8545PpSftTftTeJv2nfGzapqbvZ6JaMV03SFY7IVyPnb1cgDn2rxTjliST/tdT36+vWplK510qfKrhsDZ5J54LHr7/zr6z/Yp/Yvvfjvq1v4q8TwT2ngS1kLIuCj6m6k5RT1EeR8zdew5yVofsS/skv8ffEX/CQeIFkg8B6XPtlKZDajMoB8hD1CDI3t2yB3BH6/aDotjoum2ljp9pDZWVrGsENtbqFSNAMBQBxgDA44rPW5VSry+6g0Hw/Y6HptnZWFtFZ2VrEsUNvAgRI0UcKoHQYGMe1fH3/BVyHy/gL4cOFwviKP7ox/y7OOlfbiRrngYHQD8K+MP+CskZ/4Z98Pt2/4SGP/ANESD+lO1kYU37x+Szf6pvYV+537L8gf9nn4bkdvD2n/APpNHX4XSHEb1+5v7L4I/Z3+G/v4d0//ANJ46yW6OirsfBP/AAVU/wCSzeDvbw+w/wDI7f418Vt1r7S/4KoSCT40eEgDkroDZ/7/ALf4V8W4rae6NKfwnun7E4H/AAvq0zjP9n3WMj/ZFfpFo+BLweC2DgV+bv7FKn/hfFrxk/2ddf8AoIH9a/SHRQWkG75SCDj1yM1BlLc6by19P0oo/wCB0UiT6ebmvOf2jLc3X7P/AMSol5Z/DeoKPxt3r0ZhnjqBWL4y0FfE3hHXNIb7t/YzWpDdMOhXn25prc5Vufzexf6lPTHH5ClblWHqpH6ZqSezm024ms7hGjntpGgeNuqlTtIPvkGmZx23c9M4pS3PTj8KP1h/4JBeL7a/+Cfi7w2JS99pfiB7tosfdhnhTYfxaCU/hX0v+1t8MZPjJ+zn468LW0fn3t5pzy2cYPLXER86Ifi8QH41+WX/AATd+N0Pwi/aEg0rUrjytD8WRLpchkfakdwGzbOx/wB4lP8Atqa/aLzN4Unlj9045Y5wD+eD+FdCd0edUXLM/mu6Bt4IZfvL05BBIP45/Kv1/wD+CU/xwtvHHwSm+H93Ov8Ab3g+Z1SJ2+eSxldpI35PIV2dOOAPL9a+Lv8Agod+zhJ8E/jVca9pdrs8IeKpHvrR1X91bXO7NxAewG4lwM9GOOAceG/BH4xeIfgH8RtN8Z+G5dt7ZkpLayNiK7gZh5kD/wCyyjHsdp6rio6nRL3o3R/RIOoI+8BkZ4/D2r8tf+Co37MPiFviB/wtjQdPl1LQ721httXW2jLyWc0SbVlYAZMbIFG7opQ5xkZ+9f2ef2kPB37SXg2PXPC17m6jUfb9Km+W5s5T1DrnpwcN0IXNeqlRIpH3g3HGTnp6c1XLzKxyxn7OR/NCZI1ZSZFUkZxuHIP4/wAqQSRLwXXHYdR+ua/pBb4d+FHupLiTwxorXEh3PI+nRbmOe/y/zqZfAfhr+Hw5pA/7cYv/AImn7Nm/1hdj+bdpIOpkVfwqPfAzDEq5HPSv6Tv+EF8NMP8AkXdI/wDAGL/4mmnwJ4a6f8I5o53cf8eEX/xNCph9YXY/no+D/hHxB4++I/h3SPCFrc6jrst/E9p9jG9onVw3mnA+UJjJY4wM81/RNbxssaq7b5QAH688deefUc+lQab4X0jRDJ/Zel2OmeYNsn2O2jhLfXC89/z6GtBV8tccD/d6dMcDOAMAcfWnyMxdRyZ+M/8AwU/+HnjHRf2kdX8Wavb3EvhzV7a3XS79UZoIo44lR4GIwEIbLEZwd/fnHxm1xCpw0iDHHOPyHtX9L91Z2+pWrQXVrDcwOfmhliDpn15BH6VnReBfDcednh7Sk9cWES59/u0uS+5ccRyq1j+bNbiFuk0Z/EUrXEHeaMflX9KA8H+Hx00LTP8AwDi/wpR4P8Pt/wAwLTDj/pzjP/stL2RX1nyP5rftUHGJUB+opPtUWceco/EV/StH4T0OPO3RdOiPtZoM/pS/8I5o/wD0CdPz3xbJ/hR7IPrPkfzVfaFbo+ffikN1H3mX9K/pZGg6SvH9l2IH/Xun+FJ/wj2kdTpVjnOB/oyf4UKkH1nsj+ab7VDwfOX8xSm9hH/LVfzFf0rnw5o7c/2VYE9ObZP8KB4b0f8A6BWnj6Wyf4VXskH1h9j+ab7dE3/LQfpS/aov74/Sv6Wf+Ee0n/oFWH/gOn+FO/4R3SW6aXYj6Wqn+lL2SF9YfY/mj+0xH+MUhuIv79f0ujQNLX/mF2X/AIDIP6UN4f0p+ul2R/7dkP8ASn7If1h9j+aAXsHTzR+lPFzC3IlGfqP8K/pa/wCEb0fkjSbEeubVP8KX/hHdIIH/ABKrH0/49k/wo9mg+sPsfzS/aIuvmjP1FO86Nuki/pX9K/8Awjmk9tKsf/AdP8KUaDpS/wDMLsF+sCD+lL2YfWPI/mn86NeswH0xSfaIv+eq/pX9LLeHdIbGdLsT9LdD/SmN4Y0aTG7SLA/71rGf5ij2YfWV2P5q/Pix/rFH4imtcQD/AJbp+Yr+lT/hEdAb/mCaaf8AtziP/stN/wCEP8P/APQA0z/wDi/+JoVMPrPkfzWfaIf+eqH8jR9qj/56KPyr+lT/AIQ/QF6aHpq/Szi/+Jpy+F9Fj+7o2nr9LaMfyFP2aD6z5H81P2iPswP0o+1Rr1fH61/S4vh/Su2l2R9hbJ/hR/YOl5ONMs0/7d0/qKXsxfWfI/mj+0R8/vM/hQLtOfnH6V/S7/YWl8Z06y/8B0/wpjeH9Jbrptie3Nun+FP2QfWfI/mm+1If4x+lH2pO8gr+lhfD+kHP/Essf/AdP8KP+Ef0n/oFWJ/7d0/wpezD6z5H804uE3cSHFP+1Rr/AMtK/pYXQ9M6f2bZ/wDgOn+FC6BpbsQNMs+PW3T/AApezF9Z8j+ab7TGc5kGfc037RF/z0X8/wD69f0snw7pT/e0uy/G2Q/0pP8AhG9JXppVj/4DIP6UeyD6x5H81K3EeeJP++ad9ojzzLx+Ff0qHw1pD9dI0849bZP8KjbwrovfRdP/APASP/4mj2QLEa7H817XMSqcSr+Bwf0/rSLIjN99Sx44I59Bx3r+k9vCmi9P7F04/wDbpHj/ANBrmfGvwP8Ah/8AETS307xH4M0PVrRhjZPYR5XPUqwAZTwOhHSj2ZosSux/Oyy7TgjB7huD+tN4NfuJc/8ABNv9naaQuPATRD+5Fq16o/Lzv5UL/wAE3v2dkA/4oJj/AL2sXx/9r1Hs2UsQrn4d/TIo/Wv3GX/gm/8As7n/AJkDP/cWvj/7Xp3/AA7l/Z4+b/i3g+X/AKil9z/5Ho5GV9Yifht16c/iKXHrx9a/cVv+Cdf7PCqP+LdR4I6nVb7/AOP1l6p/wTo/Z8mtbhIvBEljIY2HnRave5QngEbpSM57UcjGsQmz8TeOxB7HFPVNxAHf17Vf1zTzpOtalp7Pv+x3c1rnORlHK9+vTr3yK7D4F/DeH4u/Fbw/4QnvGsYtTeVDcLglCsLupwSAeVH51m1Z2N+ZHn4wQD6gH86WvQ/jV8EfEPwN8XPouuR+ZFIvm2eoR/6m8i4O5D/eGeV6jFeeMQaLB6Bijb7Uq8ZOPerNjZz6leW9pZ28l5dXEqxQ28KF3ldiFVVQckliAB1yRx0oRLIrW3lubiGG3iknuJ2EcMUAy8jE4AC4ySTxjryOOa/VT9g//gnuvw7bTviJ8SrGOTxSAJ9L0J1yumZ5WWXs0w7dQnUfNgptfsKfsCW/wdhtPHnxAt477x9JEZLWwkw8ekqe/o02CMt0AHBOcj7kRCGZlBZm4zjr04z/AC/yTtGPU4qlXogVTuyBhvXbgAH+nX3/AFr87P8AgoJ/wUAHh2HUfhn8NNRVtTkUw6trlu+77Op4aGJgeH65Yfdxxycq7/goL+34nhddQ+GPw1vw+rMvk6trdvLuFqp4aCIj/lp1y38OMDJJx+WkjPNIzu7O7EszseWJPJPuacpFUqd1diSSPLI7szMSxZmdupPf6nH6e1aGhaPf+IdYstL0myn1LU7yVYLezt0LyTOxwEVRyST3HTBpuh6HqPiPWLHStJsrnUdVvZlgtbS0QvLLK3CqgAOSen4npX7GfsK/sJ2P7O+m2/ivxbHBffES6iwNuHh0mJhkxRer84aQdeQDjOVGPMbSqKKMP9jD/gnfpfwgt9P8ZfEOC31zxuEEtvYtiS207PTgjEknbfggY4znI8F/4KJfsS3HgnWtQ+KPgmx83w3fObjWdOt050+Y8tMigf6lupUfcOcfKfl/VhFbBIGH6g46e/8An+fJ/Nj/AIKN/tuW62ep/CnwHfJPPMrQ65q0ThtqEYa3jbPUnO444247nDlBJHNCblK5+aavtbKnBHfr+Hvx/SvQPiZ+0N4/+L3h/wANaH4p8QXGpaX4ethbWFuTtHAwJJCPvybAE3HnA75OfOvvNhRjnaB0+nHatnwn4T1bxv4gsND0Gwn1TV7+QRW1rarueRie3oPVjwKxWmx2ySdrkHh/Q9Q8Ta1Y6TpFlcalqt86wWlraIWklYnChAByR/IE8Acfsf8AsPfsP6f+zfosfiTxLDDqPxFvoP3rL80WmRNw0EPqSCd7D73IHHNWf2Jf2GtM/Zx0lPEXiJYdW+Id9DmW4Vcx6crDmKDgfN6sACcYHFe/fFj4reHfgv4H1DxV4mvUsNMtELqcgPK+MLGg7s3OOmPwydox6s5Kk+Z8sSL4u/GDw38DfA2o+KvFOoR2enWQ4B4knkxxEi/32J7dK/Er9qz9qzxL+1B40OoaiXsfD1oSmm6Kr/JCueHf+85459qT9qr9qjxD+0944Op3jyWHh2zO3SdIVjtgQdGY93PUseR0rxFcctyWyeT375/+t2/GlKV2bU6aWrGr1bO5v9rrx6n0pflbv93+Lrj3xX1P+w3+yva/HXxFdeIPEaLJ4R0eXy2s92HvbkAMIzj7qAcnOM8AZr7K+Mv/AATo8B/FmGbVNDb/AIQrxK0QAn0+IfY5iBgebD1BwOqsPcHtCV9S3US0Pz5/Z5/ar8cfs53Ri0S4XUPD1xIZJtFvGzBIT1eNgMoxHpntkdK/UD9nP9uL4efHjydOW8bw74nbAOj6oyo7nB/1b5xJ07c9OBX5ffHP9kj4k/s+3EsviPQmvNFzhdd0sGe0Yf7RwGQ+zAd8E4NeNK3zJIjBdrZRg2CCOhGelO7QOnGorn9HasoCEuqhj1LDjP8AntXxb/wVknVf2e/DsZO1n1+Nlz3AgkPH/fQr45+A/wDwUO+KPwcSDT9TvP8AhNPD0eFFrqkrfaEH+xPy3T+8GHAwRWl+21+2ppf7UHh/wvpOh6PqGj22nTS3N2t+0bFpGACbSh5AG7k+tHQwjTlGep8jSD92+Bz6V+6f7M8DQfs+fDqNx8yeHNPyB2/0eOvwyt7OXULq3tIIzLcXUohRV6szHCgfU7RX74eCtNt/CfgnStNUiO30ywjgLZwAkcagn6bRj6/nWaWqNavY/ML/AIKZa5Bqn7Qmn2kMnmGw0OOKQY+6zyO4/wDHcH8a+TP4q9B/aI+JH/C1/jb4w8To261urzybU9vIiURofxC5rzxe3eqluaRTSR77+xDB5nxy8wqWWHS7hzj3eNf61+jGjf6wMdu7vz27fpXwf+wToDTeMfEuuniO1sls1PT5pHDEZ9hGP++hX3jpCiOQYBIyAGPf6mkZS3N793/foqxhf7sf50UiT6dK7qTmPJAGByTn/PenUc8Y4OeuM4qzkPwr/b5+D8vwd/ad8V26W7Q6TrjjXLB8fKyzf6xR/uy7xjtxXzv17V+13/BRT9mV/j18G31bQ7TzPGfhYSXuniNcvcwkfvoOBklh8yj+8AO9fihkFmBGxlOwo3BUj+H6gkiiSW6O6lPmVmPjLJIjRsyOrZDKfu+/+f8A64/Xr9hX9tyw+NXh6z8I+LbuO18d2EHlFppAg1KNRgSrkj95gDcMdeR1OPyE29QePUf0zU1nfXWm3sF7Z3EtreW7CSC4hcrJGwPykMORj/PqBS0sVOmqjufv58avhT4e+Onw51Lwp4jhWXTb5QY7hQA1tMAfLljY8b0OD15BIPBr8R/j98A/FP7OvjaXQ/EdvvhYmSx1SBCLe+iB+8rYwOo3IeVJA9CfpX4E/wDBUHxP4PtbbSviJpcniuwhjES6tY4S+VRyN6n5JMHH908k5J6/QHiz9sL9m349+C30PxbqkQtLkbjY6zYTJNbSYJDxyKpAcHOGU9+c8VSXMZwk4e6fl94E+IPiX4YeJIte8K6zeaDrEPAubOQKzDrtfIIIP905HtzX2/8ADn/gr1430W0htvGfhHS/EhTAN5p8zWcrAd2Uh1Lf7u0ewr4/+MvhPwb4R8XSQeBfFsXi7w9OvnQTiJ0mgyf9XJuVQWHqOvoO/B5x/wDXFTzOLKcIy3R+qNp/wWM8FsgN38P/ABDFJ3WGW3kH/fTMCfyqwP8AgsR8PuM+BvFWf+3T/wCOV+Up+brz+FG0f5FP2rF7GB+ri/8ABYn4f8bvAvinH+yLX+kopf8Ah8T8PeceBPFZ5H/Pr/WU1+UO36flRj1x+VP2gexgfq9/w+H+HffwH4sBz6Wn/wAdpf8Ah8R8O16eA/Fn5Wn/AMdr8oNvsKNo7gUe0D2UD9YB/wAFiPhycZ8C+Lhz/ctD/wC1qlX/AILFfDb/AKEjxgvPaO0/+Pivyb2r6UbV9KPaIXsYH6zf8Pivhn38E+Mif+uVp/8AJFMb/gsV8Nu3gbxefrHaf/HzX5ObV9KNq+lHtRexifrIv/BYj4bc/wDFD+MP++LQfynp3/D4r4acf8UR4yB/652p/wDbivyY2j0o2j0Bo9r5D9jA/Wj/AIfEfDTv4K8ZfhFaf/JFH/D4n4a8A+CfGRAPH7u1H/txX5L7fYUbRR7QXsUfrR/w+I+GvP8AxRHjLr/ctf8A5IpP+HxHw1/6Ejxj/wB+7X/5Ir8mNo9KTbS9og9ij9aP+HxPw2Xp4I8Yf98Wo/8Abikb/gsV8Ne/gfxgf+AWh/nPX5M7fYUbR3Ao9og9ij9Zv+HxXw17+B/GI+kdp/8AH6P+HxXw1HI8D+MSfeO0/wDj9fkwyg9BQqgdRR7RD9gj9aF/4LE/DXovgbxiB3+S0H8p6Rv+CxHw4z/yI/jAjPdbT+sxr8msD0pePSj2g/q6P1hb/gsT8OB08C+Luv8Ads//AI7Sr/wWL+HOefAvi/8ABbT+k1fk5we1JtHpR7UXsIn6xP8A8FjPh3u/5ETxcw9xaf8Ax00f8PjPhwv/ADIfi/8A75sz/wC1a/J3aPSgqD2p+1QvYI/WL/h8b8OT08B+Lvysx/7VpP8Ah8b8Ou/gPxd/5Kf/AB2vyeCgdqCoPaj2gexifrAP+Cxnw65H/CB+Lsd+LQ/+1acv/BYz4cD/AJkXxh/3zaf0mFfk7tHpSKoGeKPaIPYI/WQ/8Fivhwx/5EbxcD/uWh/nPTh/wWJ+G3GfA/jAfSO0/wDj4r8m9o9BSbR3Ao9oh+wR+sp/4LGfDVT/AMiR4xxn+5aj/wBuKQ/8FjPht28D+MOv9y1/+SK/JsqPQUm0ego9og9ij9Z1/wCCxnw1x/yI/jHP+5a//JFMb/gsZ8OP+hG8YH/gNp/WY1+TWwe1Gwe1HtA9gj9Y/wDh8V8OW6eBPFxP0tB/7Vpp/wCCxXw928eA/Fmff7J/8cr8n9opdvsKPah7FdT9XW/4LGfD/PHgDxUR/vWo/wDalH/D43wB1/4V/wCKge3zWp/9qV+UW0dwKXavpT9oP2UOx+rn/D4v4fNyfAPioH2Nr/8AHKT/AIfF+AB/zIPio/ja/wDxyvyj2jsBRtHcCl7QPZQP1db/AILGeAGPHgDxUfq9r/8AHKhf/gsV4Ezlfh/4n/4FLbD/ANnr8qNo9KNo9M0e1D2MD9UZP+CxXgrjHw98Rf8AgRbj/wBmNQf8PjPCe7j4e67t97qCvy12j0pNg9Kn2jH7KJ+p6f8ABYjwcRz4A8QKeP8Al4gP9ad/w+G8FbSW8B+IBz/z2g/+Kr8rtoHajaM8htv8W3OSOuB+OD+FNSbYeyifu3+zj+08v7RXhG98S23hO88OaNHP9ngk1CVS9ywHzFQvZTxnPJz6ZPJ/tkfH7xV8IfhfNqHhHQZdTvpgQ+qEBobBOPnZc5Y9QOOK8j+DP7cnwC8A/DXw54cttXutJTTbWOH7PPp07spC4O4ojAknknNXfH/7dHwQ1rwnq1jbeJ2vHubOWMW8um3ASVmGAvzR45zx9Ksx5Xc/KSaR5ppZZG3vIxkLHkksSxP45z+Ndp8E/iX/AMKg+KGh+LXsm1FNNkdzapJ5ZfdGyYDYOMbs9O1cOI/L+TsOg5/PmlrG9mdbSskj65/aE/bR8J/HT4a3HhqXwTeQ6kGEtlqc90u61lGPnAGeoGCOM5r5HC5Y8Ac8e3tn65/Omnmnq23PBORg/wAz+OAf1ou5DXYsWdnPf3VvaWtvLd3dxIsUNtChkeV2YKqhR1JYgAepFfrd+wn+wjD8Fbe18eePbaK98fXCFrWxkAePSVYEHt80xB2luwyATyK8l/4J8/Dr4P8Awu0u0+JHjr4heC08b3kbNpmlXuu2if2TE4wHKNICszoeQRlAcdScfdsH7RPwonYrD8TfBszsdqoniGzZnJAwOJeTx+n5bRilucdWb2PR7dQMAjJyNwIPPXBLf5z+OB+eX7fX/BQJfDkepfDb4aX6yatIhh1bXreXItgeGhhI/j6gt/DjA5J21f27P+ChlpYafefDz4U6tFeXcyeVqfiSxnEscUZGGit3UkM55BccDGASSdv5iSTPNIzOxdmJZmbqxPUn3/z7klJdCaNFvVjZpXuZXklkLySMWeRjkux7n3OP89S1V+UAjjg8j/OafHEZJAq7QzcDeQqj3JPQV7J8df2fdN+EGl+HL/RvHeh+NbXUYdtz/Zd1A0tpOBnY0aOzFTk4bA+6c4rOza5js5lflPaf+CWHjbwL4V+Od5YeJLMJ4p1i3+x6BqsxDRWz/MZYgD915RsVSBztKZ+fa37CJJuLsGUZBO4EYAx06+nf6DtX82VjdT6feW93bTPb3EEiyxyxthkdcMpBB4IOOf8A9VfaHxC/4KeeM/F3wP0rwjp1rJpniua2+y634iEg3SKOM24GNjOoyzHBU5C8YK6xlZHHUpOUj3D9v39v0eHYtQ+Gvw0v86rIpg1bXoJMm3U8NBEez9QW/hxgck7fy7mYySSySO0jsWkeRiSznuSe5PH5/U0+eYzyPIxZpHbczM2Sx9T71Y0iwl1fUrOxgaFZ7iZIkNzcJBFuY4G+RyFReeWJAXr2rKTuzrUFTWhr+Afh74h+Jvi6w8MeGdNl1XW76TyoraHBxyMszdAo7np+PFftB+xr+xfoH7Mvh7+0LxYdX8d30X+nan1WAHrBDxlUz1OASQOK4D9j/Q/gL+zH4JWFvif4G1PxnfRj+1tYXX7MBm2gmGDL5EIzjjG4jJwcgey/Eb9tL4P/AAz8L3+tTeOtE1trdN0Vjo2oQXl1cNjAVI435J6ZOAODnitoxildnLUnKbsjuvjF8ZPDHwK8CX/irxVfpZ6faLuCHAlmkxhYkXOd59B0/GvxL/ar/au8TftQeM/t+oGTT/DtoSNM0ZXykI7O4z8zkY57Y471R/ae/ag8T/tNeOpNX1dzZaRZsU03RUkLJaLxgsf4pCMZcjtivG8fN8o5P5k4z+HfjoPXmok7s1pUuXVj1TOSx5/vMcZ+vv159q0Lrw5q1jpun6jdaXeWun6iGNndTwPHHdAY3eWxGGHIyR7etfQ37GfwP8FfEDxC/ib4k+J9D0Twpps2yPT9R1SC2k1GYANtw7AiIZG445yMZr78+N0vwC+NPw7bwlqfjnwbaWdugGnzWOs2wfTmVSVaMCTAXgAqOvHpRGN02aOpyySPzO/Zh/aH1X9nf4gQarB5t54fvGEWr6YG+W5gzneOfvrjIPXgjvX7beBfEul+NPDOl6/o95HfaZqNst1a3S4w8bjcD9ecHPORjtX4J/Ejwb/wrvxpe6INY0zXo4GDxalo92lxbzIwyrKyEgHp8vY59a+6f+CbP7UmheDfCeueBfGOvWej2VlL9v0u41K8SBCshxLEGcgcNtcD/po3oMx8LsRVhdcyP0jks4rq3eC4iSa3mXY0MmGDA+oxgj2NfLnxu/4J1/Cz4o/a9R0m1PgfXGVybjSIwlq7YyGkt/unoclSOvNemax+1p8INHt2nuviT4acKM7LbVYZ5MAnoqMSenbnpXyx+0T/AMFSPDsOi3mkfCuCbVNWlQxLrV5CyW8APV0RsM7+mQAM55xg3dHPFSufnv8AFT4f3Hwq+IuveEby/tdTudHuTbSXdixaJzgHjIGMZwR2II7VyUnPJPyj26U+7vZ9Su57u6mee6ndpJZZG3M7kklifcnp+pqLPbOCQR+lYSWp6Cvpc9p/Y9+HJ+I37QXha2eJnsdMm/ta6bHCrB8y5PQAvsHPrX2v+35+05F8M/A8/wAPtCug3inW4dl08T4extW4bOOjSDcoHZck4OAfjn4A/tKab+zx4F8SS6Hoz33xB1mQRLe3YBtrSBcFTjOWYtk7cY4HNeI694g1LxTrl5rGsXsuo6peSGae5nbc7uepye3oO2K1VkjFpyldlER7enb5frjv+v6U/hQScccn6D/IpqgKvHHfJPWvSPgL8LZfix8Q7LT5I2Gj2bC51KbHyrEv8BP+1yPfn0qNzRuyPsb9knwG/gv4TabLPHtvtYY3849FY4jBz/sBfzr6T0aMtKQfug9PQH/9VczpdrHHsXykSNUAVNuNo7ADtj+ortdFtzGq8Fh6sM5BpGL7mn9li/56J+dFX/ssX91PyNFBFz6Kzn/9dJ6cZo7UtWctwz6KOOc+9fmD/wAFBv2A7qz1DVfin8NNO+02U+bjXPD9rFl0k/juYEA5BHLqOQQWAIJ2/p92pPy6EdOfp9Ka00KjLld0fzSq2VJ/5ZrwCSMf/r/wpeMV+x/7T3/BNPwX8aLu98SeD54/A3i+UGSQxQZ0+6fuZIlwyE/3kPckqTzX5wfFr9in4x/By5m/tfwVf6jp0YZ/7V0RGvrUqMZYsi7kHP8Ay0VT164NTJdjthUUtDwwrnPC9P4lBprLxjk8Y+8QB7gVK37ttrja2dpB7Hngnp2pGZeORU6mtkM5ySTknqacOaTzEbod30Bo3J3IFA9LCnigc03zYx/EB9TR5sf99fzosxDtoo4qPzo+fmX16ik+0Rf31B69aOViuiXijHpUfnRDGXXn3pfOi/vqD6Zp2YXQ/HrRtFM86LON6n8aTzov7y/mKLMd0SbRRtFRieI5+dfzpfOi/vr+dFmF0Px6UYPrTDNF/fU/Q0vmRjguv50rAOx60bRTPOj/AL6/nQJY/wC8PzFOwXQ/HpRj1phmiHV1H40edF/fU/jRZhdD9oo2imedEc/Ov50edF/fH50WYXQ/ij6U3zI843r+dHmR4yWApWYXQvIo5NJ5sfTcM9cUebH/AH1/Oiwcw7FGKZ50WM7h+dKskbY+dR+NFh8w7HrRxTPNjz99fzpPOjzgOv50xXRJxRj0qPzo+7r+dHnxf31/76FFguiTHrRj0qPzov8Anon/AH0KXzoj0dT9GosK6H/WjimedEucuo5xyaPOi/56J/30KLBdD9tJjFM8+PpuGfTNBmj/AL6/nQF0OpcZpizI38YpfOj5+dT+NAaD9tG0Uzzov76/nR5sf99fzoC6H49KPrTPMj/vD86Rpol/5aKPxoDQf9KOTUfnJ2YH6GgXEXdwM9KLBdEuPWjaKj86Ln51P407zI/76/8AfQosF0O4pOKb50X99Rzj7wpfNj5/eIce4oC6HcUjKD2B+oBx+YprTRjqy9M9aXzI/wC+v50aj0FCdu3+e1G3rzgduT/jTfNj/vL/AN9CkE0R/jX8xRqK1iTbjgcD8z9c0Y9ai+0Q93UfjR9ph/56L+dOzC6JdooZQykEAg8H/wDX/nIJFR+fF/fU/jS+bH/eU/jS1QaD/m9ff8Sck/n65pD0IOcH0Yj9aaZEBxmgyJ/eH507vcNGHKgAHj6f5/IULSeYndhQJo/76/nS1HdCt29RyOB19PpSKoXG35dvQY4/HvyPQijzoiceYgP1FHmx5wHB+nNGqC6HEDjHb/OPpS0zzk67uKTzkz94UWC6H0fof72OR/n/APXmmecmcbhS+dH/AHxRYWg7bnd0BP8AdAGPbvx+Pem+SByQpLDB46/nSiRPWkaVBj5hTuwshewAzgdj2+nYD8KNv0+hGQfY+1N8xB/EPzpfNT+8Pzo13DQXbjoTjGNpPGB0/wA80u3sAPXJ/wA/WkEyc5ZfzoE0Z/iAo1DlQ4RgLtHAzn8f5dh0ApQPx78jI/Lp369qb5kf94CjzI+MMDS13GG0Lj7pAORleeOmSMfnQATznPHOSTz9TQJY843rn3NHmRn+Jfzp6gL060vUY7Z5GcU3zI16so/GlEiAE5GPWlqHmxQDjHXmk24ye1a2h+G9X8TTGHR9JvtVlxnZZ2zytj1woJxXunwz/Yt8YeKLiK58UMfCmnKQ7QttkvHHoqjIT6k5HoaVieZW0PF/AvgPW/iR4gg0XQLI3l3NjezcRQpkZeU9Ao6++OM1+jHwb+EOmfCnwtDo+mBbu5b97eXkijfdy4GWb0UZO1e2Petr4c/DPQfhnoMek+HtOFnbk7pWyTLM2OGkfqx5PsMniu9sNLIckqrr0GcnAzxjJ4Htz9aZnKWhY0+0CR7kXcrcFm5J9yf6Dpiuu0i3Kqm1SVHAZSQPes6wsuEZTlxgcqeR7Cus0yxCqDyRu3bs8H2pGTk7Df3f95qK1Psf+wn50UGfMz2mijGTSdyKsyuLRRSUBcG9RwR6cH8+1UryAurFcDvwB1/Lr71eI+XNRSJ70dB31PNPFng/TNadzqOl2OobvvC8tUmJGCOSwOeteZ3nwb8GW2Vj8GeHIx1LLpEGf/QK+gtSsRICwxz1zXM3+liRs4X8aktSdzwi7+FPhaNiV8LaEB/dGl2+Pw+Ssi4+GvhtN+3wvoofgjbpkA7+yV7beaSG3nG3tj0rLuNIVc5GSAMGg1TPHG+Hehbiy6Bo+B126dCO5/2KrSeAdF+9/YGkj0/4l8H/AMRXr82i7mP7tVXO0bTVT+wdw3bVx2zTuVc8mPgbRNyA6DpauxwCLGED8cLTP+EH0ospGiaac/3bKH/4n2r1WXQVYElUzyBx34pjaHGSwUKpGSpx06UXHzHlzeDdL5xoumgg4x9ii/8AiaRPBulK24aLpu/POLKI9x/s16d/YoyNyozAbulNk0VcrgLk89MYouHMea/8IbpLHcdG07H/AF5Rev8Au00+C9HJ2/2NpxOf+fGL/wCJr01tFVgQVBIIx+NH9idc7M444ouHMeZ/8IbpOGJ0TSww44s4R/7LUkXgvSGYAaLphcDJ/wBDixj/AL5r0ddFjKKxjyxOOCBzTm0NJMjoM/MuRzilcdzzYeDNHXP/ABJdOHOcGyhzz/wGk/4Q3SlYZ0bTWI6FbOIj/wBBr09dF3Z2qOOgz2/KmtoqsoIUYzj5jz/KkTc8zPgvS5A23R9NBIx/x5Rdf++frUcngvRmY/8AEm03BOR/oUXTj/Z+teof2Gm4AhWPWmrog2rhRnHoKB8x5efBOkKrf8SbTQBzn7FF/wDE07/hC9LGCuiaeMkf8uUP/wATXpw0X5hujRmB4PSk/sNDlzjqQc859OP89aL9h3PMm8F6V5gU6NppbOM/YosDoc/d9qF8G6arAjSNPKkc/wChRDucfw16c2hIVJ2qSFxxwOfaj+xom5RVUZwAeeO39aq7C55ivg3SY8/8SbTg/r9lh/8AiaePBelbgDpGnnP920hP5fLXpa6OoYAqueegFKNHXZ8q+uN2OKLhc8zbwfpnzk6Np5YcD/Q4v/iaangzSjydH04v02/Yoj/7LXpraOBsBUcc/X1pBo4J3DavfjrSuLmPMW8G6SGz/Y+nLyNw+xxD/wBloXwbpRVz/Y+nfez/AMekXH/jtenNo4JYYVsHHzCk/sFfmDRo5XBzgUh3PMf+EH0mRgp0bTiwJPNnF/8AE0N4F0Zsh9C0vg4x9giz+qV6f/YSswKqpwP4qP7Fwoz83XljU6hc8v8A+EH0SPIGhaWD2zYwj/2UU4eCdFYgNoel78ZGLKEj/wBBr1CPRQ3DKuV7/wCRTToo5Ixnt0o1C55kPA+jFdy6FpZ9c2MX/wATQPA+ib8HQdKIxz/oEJPt1SvT10VTGPlBP8qDoy9WVQnqRnBp6hc8xXwNpEXB0DSlHr9ghBP5LQfBejMctoelmTIxixiwef8Adr0z+xTuG/buHGCOMGl/sWNMnAUKf4eKeoXPNf8AhDdJXMi6PpxHT/jxiB6n/Zpy+E9Lij+XSdPTJ4/0WIf+yivSf7DBIKoATydx4/CgaIqcY5OccjijUXMeb/8ACH6e7j/iW2DEZzm0iI/9BqFfBujkD/iTaeME5JsouPr8ten/ANirKoGMDIIyeeOvb6UjaOA2/C9eKA5jzBvBWlbgV0bTSM/8+UXP0+Wj/hC9KVsnR9NXnA/0KL/4mvTP7DWToq5JySaX+xVx8wXGc9BU6jueZf8ACH6crEnR9O3ehs4h/wCy03/hE9LXH/En09Qeh+yR/wBFr1BdBWTnaoBzknr7Uv8AYIbJAQjABXHH1p6hc8s/4Q3TvMJbSrHHfFpET7YyKVfCenx7v+JVYq5ONq2cfHp0WvT20Ec7FUduQOaP+Ef3feCscjnOD+NMXMeYf8IfYbvm0uzbJwR9mj/woXwnpy7s6XYjBwCbVP8ACvTDof8AGqqmSQPenRaCrMV2q/Hf9aA5jzJfCOnsGJ0qx3en2SP/AAoPhDS2YA6Pp7suPvWkfH5rXpZ0MJtcBeuKUaKjYyqcHOaA5jzP/hEtN5kXS7BfZbOMfyWnr4V09lJGmWQJPX7LHj+VekNoqxhUIXoDwPrSLoY3YAX6UC5jzj/hDbBuf7NsTjqfsseP5U1fCOnZCNpVj+Fqn+FelDQVk3KFBzjpStom0qWC+1LUaZ5s3hCwOT/Zlicdf9Fj/wAKavhPTi2P7Nscj/p0j/wr0z+xUkXJC5p39iIW5VQMdcU9R3PMz4SsOcaZYA4IwbSPP8qP+EW0/aB/ZlnvwMYtI/x7V6WNDCqAwUt2zyfxpBoo3bgqk9KWoXPMpPClg/J02xPPe0jP81pg8Hab97+yNPBzx/ocJz/47Xp66HGFYBR17jNKuhKuAVTjngU9Rcx5iPBunZz/AGRpxz1H2OIfl8tOXwnpqkhNJsEOQOLOP9flFenf2HGw+4o6n0obRU+UNtx16UahzHmP/CI6f5nz6XYsw6f6JHjqPalPg+xf5zpdiOvyizjyefda9LXRBn5VUnk9BSnQwY1YjGTjhs0ahzHmC+EdNC5/sixBzgH7HEQf/HaX/hDdP5J0nTwT1H2SH/4mvUF0AeYVwpGOgPFRPoaq247QPdf8KNQ5jzT/AIQ/TB839laeNvH/AB5xcZ/4D7U3/hDdLYBv7KsADyB9jiz/AOg16f8A2EPlfYnrnFJ/YO0Bl2sQAM9M5zRqFzzM+EdNVcjSbAgHJ/0OLp/3zTH8I6Xkn+ydPY7jj/RIef8Ax2vTW0NVDYVQenPNPXQRuLIqjrwMDGcf4UtRnly+DtMY5/snTtzdF+yRc/8AjtI3g/S2bYdG08SZAGbOLA/8dr0/+wQy5B+UDkMR19uKU6GoQEKg4z609QueYnwbprEn+ytN64x9ii7f8Bo/4Q7TMhf7I0/J9LKIf+y16YuioqjKjJ5yKcuilvuIpK85NGpNzzGTwfpwDM+lafleOLOLHXv8tMXwbprNzpNhk9vscXqeny16f/YO5mBVSx+bHak/4R843BB+OOKAueaHwTpf8ei6dhcEMbSLr7/LRF4L0naVXR9O3ZzkWcWPf+GvS/7DGB0I6Yx1zT00KPdhkUDpx1GOlAXPNf8AhDNLZjjRbA5HK/Y4gc9v4akj8J2Awf7MsvlAG1bSNf8A2WvSf7FGAcgdcMRzUn9iiTGAvTJJOaeoXODt9GZY9lrEsKsMFYkCj8lxn8fWrUGjNJjaFXDY9N3qcdif85rtY9HDdNoA5KDirCaSuVU9SwJbAz7UaiOUt9HaJtwTG7IG6tmy0onYQMYHT1Nb0OlBnwdvBOcDjjFaltpoHACo4weBwfSgm5nafpu3YTke2c4/wrds7FUULjaPQd6s2tj5fzABd33v61p29qqr0wMgEj0pkN6FP7H/ALLUVr/ZYv7z0VJFz//Z;" vertex="1" parent="1">
          <mxGeometry x="350.52" y="40" width="178.96" height="93" as="geometry" />
        </mxCell>
      </root>
    </mxGraphModel>
  </diagram>
</mxfile>
